ISO-10303-21;
HEADER;
/* Generated by software containing ST-Developer
 * from STEP Tools, Inc. (www.steptools.com) 
 */
/* OPTION: using custom renumber hook */

FILE_DESCRIPTION(
/* description */ ('STEP AP242 Edition 2',
'CAx-IF Rec.Pracs.---Representation and Presentation of Product Manufa
cturing Information (PMI)---4.0---2014-10-13',
'CAx-IF Rec.Pracs.---3D Tessellated Geometry---0.4---2014-09-14','2;1',
'CAx-IF Rec.Pracs.---User Defined Attributes---1.5---2016-08-15'),
/* implementation_level */ '2;1');

FILE_NAME(
/* name */ 'Part Studio 1 - Part 2',
/* time_stamp */ '2026-06-10T18:19:35Z',
/* author */ (''),
/* organization */ (''),
/* preprocessor_version */ 'ST-DEVELOPER v20',
/* originating_system */ 'ONSHAPE BY PTC INC, 1.216',
/* authorisation */ '  ');

FILE_SCHEMA (('AP242_MANAGED_MODEL_BASED_3D_ENGINEERING_MIM_LF { 1 0 10303 442 3 1 4 }'));
ENDSEC;

DATA;
#10=SHAPE_REPRESENTATION_RELATIONSHIP('','',#837,#11);
#11=ADVANCED_BREP_SHAPE_REPRESENTATION('',(#835),#1379);
#12=CYLINDRICAL_SURFACE('',#857,0.0011);
#13=CYLINDRICAL_SURFACE('',#864,0.0011);
#14=CYLINDRICAL_SURFACE('',#871,0.0011);
#15=CYLINDRICAL_SURFACE('',#878,0.0011);
#16=CYLINDRICAL_SURFACE('',#885,0.0016);
#17=CYLINDRICAL_SURFACE('',#886,0.0021);
#18=CYLINDRICAL_SURFACE('',#887,0.0016);
#19=CYLINDRICAL_SURFACE('',#888,0.0021);
#20=CYLINDRICAL_SURFACE('',#889,0.0016);
#21=CYLINDRICAL_SURFACE('',#890,0.0021);
#22=CYLINDRICAL_SURFACE('',#891,0.0016);
#23=CYLINDRICAL_SURFACE('',#892,0.0021);
#24=CYLINDRICAL_SURFACE('',#893,0.004499999252925);
#25=CYLINDRICAL_SURFACE('',#895,0.004499999252925);
#26=CYLINDRICAL_SURFACE('',#897,0.004499999252925);
#27=CYLINDRICAL_SURFACE('',#899,0.004499999252925);
#28=LINE('',#1162,#98);
#29=LINE('',#1166,#99);
#30=LINE('',#1170,#100);
#31=LINE('',#1174,#101);
#32=LINE('',#1177,#102);
#33=LINE('',#1180,#103);
#34=LINE('',#1182,#104);
#35=LINE('',#1184,#105);
#36=LINE('',#1186,#106);
#37=LINE('',#1188,#107);
#38=LINE('',#1189,#108);
#39=LINE('',#1192,#109);
#40=LINE('',#1194,#110);
#41=LINE('',#1196,#111);
#42=LINE('',#1198,#112);
#43=LINE('',#1200,#113);
#44=LINE('',#1201,#114);
#45=LINE('',#1204,#115);
#46=LINE('',#1206,#116);
#47=LINE('',#1208,#117);
#48=LINE('',#1210,#118);
#49=LINE('',#1212,#119);
#50=LINE('',#1214,#120);
#51=LINE('',#1217,#121);
#52=LINE('',#1219,#122);
#53=LINE('',#1221,#123);
#54=LINE('',#1223,#124);
#55=LINE('',#1225,#125);
#56=LINE('',#1229,#126);
#57=LINE('',#1233,#127);
#58=LINE('',#1237,#128);
#59=LINE('',#1241,#129);
#60=LINE('',#1250,#130);
#61=LINE('',#1253,#131);
#62=LINE('',#1255,#132);
#63=LINE('',#1257,#133);
#64=LINE('',#1259,#134);
#65=LINE('',#1261,#135);
#66=LINE('',#1262,#136);
#67=LINE('',#1265,#137);
#68=LINE('',#1267,#138);
#69=LINE('',#1269,#139);
#70=LINE('',#1271,#140);
#71=LINE('',#1273,#141);
#72=LINE('',#1327,#142);
#73=LINE('',#1328,#143);
#74=LINE('',#1330,#144);
#75=LINE('',#1332,#145);
#76=LINE('',#1334,#146);
#77=LINE('',#1336,#147);
#78=LINE('',#1338,#148);
#79=LINE('',#1340,#149);
#80=LINE('',#1343,#150);
#81=LINE('',#1344,#151);
#82=LINE('',#1346,#152);
#83=LINE('',#1348,#153);
#84=LINE('',#1350,#154);
#85=LINE('',#1352,#155);
#86=LINE('',#1355,#156);
#87=LINE('',#1356,#157);
#88=LINE('',#1358,#158);
#89=LINE('',#1360,#159);
#90=LINE('',#1362,#160);
#91=LINE('',#1364,#161);
#92=LINE('',#1367,#162);
#93=LINE('',#1368,#163);
#94=LINE('',#1370,#164);
#95=LINE('',#1372,#165);
#96=LINE('',#1374,#166);
#97=LINE('',#1376,#167);
#98=VECTOR('',#931,1.);
#99=VECTOR('',#934,1.);
#100=VECTOR('',#937,1.);
#101=VECTOR('',#940,1.);
#102=VECTOR('',#943,1.);
#103=VECTOR('',#944,1.);
#104=VECTOR('',#945,1.);
#105=VECTOR('',#946,1.);
#106=VECTOR('',#947,1.);
#107=VECTOR('',#948,1.);
#108=VECTOR('',#949,1.);
#109=VECTOR('',#950,1.);
#110=VECTOR('',#951,1.);
#111=VECTOR('',#952,1.);
#112=VECTOR('',#953,1.);
#113=VECTOR('',#954,1.);
#114=VECTOR('',#955,1.);
#115=VECTOR('',#956,1.);
#116=VECTOR('',#957,1.);
#117=VECTOR('',#958,1.);
#118=VECTOR('',#959,1.);
#119=VECTOR('',#960,1.);
#120=VECTOR('',#963,1.);
#121=VECTOR('',#964,1.);
#122=VECTOR('',#965,1.);
#123=VECTOR('',#966,1.);
#124=VECTOR('',#967,1.);
#125=VECTOR('',#968,1.);
#126=VECTOR('',#971,1.);
#127=VECTOR('',#974,1.);
#128=VECTOR('',#977,1.);
#129=VECTOR('',#980,1.);
#130=VECTOR('',#989,1.);
#131=VECTOR('',#990,1.);
#132=VECTOR('',#991,1.);
#133=VECTOR('',#992,1.);
#134=VECTOR('',#993,1.);
#135=VECTOR('',#994,1.);
#136=VECTOR('',#995,1.);
#137=VECTOR('',#996,1.);
#138=VECTOR('',#997,1.);
#139=VECTOR('',#998,1.);
#140=VECTOR('',#999,1.);
#141=VECTOR('',#1000,1.);
#142=VECTOR('',#1075,1.);
#143=VECTOR('',#1076,1.);
#144=VECTOR('',#1079,1.);
#145=VECTOR('',#1082,1.);
#146=VECTOR('',#1085,1.);
#147=VECTOR('',#1088,1.);
#148=VECTOR('',#1091,1.);
#149=VECTOR('',#1094,1.);
#150=VECTOR('',#1099,1.);
#151=VECTOR('',#1100,1.);
#152=VECTOR('',#1103,1.);
#153=VECTOR('',#1106,1.);
#154=VECTOR('',#1109,1.);
#155=VECTOR('',#1112,1.);
#156=VECTOR('',#1117,1.);
#157=VECTOR('',#1118,1.);
#158=VECTOR('',#1121,1.);
#159=VECTOR('',#1124,1.);
#160=VECTOR('',#1127,1.);
#161=VECTOR('',#1130,1.);
#162=VECTOR('',#1135,1.);
#163=VECTOR('',#1136,1.);
#164=VECTOR('',#1139,1.);
#165=VECTOR('',#1142,1.);
#166=VECTOR('',#1145,1.);
#167=VECTOR('',#1148,1.);
#168=ORIENTED_EDGE('',*,*,#372,.F.);
#169=ORIENTED_EDGE('',*,*,#373,.F.);
#170=ORIENTED_EDGE('',*,*,#374,.F.);
#171=ORIENTED_EDGE('',*,*,#375,.T.);
#172=ORIENTED_EDGE('',*,*,#376,.T.);
#173=ORIENTED_EDGE('',*,*,#377,.T.);
#174=ORIENTED_EDGE('',*,*,#378,.T.);
#175=ORIENTED_EDGE('',*,*,#379,.T.);
#176=ORIENTED_EDGE('',*,*,#380,.T.);
#177=ORIENTED_EDGE('',*,*,#381,.T.);
#178=ORIENTED_EDGE('',*,*,#382,.T.);
#179=ORIENTED_EDGE('',*,*,#383,.F.);
#180=ORIENTED_EDGE('',*,*,#384,.T.);
#181=ORIENTED_EDGE('',*,*,#385,.T.);
#182=ORIENTED_EDGE('',*,*,#386,.F.);
#183=ORIENTED_EDGE('',*,*,#387,.T.);
#184=ORIENTED_EDGE('',*,*,#388,.T.);
#185=ORIENTED_EDGE('',*,*,#389,.T.);
#186=ORIENTED_EDGE('',*,*,#390,.T.);
#187=ORIENTED_EDGE('',*,*,#391,.T.);
#188=ORIENTED_EDGE('',*,*,#392,.T.);
#189=ORIENTED_EDGE('',*,*,#393,.T.);
#190=ORIENTED_EDGE('',*,*,#394,.T.);
#191=ORIENTED_EDGE('',*,*,#395,.T.);
#192=ORIENTED_EDGE('',*,*,#396,.T.);
#193=ORIENTED_EDGE('',*,*,#397,.T.);
#194=ORIENTED_EDGE('',*,*,#398,.T.);
#195=ORIENTED_EDGE('',*,*,#399,.T.);
#196=ORIENTED_EDGE('',*,*,#400,.T.);
#197=ORIENTED_EDGE('',*,*,#401,.T.);
#198=ORIENTED_EDGE('',*,*,#402,.F.);
#199=ORIENTED_EDGE('',*,*,#403,.F.);
#200=ORIENTED_EDGE('',*,*,#404,.F.);
#201=ORIENTED_EDGE('',*,*,#405,.F.);
#202=ORIENTED_EDGE('',*,*,#406,.F.);
#203=ORIENTED_EDGE('',*,*,#407,.F.);
#204=ORIENTED_EDGE('',*,*,#408,.F.);
#205=ORIENTED_EDGE('',*,*,#409,.F.);
#206=ORIENTED_EDGE('',*,*,#410,.F.);
#207=ORIENTED_EDGE('',*,*,#411,.F.);
#208=ORIENTED_EDGE('',*,*,#412,.F.);
#209=ORIENTED_EDGE('',*,*,#413,.F.);
#210=ORIENTED_EDGE('',*,*,#414,.F.);
#211=ORIENTED_EDGE('',*,*,#415,.F.);
#212=ORIENTED_EDGE('',*,*,#416,.T.);
#213=ORIENTED_EDGE('',*,*,#417,.T.);
#214=ORIENTED_EDGE('',*,*,#418,.T.);
#215=ORIENTED_EDGE('',*,*,#419,.T.);
#216=ORIENTED_EDGE('',*,*,#420,.F.);
#217=ORIENTED_EDGE('',*,*,#421,.F.);
#218=ORIENTED_EDGE('',*,*,#422,.F.);
#219=ORIENTED_EDGE('',*,*,#423,.F.);
#220=ORIENTED_EDGE('',*,*,#424,.F.);
#221=ORIENTED_EDGE('',*,*,#425,.T.);
#222=ORIENTED_EDGE('',*,*,#426,.F.);
#223=ORIENTED_EDGE('',*,*,#427,.F.);
#224=ORIENTED_EDGE('',*,*,#428,.F.);
#225=ORIENTED_EDGE('',*,*,#429,.F.);
#226=ORIENTED_EDGE('',*,*,#430,.F.);
#227=ORIENTED_EDGE('',*,*,#431,.F.);
#228=ORIENTED_EDGE('',*,*,#432,.F.);
#229=ORIENTED_EDGE('',*,*,#433,.T.);
#230=ORIENTED_EDGE('',*,*,#432,.T.);
#231=ORIENTED_EDGE('',*,*,#434,.F.);
#232=ORIENTED_EDGE('',*,*,#433,.F.);
#233=ORIENTED_EDGE('',*,*,#435,.F.);
#234=ORIENTED_EDGE('',*,*,#436,.F.);
#235=ORIENTED_EDGE('',*,*,#437,.T.);
#236=ORIENTED_EDGE('',*,*,#436,.T.);
#237=ORIENTED_EDGE('',*,*,#438,.F.);
#238=ORIENTED_EDGE('',*,*,#437,.F.);
#239=ORIENTED_EDGE('',*,*,#439,.F.);
#240=ORIENTED_EDGE('',*,*,#440,.F.);
#241=ORIENTED_EDGE('',*,*,#441,.T.);
#242=ORIENTED_EDGE('',*,*,#440,.T.);
#243=ORIENTED_EDGE('',*,*,#442,.F.);
#244=ORIENTED_EDGE('',*,*,#441,.F.);
#245=ORIENTED_EDGE('',*,*,#443,.F.);
#246=ORIENTED_EDGE('',*,*,#444,.F.);
#247=ORIENTED_EDGE('',*,*,#445,.T.);
#248=ORIENTED_EDGE('',*,*,#444,.T.);
#249=ORIENTED_EDGE('',*,*,#446,.F.);
#250=ORIENTED_EDGE('',*,*,#445,.F.);
#251=ORIENTED_EDGE('',*,*,#447,.F.);
#252=ORIENTED_EDGE('',*,*,#446,.T.);
#253=ORIENTED_EDGE('',*,*,#383,.T.);
#254=ORIENTED_EDGE('',*,*,#419,.F.);
#255=ORIENTED_EDGE('',*,*,#447,.T.);
#256=ORIENTED_EDGE('',*,*,#442,.T.);
#257=ORIENTED_EDGE('',*,*,#374,.T.);
#258=ORIENTED_EDGE('',*,*,#418,.F.);
#259=ORIENTED_EDGE('',*,*,#443,.T.);
#260=ORIENTED_EDGE('',*,*,#438,.T.);
#261=ORIENTED_EDGE('',*,*,#373,.T.);
#262=ORIENTED_EDGE('',*,*,#417,.F.);
#263=ORIENTED_EDGE('',*,*,#439,.T.);
#264=ORIENTED_EDGE('',*,*,#434,.T.);
#265=ORIENTED_EDGE('',*,*,#372,.T.);
#266=ORIENTED_EDGE('',*,*,#416,.F.);
#267=ORIENTED_EDGE('',*,*,#435,.T.);
#268=ORIENTED_EDGE('',*,*,#408,.T.);
#269=ORIENTED_EDGE('',*,*,#448,.F.);
#270=ORIENTED_EDGE('',*,*,#375,.F.);
#271=ORIENTED_EDGE('',*,*,#449,.T.);
#272=ORIENTED_EDGE('',*,*,#415,.T.);
#273=ORIENTED_EDGE('',*,*,#450,.F.);
#274=ORIENTED_EDGE('',*,*,#376,.F.);
#275=ORIENTED_EDGE('',*,*,#448,.T.);
#276=ORIENTED_EDGE('',*,*,#414,.T.);
#277=ORIENTED_EDGE('',*,*,#451,.F.);
#278=ORIENTED_EDGE('',*,*,#377,.F.);
#279=ORIENTED_EDGE('',*,*,#450,.T.);
#280=ORIENTED_EDGE('',*,*,#413,.T.);
#281=ORIENTED_EDGE('',*,*,#452,.F.);
#282=ORIENTED_EDGE('',*,*,#378,.F.);
#283=ORIENTED_EDGE('',*,*,#451,.T.);
#284=ORIENTED_EDGE('',*,*,#412,.T.);
#285=ORIENTED_EDGE('',*,*,#453,.F.);
#286=ORIENTED_EDGE('',*,*,#379,.F.);
#287=ORIENTED_EDGE('',*,*,#452,.T.);
#288=ORIENTED_EDGE('',*,*,#411,.T.);
#289=ORIENTED_EDGE('',*,*,#454,.F.);
#290=ORIENTED_EDGE('',*,*,#380,.F.);
#291=ORIENTED_EDGE('',*,*,#453,.T.);
#292=ORIENTED_EDGE('',*,*,#410,.T.);
#293=ORIENTED_EDGE('',*,*,#455,.F.);
#294=ORIENTED_EDGE('',*,*,#381,.F.);
#295=ORIENTED_EDGE('',*,*,#454,.T.);
#296=ORIENTED_EDGE('',*,*,#409,.T.);
#297=ORIENTED_EDGE('',*,*,#449,.F.);
#298=ORIENTED_EDGE('',*,*,#382,.F.);
#299=ORIENTED_EDGE('',*,*,#455,.T.);
#300=ORIENTED_EDGE('',*,*,#385,.F.);
#301=ORIENTED_EDGE('',*,*,#456,.F.);
#302=ORIENTED_EDGE('',*,*,#420,.T.);
#303=ORIENTED_EDGE('',*,*,#457,.T.);
#304=ORIENTED_EDGE('',*,*,#384,.F.);
#305=ORIENTED_EDGE('',*,*,#458,.F.);
#306=ORIENTED_EDGE('',*,*,#421,.T.);
#307=ORIENTED_EDGE('',*,*,#456,.T.);
#308=ORIENTED_EDGE('',*,*,#389,.F.);
#309=ORIENTED_EDGE('',*,*,#459,.F.);
#310=ORIENTED_EDGE('',*,*,#422,.T.);
#311=ORIENTED_EDGE('',*,*,#458,.T.);
#312=ORIENTED_EDGE('',*,*,#388,.F.);
#313=ORIENTED_EDGE('',*,*,#460,.F.);
#314=ORIENTED_EDGE('',*,*,#423,.T.);
#315=ORIENTED_EDGE('',*,*,#459,.T.);
#316=ORIENTED_EDGE('',*,*,#387,.F.);
#317=ORIENTED_EDGE('',*,*,#461,.F.);
#318=ORIENTED_EDGE('',*,*,#424,.T.);
#319=ORIENTED_EDGE('',*,*,#460,.T.);
#320=ORIENTED_EDGE('',*,*,#386,.T.);
#321=ORIENTED_EDGE('',*,*,#457,.F.);
#322=ORIENTED_EDGE('',*,*,#425,.F.);
#323=ORIENTED_EDGE('',*,*,#461,.T.);
#324=ORIENTED_EDGE('',*,*,#391,.F.);
#325=ORIENTED_EDGE('',*,*,#462,.F.);
#326=ORIENTED_EDGE('',*,*,#402,.T.);
#327=ORIENTED_EDGE('',*,*,#463,.T.);
#328=ORIENTED_EDGE('',*,*,#390,.F.);
#329=ORIENTED_EDGE('',*,*,#464,.F.);
#330=ORIENTED_EDGE('',*,*,#403,.T.);
#331=ORIENTED_EDGE('',*,*,#462,.T.);
#332=ORIENTED_EDGE('',*,*,#395,.F.);
#333=ORIENTED_EDGE('',*,*,#465,.F.);
#334=ORIENTED_EDGE('',*,*,#404,.T.);
#335=ORIENTED_EDGE('',*,*,#464,.T.);
#336=ORIENTED_EDGE('',*,*,#394,.F.);
#337=ORIENTED_EDGE('',*,*,#466,.F.);
#338=ORIENTED_EDGE('',*,*,#405,.T.);
#339=ORIENTED_EDGE('',*,*,#465,.T.);
#340=ORIENTED_EDGE('',*,*,#393,.F.);
#341=ORIENTED_EDGE('',*,*,#467,.F.);
#342=ORIENTED_EDGE('',*,*,#406,.T.);
#343=ORIENTED_EDGE('',*,*,#466,.T.);
#344=ORIENTED_EDGE('',*,*,#392,.F.);
#345=ORIENTED_EDGE('',*,*,#463,.F.);
#346=ORIENTED_EDGE('',*,*,#407,.T.);
#347=ORIENTED_EDGE('',*,*,#467,.T.);
#348=ORIENTED_EDGE('',*,*,#397,.F.);
#349=ORIENTED_EDGE('',*,*,#468,.F.);
#350=ORIENTED_EDGE('',*,*,#426,.T.);
#351=ORIENTED_EDGE('',*,*,#469,.T.);
#352=ORIENTED_EDGE('',*,*,#396,.F.);
#353=ORIENTED_EDGE('',*,*,#470,.F.);
#354=ORIENTED_EDGE('',*,*,#427,.T.);
#355=ORIENTED_EDGE('',*,*,#468,.T.);
#356=ORIENTED_EDGE('',*,*,#401,.F.);
#357=ORIENTED_EDGE('',*,*,#471,.F.);
#358=ORIENTED_EDGE('',*,*,#428,.T.);
#359=ORIENTED_EDGE('',*,*,#470,.T.);
#360=ORIENTED_EDGE('',*,*,#400,.F.);
#361=ORIENTED_EDGE('',*,*,#472,.F.);
#362=ORIENTED_EDGE('',*,*,#429,.T.);
#363=ORIENTED_EDGE('',*,*,#471,.T.);
#364=ORIENTED_EDGE('',*,*,#399,.F.);
#365=ORIENTED_EDGE('',*,*,#473,.F.);
#366=ORIENTED_EDGE('',*,*,#430,.T.);
#367=ORIENTED_EDGE('',*,*,#472,.T.);
#368=ORIENTED_EDGE('',*,*,#398,.F.);
#369=ORIENTED_EDGE('',*,*,#469,.F.);
#370=ORIENTED_EDGE('',*,*,#431,.T.);
#371=ORIENTED_EDGE('',*,*,#473,.T.);
#372=EDGE_CURVE('',#474,#474,#550,.T.);
#373=EDGE_CURVE('',#475,#475,#551,.T.);
#374=EDGE_CURVE('',#476,#476,#552,.T.);
#375=EDGE_CURVE('',#477,#478,#553,.T.);
#376=EDGE_CURVE('',#478,#479,#28,.T.);
#377=EDGE_CURVE('',#479,#480,#554,.T.);
#378=EDGE_CURVE('',#480,#481,#29,.T.);
#379=EDGE_CURVE('',#481,#482,#555,.T.);
#380=EDGE_CURVE('',#482,#483,#30,.T.);
#381=EDGE_CURVE('',#483,#484,#556,.T.);
#382=EDGE_CURVE('',#484,#477,#31,.T.);
#383=EDGE_CURVE('',#485,#485,#557,.T.);
#384=EDGE_CURVE('',#486,#487,#32,.T.);
#385=EDGE_CURVE('',#487,#488,#33,.T.);
#386=EDGE_CURVE('',#489,#488,#34,.T.);
#387=EDGE_CURVE('',#489,#490,#35,.T.);
#388=EDGE_CURVE('',#490,#491,#36,.T.);
#389=EDGE_CURVE('',#491,#486,#37,.T.);
#390=EDGE_CURVE('',#492,#493,#38,.T.);
#391=EDGE_CURVE('',#493,#494,#39,.T.);
#392=EDGE_CURVE('',#494,#495,#40,.T.);
#393=EDGE_CURVE('',#495,#496,#41,.T.);
#394=EDGE_CURVE('',#496,#497,#42,.T.);
#395=EDGE_CURVE('',#497,#492,#43,.T.);
#396=EDGE_CURVE('',#498,#499,#44,.T.);
#397=EDGE_CURVE('',#499,#500,#45,.T.);
#398=EDGE_CURVE('',#500,#501,#46,.T.);
#399=EDGE_CURVE('',#501,#502,#47,.T.);
#400=EDGE_CURVE('',#502,#503,#48,.T.);
#401=EDGE_CURVE('',#503,#498,#49,.T.);
#402=EDGE_CURVE('',#504,#505,#50,.T.);
#403=EDGE_CURVE('',#506,#504,#51,.T.);
#404=EDGE_CURVE('',#507,#506,#52,.T.);
#405=EDGE_CURVE('',#508,#507,#53,.T.);
#406=EDGE_CURVE('',#509,#508,#54,.T.);
#407=EDGE_CURVE('',#505,#509,#55,.T.);
#408=EDGE_CURVE('',#510,#511,#558,.T.);
#409=EDGE_CURVE('',#512,#510,#56,.T.);
#410=EDGE_CURVE('',#513,#512,#559,.T.);
#411=EDGE_CURVE('',#514,#513,#57,.T.);
#412=EDGE_CURVE('',#515,#514,#560,.T.);
#413=EDGE_CURVE('',#516,#515,#58,.T.);
#414=EDGE_CURVE('',#517,#516,#561,.T.);
#415=EDGE_CURVE('',#511,#517,#59,.T.);
#416=EDGE_CURVE('',#518,#518,#562,.T.);
#417=EDGE_CURVE('',#519,#519,#563,.T.);
#418=EDGE_CURVE('',#520,#520,#564,.T.);
#419=EDGE_CURVE('',#521,#521,#565,.T.);
#420=EDGE_CURVE('',#522,#523,#60,.T.);
#421=EDGE_CURVE('',#524,#522,#61,.T.);
#422=EDGE_CURVE('',#525,#524,#62,.T.);
#423=EDGE_CURVE('',#526,#525,#63,.T.);
#424=EDGE_CURVE('',#527,#526,#64,.T.);
#425=EDGE_CURVE('',#527,#523,#65,.T.);
#426=EDGE_CURVE('',#528,#529,#66,.T.);
#427=EDGE_CURVE('',#530,#528,#67,.T.);
#428=EDGE_CURVE('',#531,#530,#68,.T.);
#429=EDGE_CURVE('',#532,#531,#69,.T.);
#430=EDGE_CURVE('',#533,#532,#70,.T.);
#431=EDGE_CURVE('',#529,#533,#71,.T.);
#432=EDGE_CURVE('',#534,#534,#566,.T.);
#433=EDGE_CURVE('',#535,#535,#567,.T.);
#434=EDGE_CURVE('',#536,#536,#568,.F.);
#435=EDGE_CURVE('',#537,#537,#569,.T.);
#436=EDGE_CURVE('',#538,#538,#570,.T.);
#437=EDGE_CURVE('',#539,#539,#571,.T.);
#438=EDGE_CURVE('',#540,#540,#572,.F.);
#439=EDGE_CURVE('',#541,#541,#573,.T.);
#440=EDGE_CURVE('',#542,#542,#574,.T.);
#441=EDGE_CURVE('',#543,#543,#575,.T.);
#442=EDGE_CURVE('',#544,#544,#576,.F.);
#443=EDGE_CURVE('',#545,#545,#577,.T.);
#444=EDGE_CURVE('',#546,#546,#578,.T.);
#445=EDGE_CURVE('',#547,#547,#579,.T.);
#446=EDGE_CURVE('',#548,#548,#580,.F.);
#447=EDGE_CURVE('',#549,#549,#581,.T.);
#448=EDGE_CURVE('',#478,#511,#72,.T.);
#449=EDGE_CURVE('',#477,#510,#73,.T.);
#450=EDGE_CURVE('',#479,#517,#74,.T.);
#451=EDGE_CURVE('',#480,#516,#75,.T.);
#452=EDGE_CURVE('',#481,#515,#76,.T.);
#453=EDGE_CURVE('',#482,#514,#77,.T.);
#454=EDGE_CURVE('',#483,#513,#78,.T.);
#455=EDGE_CURVE('',#484,#512,#79,.T.);
#456=EDGE_CURVE('',#522,#487,#80,.T.);
#457=EDGE_CURVE('',#523,#488,#81,.T.);
#458=EDGE_CURVE('',#524,#486,#82,.T.);
#459=EDGE_CURVE('',#525,#491,#83,.T.);
#460=EDGE_CURVE('',#526,#490,#84,.T.);
#461=EDGE_CURVE('',#527,#489,#85,.T.);
#462=EDGE_CURVE('',#504,#493,#86,.T.);
#463=EDGE_CURVE('',#505,#494,#87,.T.);
#464=EDGE_CURVE('',#506,#492,#88,.T.);
#465=EDGE_CURVE('',#507,#497,#89,.T.);
#466=EDGE_CURVE('',#508,#496,#90,.T.);
#467=EDGE_CURVE('',#509,#495,#91,.T.);
#468=EDGE_CURVE('',#528,#499,#92,.T.);
#469=EDGE_CURVE('',#529,#500,#93,.T.);
#470=EDGE_CURVE('',#530,#498,#94,.T.);
#471=EDGE_CURVE('',#531,#503,#95,.T.);
#472=EDGE_CURVE('',#532,#502,#96,.T.);
#473=EDGE_CURVE('',#533,#501,#97,.T.);
#474=VERTEX_POINT('',#1154);
#475=VERTEX_POINT('',#1156);
#476=VERTEX_POINT('',#1158);
#477=VERTEX_POINT('',#1160);
#478=VERTEX_POINT('',#1161);
#479=VERTEX_POINT('',#1163);
#480=VERTEX_POINT('',#1165);
#481=VERTEX_POINT('',#1167);
#482=VERTEX_POINT('',#1169);
#483=VERTEX_POINT('',#1171);
#484=VERTEX_POINT('',#1173);
#485=VERTEX_POINT('',#1176);
#486=VERTEX_POINT('',#1178);
#487=VERTEX_POINT('',#1179);
#488=VERTEX_POINT('',#1181);
#489=VERTEX_POINT('',#1183);
#490=VERTEX_POINT('',#1185);
#491=VERTEX_POINT('',#1187);
#492=VERTEX_POINT('',#1190);
#493=VERTEX_POINT('',#1191);
#494=VERTEX_POINT('',#1193);
#495=VERTEX_POINT('',#1195);
#496=VERTEX_POINT('',#1197);
#497=VERTEX_POINT('',#1199);
#498=VERTEX_POINT('',#1202);
#499=VERTEX_POINT('',#1203);
#500=VERTEX_POINT('',#1205);
#501=VERTEX_POINT('',#1207);
#502=VERTEX_POINT('',#1209);
#503=VERTEX_POINT('',#1211);
#504=VERTEX_POINT('',#1215);
#505=VERTEX_POINT('',#1216);
#506=VERTEX_POINT('',#1218);
#507=VERTEX_POINT('',#1220);
#508=VERTEX_POINT('',#1222);
#509=VERTEX_POINT('',#1224);
#510=VERTEX_POINT('',#1227);
#511=VERTEX_POINT('',#1228);
#512=VERTEX_POINT('',#1230);
#513=VERTEX_POINT('',#1232);
#514=VERTEX_POINT('',#1234);
#515=VERTEX_POINT('',#1236);
#516=VERTEX_POINT('',#1238);
#517=VERTEX_POINT('',#1240);
#518=VERTEX_POINT('',#1243);
#519=VERTEX_POINT('',#1245);
#520=VERTEX_POINT('',#1247);
#521=VERTEX_POINT('',#1249);
#522=VERTEX_POINT('',#1251);
#523=VERTEX_POINT('',#1252);
#524=VERTEX_POINT('',#1254);
#525=VERTEX_POINT('',#1256);
#526=VERTEX_POINT('',#1258);
#527=VERTEX_POINT('',#1260);
#528=VERTEX_POINT('',#1263);
#529=VERTEX_POINT('',#1264);
#530=VERTEX_POINT('',#1266);
#531=VERTEX_POINT('',#1268);
#532=VERTEX_POINT('',#1270);
#533=VERTEX_POINT('',#1272);
#534=VERTEX_POINT('',#1276);
#535=VERTEX_POINT('',#1278);
#536=VERTEX_POINT('',#1281);
#537=VERTEX_POINT('',#1284);
#538=VERTEX_POINT('',#1287);
#539=VERTEX_POINT('',#1289);
#540=VERTEX_POINT('',#1292);
#541=VERTEX_POINT('',#1295);
#542=VERTEX_POINT('',#1298);
#543=VERTEX_POINT('',#1300);
#544=VERTEX_POINT('',#1303);
#545=VERTEX_POINT('',#1306);
#546=VERTEX_POINT('',#1309);
#547=VERTEX_POINT('',#1311);
#548=VERTEX_POINT('',#1314);
#549=VERTEX_POINT('',#1317);
#550=CIRCLE('',#840,0.0016);
#551=CIRCLE('',#841,0.0016);
#552=CIRCLE('',#842,0.0016);
#553=CIRCLE('',#843,0.004499999252925);
#554=CIRCLE('',#844,0.004499999252925);
#555=CIRCLE('',#845,0.004499999252925);
#556=CIRCLE('',#846,0.004499999252925);
#557=CIRCLE('',#847,0.0016);
#558=CIRCLE('',#849,0.004499999252925);
#559=CIRCLE('',#850,0.004499999252925);
#560=CIRCLE('',#851,0.004499999252925);
#561=CIRCLE('',#852,0.004499999252925);
#562=CIRCLE('',#853,0.0021);
#563=CIRCLE('',#854,0.0021);
#564=CIRCLE('',#855,0.0021);
#565=CIRCLE('',#856,0.0021);
#566=CIRCLE('',#858,0.0011);
#567=CIRCLE('',#859,0.0011);
#568=CIRCLE('',#861,0.0016);
#569=CIRCLE('',#863,0.0021);
#570=CIRCLE('',#865,0.0011);
#571=CIRCLE('',#866,0.0011);
#572=CIRCLE('',#868,0.0016);
#573=CIRCLE('',#870,0.0021);
#574=CIRCLE('',#872,0.0011);
#575=CIRCLE('',#873,0.0011);
#576=CIRCLE('',#875,0.0016);
#577=CIRCLE('',#877,0.0021);
#578=CIRCLE('',#879,0.0011);
#579=CIRCLE('',#880,0.0011);
#580=CIRCLE('',#882,0.0016);
#581=CIRCLE('',#884,0.0021);
#582=EDGE_LOOP('',(#168));
#583=EDGE_LOOP('',(#169));
#584=EDGE_LOOP('',(#170));
#585=EDGE_LOOP('',(#171,#172,#173,#174,#175,#176,#177,#178));
#586=EDGE_LOOP('',(#179));
#587=EDGE_LOOP('',(#180,#181,#182,#183,#184,#185));
#588=EDGE_LOOP('',(#186,#187,#188,#189,#190,#191));
#589=EDGE_LOOP('',(#192,#193,#194,#195,#196,#197));
#590=EDGE_LOOP('',(#198,#199,#200,#201,#202,#203));
#591=EDGE_LOOP('',(#204,#205,#206,#207,#208,#209,#210,#211));
#592=EDGE_LOOP('',(#212));
#593=EDGE_LOOP('',(#213));
#594=EDGE_LOOP('',(#214));
#595=EDGE_LOOP('',(#215));
#596=EDGE_LOOP('',(#216,#217,#218,#219,#220,#221));
#597=EDGE_LOOP('',(#222,#223,#224,#225,#226,#227));
#598=EDGE_LOOP('',(#228));
#599=EDGE_LOOP('',(#229));
#600=EDGE_LOOP('',(#230));
#601=EDGE_LOOP('',(#231));
#602=EDGE_LOOP('',(#232));
#603=EDGE_LOOP('',(#233));
#604=EDGE_LOOP('',(#234));
#605=EDGE_LOOP('',(#235));
#606=EDGE_LOOP('',(#236));
#607=EDGE_LOOP('',(#237));
#608=EDGE_LOOP('',(#238));
#609=EDGE_LOOP('',(#239));
#610=EDGE_LOOP('',(#240));
#611=EDGE_LOOP('',(#241));
#612=EDGE_LOOP('',(#242));
#613=EDGE_LOOP('',(#243));
#614=EDGE_LOOP('',(#244));
#615=EDGE_LOOP('',(#245));
#616=EDGE_LOOP('',(#246));
#617=EDGE_LOOP('',(#247));
#618=EDGE_LOOP('',(#248));
#619=EDGE_LOOP('',(#249));
#620=EDGE_LOOP('',(#250));
#621=EDGE_LOOP('',(#251));
#622=EDGE_LOOP('',(#252));
#623=EDGE_LOOP('',(#253));
#624=EDGE_LOOP('',(#254));
#625=EDGE_LOOP('',(#255));
#626=EDGE_LOOP('',(#256));
#627=EDGE_LOOP('',(#257));
#628=EDGE_LOOP('',(#258));
#629=EDGE_LOOP('',(#259));
#630=EDGE_LOOP('',(#260));
#631=EDGE_LOOP('',(#261));
#632=EDGE_LOOP('',(#262));
#633=EDGE_LOOP('',(#263));
#634=EDGE_LOOP('',(#264));
#635=EDGE_LOOP('',(#265));
#636=EDGE_LOOP('',(#266));
#637=EDGE_LOOP('',(#267));
#638=EDGE_LOOP('',(#268,#269,#270,#271));
#639=EDGE_LOOP('',(#272,#273,#274,#275));
#640=EDGE_LOOP('',(#276,#277,#278,#279));
#641=EDGE_LOOP('',(#280,#281,#282,#283));
#642=EDGE_LOOP('',(#284,#285,#286,#287));
#643=EDGE_LOOP('',(#288,#289,#290,#291));
#644=EDGE_LOOP('',(#292,#293,#294,#295));
#645=EDGE_LOOP('',(#296,#297,#298,#299));
#646=EDGE_LOOP('',(#300,#301,#302,#303));
#647=EDGE_LOOP('',(#304,#305,#306,#307));
#648=EDGE_LOOP('',(#308,#309,#310,#311));
#649=EDGE_LOOP('',(#312,#313,#314,#315));
#650=EDGE_LOOP('',(#316,#317,#318,#319));
#651=EDGE_LOOP('',(#320,#321,#322,#323));
#652=EDGE_LOOP('',(#324,#325,#326,#327));
#653=EDGE_LOOP('',(#328,#329,#330,#331));
#654=EDGE_LOOP('',(#332,#333,#334,#335));
#655=EDGE_LOOP('',(#336,#337,#338,#339));
#656=EDGE_LOOP('',(#340,#341,#342,#343));
#657=EDGE_LOOP('',(#344,#345,#346,#347));
#658=EDGE_LOOP('',(#348,#349,#350,#351));
#659=EDGE_LOOP('',(#352,#353,#354,#355));
#660=EDGE_LOOP('',(#356,#357,#358,#359));
#661=EDGE_LOOP('',(#360,#361,#362,#363));
#662=EDGE_LOOP('',(#364,#365,#366,#367));
#663=EDGE_LOOP('',(#368,#369,#370,#371));
#664=FACE_BOUND('',#582,.T.);
#665=FACE_BOUND('',#583,.T.);
#666=FACE_BOUND('',#584,.T.);
#667=FACE_BOUND('',#585,.T.);
#668=FACE_BOUND('',#586,.T.);
#669=FACE_BOUND('',#587,.T.);
#670=FACE_BOUND('',#588,.T.);
#671=FACE_BOUND('',#589,.T.);
#672=FACE_BOUND('',#590,.T.);
#673=FACE_BOUND('',#591,.T.);
#674=FACE_BOUND('',#592,.T.);
#675=FACE_BOUND('',#593,.T.);
#676=FACE_BOUND('',#594,.T.);
#677=FACE_BOUND('',#595,.T.);
#678=FACE_BOUND('',#596,.T.);
#679=FACE_BOUND('',#597,.T.);
#680=FACE_BOUND('',#598,.T.);
#681=FACE_BOUND('',#599,.T.);
#682=FACE_BOUND('',#600,.T.);
#683=FACE_BOUND('',#601,.T.);
#684=FACE_BOUND('',#602,.T.);
#685=FACE_BOUND('',#603,.T.);
#686=FACE_BOUND('',#604,.T.);
#687=FACE_BOUND('',#605,.T.);
#688=FACE_BOUND('',#606,.T.);
#689=FACE_BOUND('',#607,.T.);
#690=FACE_BOUND('',#608,.T.);
#691=FACE_BOUND('',#609,.T.);
#692=FACE_BOUND('',#610,.T.);
#693=FACE_BOUND('',#611,.T.);
#694=FACE_BOUND('',#612,.T.);
#695=FACE_BOUND('',#613,.T.);
#696=FACE_BOUND('',#614,.T.);
#697=FACE_BOUND('',#615,.T.);
#698=FACE_BOUND('',#616,.T.);
#699=FACE_BOUND('',#617,.T.);
#700=FACE_BOUND('',#618,.T.);
#701=FACE_BOUND('',#619,.T.);
#702=FACE_BOUND('',#620,.T.);
#703=FACE_BOUND('',#621,.T.);
#704=FACE_BOUND('',#622,.T.);
#705=FACE_BOUND('',#623,.T.);
#706=FACE_BOUND('',#624,.T.);
#707=FACE_BOUND('',#625,.T.);
#708=FACE_BOUND('',#626,.T.);
#709=FACE_BOUND('',#627,.T.);
#710=FACE_BOUND('',#628,.T.);
#711=FACE_BOUND('',#629,.T.);
#712=FACE_BOUND('',#630,.T.);
#713=FACE_BOUND('',#631,.T.);
#714=FACE_BOUND('',#632,.T.);
#715=FACE_BOUND('',#633,.T.);
#716=FACE_BOUND('',#634,.T.);
#717=FACE_BOUND('',#635,.T.);
#718=FACE_BOUND('',#636,.T.);
#719=FACE_BOUND('',#637,.T.);
#720=FACE_BOUND('',#638,.T.);
#721=FACE_BOUND('',#639,.T.);
#722=FACE_BOUND('',#640,.T.);
#723=FACE_BOUND('',#641,.T.);
#724=FACE_BOUND('',#642,.T.);
#725=FACE_BOUND('',#643,.T.);
#726=FACE_BOUND('',#644,.T.);
#727=FACE_BOUND('',#645,.T.);
#728=FACE_BOUND('',#646,.T.);
#729=FACE_BOUND('',#647,.T.);
#730=FACE_BOUND('',#648,.T.);
#731=FACE_BOUND('',#649,.T.);
#732=FACE_BOUND('',#650,.T.);
#733=FACE_BOUND('',#651,.T.);
#734=FACE_BOUND('',#652,.T.);
#735=FACE_BOUND('',#653,.T.);
#736=FACE_BOUND('',#654,.T.);
#737=FACE_BOUND('',#655,.T.);
#738=FACE_BOUND('',#656,.T.);
#739=FACE_BOUND('',#657,.T.);
#740=FACE_BOUND('',#658,.T.);
#741=FACE_BOUND('',#659,.T.);
#742=FACE_BOUND('',#660,.T.);
#743=FACE_BOUND('',#661,.T.);
#744=FACE_BOUND('',#662,.T.);
#745=FACE_BOUND('',#663,.T.);
#746=PLANE('',#839);
#747=PLANE('',#848);
#748=PLANE('',#860);
#749=PLANE('',#862);
#750=PLANE('',#867);
#751=PLANE('',#869);
#752=PLANE('',#874);
#753=PLANE('',#876);
#754=PLANE('',#881);
#755=PLANE('',#883);
#756=PLANE('',#894);
#757=PLANE('',#896);
#758=PLANE('',#898);
#759=PLANE('',#900);
#760=PLANE('',#901);
#761=PLANE('',#902);
#762=PLANE('',#903);
#763=PLANE('',#904);
#764=PLANE('',#905);
#765=PLANE('',#906);
#766=PLANE('',#907);
#767=PLANE('',#908);
#768=PLANE('',#909);
#769=PLANE('',#910);
#770=PLANE('',#911);
#771=PLANE('',#912);
#772=PLANE('',#913);
#773=PLANE('',#914);
#774=PLANE('',#915);
#775=PLANE('',#916);
#776=PLANE('',#917);
#777=PLANE('',#918);
#778=ADVANCED_FACE('',(#664,#665,#666,#667,#668,#669,#670,#671),#746,.T.);
#779=ADVANCED_FACE('',(#672,#673,#674,#675,#676,#677,#678,#679),#747,.F.);
#780=ADVANCED_FACE('',(#680,#681),#12,.F.);
#781=ADVANCED_FACE('',(#682,#683),#748,.T.);
#782=ADVANCED_FACE('',(#684,#685),#749,.F.);
#783=ADVANCED_FACE('',(#686,#687),#13,.F.);
#784=ADVANCED_FACE('',(#688,#689),#750,.T.);
#785=ADVANCED_FACE('',(#690,#691),#751,.F.);
#786=ADVANCED_FACE('',(#692,#693),#14,.F.);
#787=ADVANCED_FACE('',(#694,#695),#752,.T.);
#788=ADVANCED_FACE('',(#696,#697),#753,.F.);
#789=ADVANCED_FACE('',(#698,#699),#15,.F.);
#790=ADVANCED_FACE('',(#700,#701),#754,.T.);
#791=ADVANCED_FACE('',(#702,#703),#755,.F.);
#792=ADVANCED_FACE('',(#704,#705),#16,.F.);
#793=ADVANCED_FACE('',(#706,#707),#17,.T.);
#794=ADVANCED_FACE('',(#708,#709),#18,.F.);
#795=ADVANCED_FACE('',(#710,#711),#19,.T.);
#796=ADVANCED_FACE('',(#712,#713),#20,.F.);
#797=ADVANCED_FACE('',(#714,#715),#21,.T.);
#798=ADVANCED_FACE('',(#716,#717),#22,.F.);
#799=ADVANCED_FACE('',(#718,#719),#23,.T.);
#800=ADVANCED_FACE('',(#720),#24,.T.);
#801=ADVANCED_FACE('',(#721),#756,.F.);
#802=ADVANCED_FACE('',(#722),#25,.T.);
#803=ADVANCED_FACE('',(#723),#757,.F.);
#804=ADVANCED_FACE('',(#724),#26,.T.);
#805=ADVANCED_FACE('',(#725),#758,.F.);
#806=ADVANCED_FACE('',(#726),#27,.T.);
#807=ADVANCED_FACE('',(#727),#759,.F.);
#808=ADVANCED_FACE('',(#728),#760,.T.);
#809=ADVANCED_FACE('',(#729),#761,.T.);
#810=ADVANCED_FACE('',(#730),#762,.T.);
#811=ADVANCED_FACE('',(#731),#763,.T.);
#812=ADVANCED_FACE('',(#732),#764,.T.);
#813=ADVANCED_FACE('',(#733),#765,.F.);
#814=ADVANCED_FACE('',(#734),#766,.T.);
#815=ADVANCED_FACE('',(#735),#767,.T.);
#816=ADVANCED_FACE('',(#736),#768,.T.);
#817=ADVANCED_FACE('',(#737),#769,.T.);
#818=ADVANCED_FACE('',(#738),#770,.T.);
#819=ADVANCED_FACE('',(#739),#771,.T.);
#820=ADVANCED_FACE('',(#740),#772,.T.);
#821=ADVANCED_FACE('',(#741),#773,.T.);
#822=ADVANCED_FACE('',(#742),#774,.T.);
#823=ADVANCED_FACE('',(#743),#775,.T.);
#824=ADVANCED_FACE('',(#744),#776,.T.);
#825=ADVANCED_FACE('',(#745),#777,.T.);
#826=CLOSED_SHELL('',(#778,#779,#780,#781,#782,#783,#784,#785,#786,#787,
#788,#789,#790,#791,#792,#793,#794,#795,#796,#797,#798,#799,#800,#801,#802,
#803,#804,#805,#806,#807,#808,#809,#810,#811,#812,#813,#814,#815,#816,#817,
#818,#819,#820,#821,#822,#823,#824,#825));
#827=STYLED_ITEM('',(#828),#835);
#828=PRESENTATION_STYLE_ASSIGNMENT((#829));
#829=SURFACE_STYLE_USAGE(.BOTH.,#830);
#830=SURFACE_SIDE_STYLE('',(#831));
#831=SURFACE_STYLE_FILL_AREA(#832);
#832=FILL_AREA_STYLE('',(#833));
#833=FILL_AREA_STYLE_COLOUR('',#834);
#834=COLOUR_RGB('',0.8,0.749019607843137,0.913725490196078);
#835=MANIFOLD_SOLID_BREP('Part 2',#826);
#836=SHAPE_DEFINITION_REPRESENTATION(#1384,#837);
#837=SHAPE_REPRESENTATION('Part 2',(#838),#1379);
#838=AXIS2_PLACEMENT_3D('',#1151,#919,#920);
#839=AXIS2_PLACEMENT_3D('',#1152,#921,#922);
#840=AXIS2_PLACEMENT_3D('',#1153,#923,#924);
#841=AXIS2_PLACEMENT_3D('',#1155,#925,#926);
#842=AXIS2_PLACEMENT_3D('',#1157,#927,#928);
#843=AXIS2_PLACEMENT_3D('',#1159,#929,#930);
#844=AXIS2_PLACEMENT_3D('',#1164,#932,#933);
#845=AXIS2_PLACEMENT_3D('',#1168,#935,#936);
#846=AXIS2_PLACEMENT_3D('',#1172,#938,#939);
#847=AXIS2_PLACEMENT_3D('',#1175,#941,#942);
#848=AXIS2_PLACEMENT_3D('',#1213,#961,#962);
#849=AXIS2_PLACEMENT_3D('',#1226,#969,#970);
#850=AXIS2_PLACEMENT_3D('',#1231,#972,#973);
#851=AXIS2_PLACEMENT_3D('',#1235,#975,#976);
#852=AXIS2_PLACEMENT_3D('',#1239,#978,#979);
#853=AXIS2_PLACEMENT_3D('',#1242,#981,#982);
#854=AXIS2_PLACEMENT_3D('',#1244,#983,#984);
#855=AXIS2_PLACEMENT_3D('',#1246,#985,#986);
#856=AXIS2_PLACEMENT_3D('',#1248,#987,#988);
#857=AXIS2_PLACEMENT_3D('',#1274,#1001,#1002);
#858=AXIS2_PLACEMENT_3D('',#1275,#1003,#1004);
#859=AXIS2_PLACEMENT_3D('',#1277,#1005,#1006);
#860=AXIS2_PLACEMENT_3D('',#1279,#1007,#1008);
#861=AXIS2_PLACEMENT_3D('',#1280,#1009,#1010);
#862=AXIS2_PLACEMENT_3D('',#1282,#1011,#1012);
#863=AXIS2_PLACEMENT_3D('',#1283,#1013,#1014);
#864=AXIS2_PLACEMENT_3D('',#1285,#1015,#1016);
#865=AXIS2_PLACEMENT_3D('',#1286,#1017,#1018);
#866=AXIS2_PLACEMENT_3D('',#1288,#1019,#1020);
#867=AXIS2_PLACEMENT_3D('',#1290,#1021,#1022);
#868=AXIS2_PLACEMENT_3D('',#1291,#1023,#1024);
#869=AXIS2_PLACEMENT_3D('',#1293,#1025,#1026);
#870=AXIS2_PLACEMENT_3D('',#1294,#1027,#1028);
#871=AXIS2_PLACEMENT_3D('',#1296,#1029,#1030);
#872=AXIS2_PLACEMENT_3D('',#1297,#1031,#1032);
#873=AXIS2_PLACEMENT_3D('',#1299,#1033,#1034);
#874=AXIS2_PLACEMENT_3D('',#1301,#1035,#1036);
#875=AXIS2_PLACEMENT_3D('',#1302,#1037,#1038);
#876=AXIS2_PLACEMENT_3D('',#1304,#1039,#1040);
#877=AXIS2_PLACEMENT_3D('',#1305,#1041,#1042);
#878=AXIS2_PLACEMENT_3D('',#1307,#1043,#1044);
#879=AXIS2_PLACEMENT_3D('',#1308,#1045,#1046);
#880=AXIS2_PLACEMENT_3D('',#1310,#1047,#1048);
#881=AXIS2_PLACEMENT_3D('',#1312,#1049,#1050);
#882=AXIS2_PLACEMENT_3D('',#1313,#1051,#1052);
#883=AXIS2_PLACEMENT_3D('',#1315,#1053,#1054);
#884=AXIS2_PLACEMENT_3D('',#1316,#1055,#1056);
#885=AXIS2_PLACEMENT_3D('',#1318,#1057,#1058);
#886=AXIS2_PLACEMENT_3D('',#1319,#1059,#1060);
#887=AXIS2_PLACEMENT_3D('',#1320,#1061,#1062);
#888=AXIS2_PLACEMENT_3D('',#1321,#1063,#1064);
#889=AXIS2_PLACEMENT_3D('',#1322,#1065,#1066);
#890=AXIS2_PLACEMENT_3D('',#1323,#1067,#1068);
#891=AXIS2_PLACEMENT_3D('',#1324,#1069,#1070);
#892=AXIS2_PLACEMENT_3D('',#1325,#1071,#1072);
#893=AXIS2_PLACEMENT_3D('',#1326,#1073,#1074);
#894=AXIS2_PLACEMENT_3D('',#1329,#1077,#1078);
#895=AXIS2_PLACEMENT_3D('',#1331,#1080,#1081);
#896=AXIS2_PLACEMENT_3D('',#1333,#1083,#1084);
#897=AXIS2_PLACEMENT_3D('',#1335,#1086,#1087);
#898=AXIS2_PLACEMENT_3D('',#1337,#1089,#1090);
#899=AXIS2_PLACEMENT_3D('',#1339,#1092,#1093);
#900=AXIS2_PLACEMENT_3D('',#1341,#1095,#1096);
#901=AXIS2_PLACEMENT_3D('',#1342,#1097,#1098);
#902=AXIS2_PLACEMENT_3D('',#1345,#1101,#1102);
#903=AXIS2_PLACEMENT_3D('',#1347,#1104,#1105);
#904=AXIS2_PLACEMENT_3D('',#1349,#1107,#1108);
#905=AXIS2_PLACEMENT_3D('',#1351,#1110,#1111);
#906=AXIS2_PLACEMENT_3D('',#1353,#1113,#1114);
#907=AXIS2_PLACEMENT_3D('',#1354,#1115,#1116);
#908=AXIS2_PLACEMENT_3D('',#1357,#1119,#1120);
#909=AXIS2_PLACEMENT_3D('',#1359,#1122,#1123);
#910=AXIS2_PLACEMENT_3D('',#1361,#1125,#1126);
#911=AXIS2_PLACEMENT_3D('',#1363,#1128,#1129);
#912=AXIS2_PLACEMENT_3D('',#1365,#1131,#1132);
#913=AXIS2_PLACEMENT_3D('',#1366,#1133,#1134);
#914=AXIS2_PLACEMENT_3D('',#1369,#1137,#1138);
#915=AXIS2_PLACEMENT_3D('',#1371,#1140,#1141);
#916=AXIS2_PLACEMENT_3D('',#1373,#1143,#1144);
#917=AXIS2_PLACEMENT_3D('',#1375,#1146,#1147);
#918=AXIS2_PLACEMENT_3D('',#1377,#1149,#1150);
#919=DIRECTION('',(0.,0.,1.));
#920=DIRECTION('',(1.,0.,0.));
#921=DIRECTION('',(-1.22464679914735E-16,1.38387747622317E-29,1.));
#922=DIRECTION('',(-1.,2.26004342996966E-13,-1.22464679914735E-16));
#923=DIRECTION('',(-1.22464679914735E-16,1.38387747622317E-29,1.));
#924=DIRECTION('',(1.,-2.26004342996966E-13,1.22464679914735E-16));
#925=DIRECTION('',(-1.22464679914735E-16,1.38387747622317E-29,1.));
#926=DIRECTION('',(1.,-2.26004342996966E-13,1.22464679914735E-16));
#927=DIRECTION('',(-1.22464679914735E-16,1.38387747622317E-29,1.));
#928=DIRECTION('',(1.,-2.26004342996966E-13,1.22464679914735E-16));
#929=DIRECTION('',(-1.22464679914735E-16,1.38387747622317E-29,1.));
#930=DIRECTION('',(1.,-2.26004342996966E-13,1.22464679914735E-16));
#931=DIRECTION('',(-1.,2.26004342996966E-13,-1.22464679914735E-16));
#932=DIRECTION('',(-1.22464679914735E-16,1.38387747622317E-29,1.));
#933=DIRECTION('',(1.,-2.26004342996966E-13,1.22464679914735E-16));
#934=DIRECTION('',(-2.26004342996966E-13,-1.,-1.38387747622317E-29));
#935=DIRECTION('',(-1.22464679914735E-16,1.38387747622317E-29,1.));
#936=DIRECTION('',(1.,-2.26004342996966E-13,1.22464679914735E-16));
#937=DIRECTION('',(1.,-2.26004342996966E-13,1.22464679914735E-16));
#938=DIRECTION('',(-1.22464679914735E-16,1.38387747622317E-29,1.));
#939=DIRECTION('',(1.,-2.26004342996966E-13,1.22464679914735E-16));
#940=DIRECTION('',(2.26004342996966E-13,1.,1.38387747622317E-29));
#941=DIRECTION('',(-1.22464679914735E-16,1.38387747622317E-29,1.));
#942=DIRECTION('',(1.,-2.26004342996966E-13,1.22464679914735E-16));
#943=DIRECTION('',(0.684754114162797,0.728774178423689,8.3858193411235E-17));
#944=DIRECTION('',(0.728774178423688,-0.684754114162798,8.92490964907907E-17));
#945=DIRECTION('',(2.26004342996966E-13,1.,1.38387747622317E-29));
#946=DIRECTION('',(-0.684754114162798,-0.728774178423689,-8.3858193411235E-17));
#947=DIRECTION('',(-0.728774178423689,0.684754114162797,-8.92490964907908E-17));
#948=DIRECTION('',(0.0824696362948078,0.996593577688218,1.00996176115145E-17));
#949=DIRECTION('',(0.677963652816112,0.735095426091222,8.30266017359397E-17));
#950=DIRECTION('',(0.735095426091222,-0.677963652816112,9.00232260630568E-17));
#951=DIRECTION('',(-0.132841215572097,-0.991137332283134,-1.62683569445075E-17));
#952=DIRECTION('',(-0.677963652816112,-0.735095426091222,-8.30266017359397E-17));
#953=DIRECTION('',(-0.735095426091222,0.677963652816111,-9.00232260630569E-17));
#954=DIRECTION('',(0.0542430380919114,0.998527762667899,6.64285629751491E-18));
#955=DIRECTION('',(0.680969156037467,0.732312097759978,8.33946697259257E-17));
#956=DIRECTION('',(0.732312097759978,-0.680969156037467,8.96823666498735E-17));
#957=DIRECTION('',(-0.111492414343054,-0.993765284936014,-1.36538828354294E-17));
#958=DIRECTION('',(-0.680969156037467,-0.732312097759978,-8.33946697259257E-17));
#959=DIRECTION('',(-0.732312097759978,0.680969156037467,-8.96823666498735E-17));
#960=DIRECTION('',(2.25570264216954E-13,1.,1.37856154433798E-29));
#961=DIRECTION('',(-1.22464679914735E-16,1.38387747622317E-29,1.));
#962=DIRECTION('',(-1.,2.26004342996966E-13,-1.22464679914735E-16));
#963=DIRECTION('',(0.735095426091222,-0.677963652816112,9.00232260630568E-17));
#964=DIRECTION('',(0.677963652816112,0.735095426091222,8.30266017359397E-17));
#965=DIRECTION('',(0.0542430380919114,0.998527762667899,6.64285629751491E-18));
#966=DIRECTION('',(-0.735095426091222,0.677963652816111,-9.00232260630569E-17));
#967=DIRECTION('',(-0.677963652816112,-0.735095426091222,-8.30266017359397E-17));
#968=DIRECTION('',(-0.132841215572097,-0.991137332283134,-1.62683569445075E-17));
#969=DIRECTION('',(-1.22464679914735E-16,1.38387747622317E-29,1.));
#970=DIRECTION('',(1.,-2.26004342996966E-13,1.22464679914735E-16));
#971=DIRECTION('',(2.26004342996966E-13,1.,1.38387747622317E-29));
#972=DIRECTION('',(-1.22464679914735E-16,1.38387747622317E-29,1.));
#973=DIRECTION('',(1.,-2.26004342996966E-13,1.22464679914735E-16));
#974=DIRECTION('',(1.,-2.26004342996966E-13,1.22464679914735E-16));
#975=DIRECTION('',(-1.22464679914735E-16,1.38387747622317E-29,1.));
#976=DIRECTION('',(1.,-2.26004342996966E-13,1.22464679914735E-16));
#977=DIRECTION('',(-2.26004342996966E-13,-1.,-1.38387747622317E-29));
#978=DIRECTION('',(-1.22464679914735E-16,1.38387747622317E-29,1.));
#979=DIRECTION('',(1.,-2.26004342996966E-13,1.22464679914735E-16));
#980=DIRECTION('',(-1.,2.26004342996966E-13,-1.22464679914735E-16));
#981=DIRECTION('',(-1.22464679914735E-16,1.38387747622317E-29,1.));
#982=DIRECTION('',(1.,-2.26004342996966E-13,1.22464679914735E-16));
#983=DIRECTION('',(-1.22464679914735E-16,1.38387747622317E-29,1.));
#984=DIRECTION('',(1.,-2.26004342996966E-13,1.22464679914735E-16));
#985=DIRECTION('',(-1.22464679914735E-16,1.38387747622317E-29,1.));
#986=DIRECTION('',(1.,-2.26004342996966E-13,1.22464679914735E-16));
#987=DIRECTION('',(-1.22464679914735E-16,1.38387747622317E-29,1.));
#988=DIRECTION('',(1.,-2.26004342996966E-13,1.22464679914735E-16));
#989=DIRECTION('',(0.728774178423688,-0.684754114162798,8.92490964907907E-17));
#990=DIRECTION('',(0.684754114162797,0.728774178423689,8.3858193411235E-17));
#991=DIRECTION('',(0.0824696362948078,0.996593577688218,1.00996176115145E-17));
#992=DIRECTION('',(-0.728774178423689,0.684754114162797,-8.92490964907908E-17));
#993=DIRECTION('',(-0.684754114162798,-0.728774178423689,-8.3858193411235E-17));
#994=DIRECTION('',(2.26004342996966E-13,1.,1.38387747622317E-29));
#995=DIRECTION('',(0.732312097759978,-0.680969156037467,8.96823666498735E-17));
#996=DIRECTION('',(0.680969156037467,0.732312097759978,8.33946697259257E-17));
#997=DIRECTION('',(2.25570264216954E-13,1.,1.37856154433798E-29));
#998=DIRECTION('',(-0.732312097759978,0.680969156037467,-8.96823666498735E-17));
#999=DIRECTION('',(-0.680969156037467,-0.732312097759978,-8.33946697259257E-17));
#1000=DIRECTION('',(-0.111492414343054,-0.993765284936014,-1.36538828354294E-17));
#1001=DIRECTION('',(1.22464679914735E-16,-1.38387747622317E-29,-1.));
#1002=DIRECTION('',(-1.,2.26004342996966E-13,-1.22464679914735E-16));
#1003=DIRECTION('',(1.22464679914735E-16,-1.38387747622317E-29,-1.));
#1004=DIRECTION('',(4.56769598769968E-13,1.,4.20993679459145E-29));
#1005=DIRECTION('',(1.22464679914735E-16,-1.38387747622317E-29,-1.));
#1006=DIRECTION('',(4.56769598769968E-13,1.,4.20993679459145E-29));
#1007=DIRECTION('',(-1.22464679914735E-16,1.38387747622317E-29,1.));
#1008=DIRECTION('',(-1.,2.26004342996966E-13,-1.22464679914735E-16));
#1009=DIRECTION('',(-1.22464679914735E-16,1.38387747622317E-29,1.));
#1010=DIRECTION('',(1.,-2.26004342996966E-13,1.22464679914735E-16));
#1011=DIRECTION('',(-1.22464679914735E-16,1.38387747622317E-29,1.));
#1012=DIRECTION('',(-1.,2.26004342996966E-13,-1.22464679914735E-16));
#1013=DIRECTION('',(-1.22464679914735E-16,1.38387747622317E-29,1.));
#1014=DIRECTION('',(1.,-2.26004342996966E-13,1.22464679914735E-16));
#1015=DIRECTION('',(1.22464679914735E-16,-1.38387747622317E-29,-1.));
#1016=DIRECTION('',(-1.,2.26004342996966E-13,-1.22464679914735E-16));
#1017=DIRECTION('',(1.22464679914735E-16,-1.38387747622317E-29,-1.));
#1018=DIRECTION('',(4.69688557601968E-13,1.,4.3681484104107E-29));
#1019=DIRECTION('',(1.22464679914735E-16,-1.38387747622317E-29,-1.));
#1020=DIRECTION('',(4.69688557601968E-13,1.,4.3681484104107E-29));
#1021=DIRECTION('',(-1.22464679914735E-16,1.38387747622317E-29,1.));
#1022=DIRECTION('',(-1.,2.26004342996966E-13,-1.22464679914735E-16));
#1023=DIRECTION('',(-1.22464679914735E-16,1.38387747622317E-29,1.));
#1024=DIRECTION('',(1.,-2.26004342996966E-13,1.22464679914735E-16));
#1025=DIRECTION('',(-1.22464679914735E-16,1.38387747622317E-29,1.));
#1026=DIRECTION('',(-1.,2.26004342996966E-13,-1.22464679914735E-16));
#1027=DIRECTION('',(-1.22464679914735E-16,1.38387747622317E-29,1.));
#1028=DIRECTION('',(1.,-2.26004342996966E-13,1.22464679914735E-16));
#1029=DIRECTION('',(1.22464679914735E-16,-1.38387747622317E-29,-1.));
#1030=DIRECTION('',(-1.,2.26004342996966E-13,-1.22464679914735E-16));
#1031=DIRECTION('',(1.22464679914735E-16,-1.38387747622317E-29,-1.));
#1032=DIRECTION('',(4.43850639937968E-13,1.,4.0517251787722E-29));
#1033=DIRECTION('',(1.22464679914735E-16,-1.38387747622317E-29,-1.));
#1034=DIRECTION('',(4.43850639937968E-13,1.,4.0517251787722E-29));
#1035=DIRECTION('',(-1.22464679914735E-16,1.38387747622317E-29,1.));
#1036=DIRECTION('',(-1.,2.26004342996966E-13,-1.22464679914735E-16));
#1037=DIRECTION('',(-1.22464679914735E-16,1.38387747622317E-29,1.));
#1038=DIRECTION('',(1.,-2.26004342996966E-13,1.22464679914735E-16));
#1039=DIRECTION('',(-1.22464679914735E-16,1.38387747622317E-29,1.));
#1040=DIRECTION('',(-1.,2.26004342996966E-13,-1.22464679914735E-16));
#1041=DIRECTION('',(-1.22464679914735E-16,1.38387747622317E-29,1.));
#1042=DIRECTION('',(1.,-2.26004342996966E-13,1.22464679914735E-16));
#1043=DIRECTION('',(1.22464679914735E-16,-1.38387747622317E-29,-1.));
#1044=DIRECTION('',(-1.,2.26004342996966E-13,-1.22464679914735E-16));
#1045=DIRECTION('',(1.22464679914735E-16,-1.38387747622317E-29,-1.));
#1046=DIRECTION('',(4.56769598769968E-13,1.,4.20993679459145E-29));
#1047=DIRECTION('',(1.22464679914735E-16,-1.38387747622317E-29,-1.));
#1048=DIRECTION('',(4.56769598769968E-13,1.,4.20993679459145E-29));
#1049=DIRECTION('',(-1.22464679914735E-16,1.38387747622317E-29,1.));
#1050=DIRECTION('',(-1.,2.26004342996966E-13,-1.22464679914735E-16));
#1051=DIRECTION('',(-1.22464679914735E-16,1.38387747622317E-29,1.));
#1052=DIRECTION('',(1.,-2.26004342996966E-13,1.22464679914735E-16));
#1053=DIRECTION('',(-1.22464679914735E-16,1.38387747622317E-29,1.));
#1054=DIRECTION('',(-1.,2.26004342996966E-13,-1.22464679914735E-16));
#1055=DIRECTION('',(-1.22464679914735E-16,1.38387747622317E-29,1.));
#1056=DIRECTION('',(1.,-2.26004342996966E-13,1.22464679914735E-16));
#1057=DIRECTION('',(1.22464679914735E-16,-1.38387747622317E-29,-1.));
#1058=DIRECTION('',(-1.,2.26004342996966E-13,-1.22464679914735E-16));
#1059=DIRECTION('',(1.22464679914735E-16,-1.38387747622317E-29,-1.));
#1060=DIRECTION('',(-1.,2.26004342996966E-13,-1.22464679914735E-16));
#1061=DIRECTION('',(1.22464679914735E-16,-1.38387747622317E-29,-1.));
#1062=DIRECTION('',(-1.,2.26004342996966E-13,-1.22464679914735E-16));
#1063=DIRECTION('',(1.22464679914735E-16,-1.38387747622317E-29,-1.));
#1064=DIRECTION('',(-1.,2.26004342996966E-13,-1.22464679914735E-16));
#1065=DIRECTION('',(1.22464679914735E-16,-1.38387747622317E-29,-1.));
#1066=DIRECTION('',(-1.,2.26004342996966E-13,-1.22464679914735E-16));
#1067=DIRECTION('',(1.22464679914735E-16,-1.38387747622317E-29,-1.));
#1068=DIRECTION('',(-1.,2.26004342996966E-13,-1.22464679914735E-16));
#1069=DIRECTION('',(1.22464679914735E-16,-1.38387747622317E-29,-1.));
#1070=DIRECTION('',(-1.,2.26004342996966E-13,-1.22464679914735E-16));
#1071=DIRECTION('',(1.22464679914735E-16,-1.38387747622317E-29,-1.));
#1072=DIRECTION('',(-1.,2.26004342996966E-13,-1.22464679914735E-16));
#1073=DIRECTION('',(1.22464679914735E-16,-1.38387747622317E-29,-1.));
#1074=DIRECTION('',(-1.,2.26004342996966E-13,-1.22464679914735E-16));
#1075=DIRECTION('',(1.22464679914735E-16,-1.38387747622317E-29,-1.));
#1076=DIRECTION('',(1.22464679914735E-16,-1.38387747622317E-29,-1.));
#1077=DIRECTION('',(-2.26004342996966E-13,-1.,-1.38387747622317E-29));
#1078=DIRECTION('',(-1.22464679914735E-16,1.38387747622317E-29,1.));
#1079=DIRECTION('',(1.22464679914735E-16,-1.38387747622317E-29,-1.));
#1080=DIRECTION('',(1.22464679914735E-16,-1.38387747622317E-29,-1.));
#1081=DIRECTION('',(-1.,2.26004342996966E-13,-1.22464679914735E-16));
#1082=DIRECTION('',(1.22464679914735E-16,-1.38387747622317E-29,-1.));
#1083=DIRECTION('',(1.,-2.26004342996966E-13,1.22464679914735E-16));
#1084=DIRECTION('',(1.22464679914735E-16,-1.38387747622317E-29,-1.));
#1085=DIRECTION('',(1.22464679914735E-16,-1.38387747622317E-29,-1.));
#1086=DIRECTION('',(1.22464679914735E-16,-1.38387747622317E-29,-1.));
#1087=DIRECTION('',(-1.,2.26004342996966E-13,-1.22464679914735E-16));
#1088=DIRECTION('',(1.22464679914735E-16,-1.38387747622317E-29,-1.));
#1089=DIRECTION('',(2.26004342996966E-13,1.,1.38387747622317E-29));
#1090=DIRECTION('',(1.22464679914735E-16,-1.38387747622317E-29,-1.));
#1091=DIRECTION('',(1.22464679914735E-16,-1.38387747622317E-29,-1.));
#1092=DIRECTION('',(1.22464679914735E-16,-1.38387747622317E-29,-1.));
#1093=DIRECTION('',(-1.,2.26004342996966E-13,-1.22464679914735E-16));
#1094=DIRECTION('',(1.22464679914735E-16,-1.38387747622317E-29,-1.));
#1095=DIRECTION('',(-1.,2.26004342996966E-13,-1.22464679914735E-16));
#1096=DIRECTION('',(-1.22464679914735E-16,1.38387747622317E-29,1.));
#1097=DIRECTION('',(-0.684754114162798,-0.728774178423688,-8.38581934112351E-17));
#1098=DIRECTION('',(-0.728774178423688,0.684754114162798,-8.92490964907907E-17));
#1099=DIRECTION('',(-1.22464679914735E-16,1.38387747622317E-29,1.));
#1100=DIRECTION('',(-1.22464679914735E-16,1.38387747622317E-29,1.));
#1101=DIRECTION('',(0.728774178423689,-0.684754114162797,8.92490964907908E-17));
#1102=DIRECTION('',(-0.684754114162797,-0.728774178423689,-8.3858193411235E-17));
#1103=DIRECTION('',(-1.22464679914735E-16,1.38387747622317E-29,1.));
#1104=DIRECTION('',(0.996593577688218,-0.0824696362948078,1.2204751349667E-16));
#1105=DIRECTION('',(-0.0824696362948078,-0.996593577688218,-1.00996176115145E-17));
#1106=DIRECTION('',(-1.22464679914735E-16,1.38387747622317E-29,1.));
#1107=DIRECTION('',(0.684754114162797,0.728774178423689,8.3858193411235E-17));
#1108=DIRECTION('',(0.728774178423689,-0.684754114162797,8.92490964907908E-17));
#1109=DIRECTION('',(-1.22464679914735E-16,1.38387747622317E-29,1.));
#1110=DIRECTION('',(-0.728774178423689,0.684754114162798,-8.92490964907908E-17));
#1111=DIRECTION('',(0.684754114162798,0.728774178423689,8.3858193411235E-17));
#1112=DIRECTION('',(-1.22464679914735E-16,1.38387747622317E-29,1.));
#1113=DIRECTION('',(1.,-2.26004342996966E-13,1.22464679914735E-16));
#1114=DIRECTION('',(1.22464679914735E-16,-1.38387747622317E-29,-1.));
#1115=DIRECTION('',(-0.677963652816112,-0.735095426091222,-8.30266017359397E-17));
#1116=DIRECTION('',(-0.735095426091222,0.677963652816112,-9.00232260630568E-17));
#1117=DIRECTION('',(-1.22464679914735E-16,1.38387747622317E-29,1.));
#1118=DIRECTION('',(-1.22464679914735E-16,1.38387747622317E-29,1.));
#1119=DIRECTION('',(0.735095426091222,-0.677963652816112,9.00232260630568E-17));
#1120=DIRECTION('',(-0.677963652816112,-0.735095426091222,-8.30266017359397E-17));
#1121=DIRECTION('',(-1.22464679914735E-16,1.38387747622317E-29,1.));
#1122=DIRECTION('',(0.998527762667899,-0.0542430380919114,1.22284382841102E-16));
#1123=DIRECTION('',(-0.0542430380919114,-0.998527762667899,-6.64285629751491E-18));
#1124=DIRECTION('',(-1.22464679914735E-16,1.38387747622317E-29,1.));
#1125=DIRECTION('',(0.677963652816111,0.735095426091222,8.30266017359396E-17));
#1126=DIRECTION('',(0.735095426091222,-0.677963652816111,9.00232260630569E-17));
#1127=DIRECTION('',(-1.22464679914735E-16,1.38387747622317E-29,1.));
#1128=DIRECTION('',(-0.735095426091222,0.677963652816112,-9.00232260630568E-17));
#1129=DIRECTION('',(0.677963652816112,0.735095426091222,8.30266017359397E-17));
#1130=DIRECTION('',(-1.22464679914735E-16,1.38387747622317E-29,1.));
#1131=DIRECTION('',(-0.991137332283134,0.132841215572097,-1.213793161496E-16));
#1132=DIRECTION('',(0.132841215572097,0.991137332283134,1.62683569445075E-17));
#1133=DIRECTION('',(-0.680969156037467,-0.732312097759978,-8.33946697259257E-17));
#1134=DIRECTION('',(-0.732312097759978,0.680969156037467,-8.96823666498735E-17));
#1135=DIRECTION('',(-1.22464679914735E-16,1.38387747622317E-29,1.));
#1136=DIRECTION('',(-1.22464679914735E-16,1.38387747622317E-29,1.));
#1137=DIRECTION('',(0.732312097759978,-0.680969156037467,8.96823666498735E-17));
#1138=DIRECTION('',(-0.680969156037467,-0.732312097759978,-8.33946697259257E-17));
#1139=DIRECTION('',(-1.22464679914735E-16,1.38387747622317E-29,1.));
#1140=DIRECTION('',(1.,-2.25570264216954E-13,1.22464679914735E-16));
#1141=DIRECTION('',(-2.25570264216954E-13,-1.,-1.37856154433798E-29));
#1142=DIRECTION('',(-1.22464679914735E-16,1.38387747622317E-29,1.));
#1143=DIRECTION('',(0.680969156037467,0.732312097759978,8.33946697259257E-17));
#1144=DIRECTION('',(0.732312097759978,-0.680969156037467,8.96823666498735E-17));
#1145=DIRECTION('',(-1.22464679914735E-16,1.38387747622317E-29,1.));
#1146=DIRECTION('',(-0.732312097759978,0.680969156037467,-8.96823666498735E-17));
#1147=DIRECTION('',(0.680969156037467,0.732312097759978,8.33946697259257E-17));
#1148=DIRECTION('',(-1.22464679914735E-16,1.38387747622317E-29,1.));
#1149=DIRECTION('',(-0.993765284936014,0.111492414343054,-1.21701147530066E-16));
#1150=DIRECTION('',(0.111492414343054,0.993765284936014,1.36538828354294E-17));
#1151=CARTESIAN_POINT('',(0.,0.,0.));
#1152=CARTESIAN_POINT('',(0.0567649999999974,0.000237499999996834,-1.00000000000031E-5));
#1153=CARTESIAN_POINT('',(0.0757900000000098,0.0210274999999807,-9.99999999999959E-6));
#1154=CARTESIAN_POINT('',(0.0773900000000098,0.0210274999999804,-9.99999999999939E-6));
#1155=CARTESIAN_POINT('',(0.0376900000000098,0.0210174999999987,-1.00000000000065E-5));
#1156=CARTESIAN_POINT('',(0.0392900000000097,0.0210174999999983,-1.00000000000063E-5));
#1157=CARTESIAN_POINT('',(0.0377199999999903,-0.0205425000000014,-1.00000000000065E-5));
#1158=CARTESIAN_POINT('',(0.0393199999999903,-0.0205425000000017,-1.00000000000063E-5));
#1159=CARTESIAN_POINT('',(0.07732000074708,0.0225275007470697,-9.99999999999959E-6));
#1160=CARTESIAN_POINT('',(0.08182,0.0225275007470687,-9.99999999999959E-6));
#1161=CARTESIAN_POINT('',(0.077320000747081,0.0270274999999947,-9.99999999999959E-6));
#1162=CARTESIAN_POINT('',(0.056765000000006,0.0270274999999944,-1.00000000000031E-5));
#1163=CARTESIAN_POINT('',(0.0362099992529311,0.027027500000004,-1.00000000000065E-5));
#1164=CARTESIAN_POINT('',(0.03620999925293,0.022527500747079,-1.00000000000065E-5));
#1165=CARTESIAN_POINT('',(0.03171,0.02252750074708,-1.00000000000065E-5));
#1166=CARTESIAN_POINT('',(0.031709999999995,0.000237500000039997,-1.00000000000065E-5));
#1167=CARTESIAN_POINT('',(0.031709999999995,-0.022052500747,-1.00000000000065E-5));
#1168=CARTESIAN_POINT('',(0.03620999925292,-0.022052500747001,-1.00000000000065E-5));
#1169=CARTESIAN_POINT('',(0.0362099992529189,-0.026552500000001,-1.00000000000065E-5));
#1170=CARTESIAN_POINT('',(0.0567649999999939,-0.0265525000000057,-1.00000000000031E-5));
#1171=CARTESIAN_POINT('',(0.0773200007470689,-0.0265524999999353,-9.99999999999959E-6));
#1172=CARTESIAN_POINT('',(0.0773200007470699,-0.0220525007470103,-9.99999999999959E-6));
#1173=CARTESIAN_POINT('',(0.0818199999999949,-0.0220525007470114,-9.99999999999959E-6));
#1174=CARTESIAN_POINT('',(0.0818199999999949,0.000237500000028673,-9.99999999999959E-6));
#1175=CARTESIAN_POINT('',(0.0757599999999902,-0.0205525000000192,-9.99999999999959E-6));
#1176=CARTESIAN_POINT('',(0.0773599999999902,-0.0205525000000196,-9.99999999999939E-6));
#1177=CARTESIAN_POINT('',(0.0713909655745572,-0.014770055568309,-9.99999999999959E-6));
#1178=CARTESIAN_POINT('',(0.0664741238389659,-0.020002981113672,-1.00000000000031E-5));
#1179=CARTESIAN_POINT('',(0.0763078073101486,-0.009537130022946,-9.99999999999959E-6));
#1180=CARTESIAN_POINT('',(0.077386309006985,-0.0105504871037878,-9.99999999999959E-6));
#1181=CARTESIAN_POINT('',(0.0784648107038215,-0.0115638441846296,-9.99999999999959E-6));
#1182=CARTESIAN_POINT('',(0.0784648107038213,-0.0124452550929213,-9.99999999999959E-6));
#1183=CARTESIAN_POINT('',(0.0784648107038211,-0.0133266660012129,-9.99999999999959E-6));
#1184=CARTESIAN_POINT('',(0.0735053884654326,-0.0186049093771679,-9.99999999999959E-6));
#1185=CARTESIAN_POINT('',(0.0685459662270441,-0.0238831527531231,-1.00000000000031E-5));
#1186=CARTESIAN_POINT('',(0.0674358174749231,-0.0228400601904972,-1.00000000000031E-5));
#1187=CARTESIAN_POINT('',(0.066325668722802,-0.0217969676278713,-1.00000000000031E-5));
#1188=CARTESIAN_POINT('',(0.066399896280884,-0.0208999743707716,-1.00000000000031E-5));
#1189=CARTESIAN_POINT('',(0.0605336160512519,-0.00533513129952531,-1.00000000000031E-5));
#1190=CARTESIAN_POINT('',(0.047182142536837,-0.0198117290806258,-1.00000000000031E-5));
#1191=CARTESIAN_POINT('',(0.0738850895656669,0.00914146648157518,-9.99999999999959E-6));
#1192=CARTESIAN_POINT('',(0.0748505538303052,0.00825103830547006,-9.99999999999959E-6));
#1193=CARTESIAN_POINT('',(0.0758160180949435,0.00736061012936495,-9.99999999999959E-6));
#1194=CARTESIAN_POINT('',(0.0757098829192857,0.00656872837482182,-9.99999999999959E-6));
#1195=CARTESIAN_POINT('',(0.0756037477436279,0.00577684662027872,-9.99999999999959E-6));
#1196=CARTESIAN_POINT('',(0.0623175971247013,-0.00862892352648913,-1.00000000000031E-5));
#1197=CARTESIAN_POINT('',(0.0490314465057746,-0.023034693673257,-1.00000000000031E-5));
#1198=CARTESIAN_POINT('',(0.0480675463256778,-0.0221457080207093,-1.00000000000031E-5));
#1199=CARTESIAN_POINT('',(0.047103646145581,-0.0212567223681616,-1.00000000000031E-5));
#1200=CARTESIAN_POINT('',(0.047142894341209,-0.0205342257243936,-1.00000000000031E-5));
#1201=CARTESIAN_POINT('',(0.0658498921593947,-0.00957124287983676,-1.00000000000031E-5));
#1202=CARTESIAN_POINT('',(0.056380311591361,-0.0197548001660971,-1.00000000000031E-5));
#1203=CARTESIAN_POINT('',(0.0753194727274285,0.000612314406423581,-9.99999999999959E-6));
#1204=CARTESIAN_POINT('',(0.0764738685606783,-0.000461145882851819,-9.99999999999959E-6));
#1205=CARTESIAN_POINT('',(0.0776282643939281,-0.00153460617212721,-9.99999999999959E-6));
#1206=CARTESIAN_POINT('',(0.0775567223224898,-0.00217228208422192,-9.99999999999959E-6));
#1207=CARTESIAN_POINT('',(0.0774851802510514,-0.00280995799631664,-9.99999999999959E-6));
#1208=CARTESIAN_POINT('',(0.0681176601584077,-0.0128837597669731,-1.00000000000031E-5));
#1209=CARTESIAN_POINT('',(0.058750140065764,-0.0229575615376295,-1.00000000000031E-5));
#1210=CARTESIAN_POINT('',(0.0575652258285624,-0.0218557225122303,-1.00000000000031E-5));
#1211=CARTESIAN_POINT('',(0.0563803115913608,-0.020753883486831,-1.00000000000031E-5));
#1212=CARTESIAN_POINT('',(0.0563803115913609,-0.0202543418264641,-1.00000000000031E-5));
#1213=CARTESIAN_POINT('',(0.0567649999999974,0.000237499999996834,-0.00501));
#1214=CARTESIAN_POINT('',(0.0748505538303052,0.00825103830547006,-0.00501));
#1215=CARTESIAN_POINT('',(0.0738850895656669,0.00914146648157518,-0.00501));
#1216=CARTESIAN_POINT('',(0.0758160180949435,0.00736061012936495,-0.00501));
#1217=CARTESIAN_POINT('',(0.0605336160512519,-0.00533513129952531,-0.00501));
#1218=CARTESIAN_POINT('',(0.047182142536837,-0.0198117290806258,-0.00501));
#1219=CARTESIAN_POINT('',(0.047142894341209,-0.0205342257243936,-0.00501));
#1220=CARTESIAN_POINT('',(0.047103646145581,-0.0212567223681616,-0.00501));
#1221=CARTESIAN_POINT('',(0.0480675463256778,-0.0221457080207093,-0.00501));
#1222=CARTESIAN_POINT('',(0.0490314465057746,-0.023034693673257,-0.00501));
#1223=CARTESIAN_POINT('',(0.0623175971247013,-0.00862892352648913,-0.00501));
#1224=CARTESIAN_POINT('',(0.0756037477436279,0.00577684662027871,-0.00501));
#1225=CARTESIAN_POINT('',(0.0757098829192857,0.00656872837482182,-0.00501));
#1226=CARTESIAN_POINT('',(0.07732000074708,0.0225275007470697,-0.00501));
#1227=CARTESIAN_POINT('',(0.08182,0.0225275007470687,-0.00501));
#1228=CARTESIAN_POINT('',(0.077320000747081,0.0270274999999947,-0.00501));
#1229=CARTESIAN_POINT('',(0.0818199999999949,0.000237500000028673,-0.00501));
#1230=CARTESIAN_POINT('',(0.0818199999999949,-0.0220525007470114,-0.00501));
#1231=CARTESIAN_POINT('',(0.0773200007470699,-0.0220525007470103,-0.00501));
#1232=CARTESIAN_POINT('',(0.0773200007470689,-0.0265524999999353,-0.00501));
#1233=CARTESIAN_POINT('',(0.0567649999999939,-0.0265525000000057,-0.00501));
#1234=CARTESIAN_POINT('',(0.0362099992529189,-0.026552500000001,-0.00501));
#1235=CARTESIAN_POINT('',(0.03620999925292,-0.022052500747001,-0.00501));
#1236=CARTESIAN_POINT('',(0.031709999999995,-0.022052500747,-0.00501));
#1237=CARTESIAN_POINT('',(0.031709999999995,0.000237500000039997,-0.00501));
#1238=CARTESIAN_POINT('',(0.03171,0.02252750074708,-0.00501));
#1239=CARTESIAN_POINT('',(0.03620999925293,0.022527500747079,-0.00501));
#1240=CARTESIAN_POINT('',(0.0362099992529311,0.027027500000004,-0.00501));
#1241=CARTESIAN_POINT('',(0.056765000000006,0.0270274999999944,-0.00501));
#1242=CARTESIAN_POINT('',(0.0757900000000098,0.0210274999999807,-0.00501));
#1243=CARTESIAN_POINT('',(0.0778900000000098,0.0210274999999803,-0.00501));
#1244=CARTESIAN_POINT('',(0.0376900000000098,0.0210174999999987,-0.00501));
#1245=CARTESIAN_POINT('',(0.0397900000000097,0.0210174999999982,-0.00501));
#1246=CARTESIAN_POINT('',(0.0377199999999903,-0.0205425000000014,-0.00501));
#1247=CARTESIAN_POINT('',(0.0398199999999903,-0.0205425000000018,-0.00501));
#1248=CARTESIAN_POINT('',(0.0757599999999902,-0.0205525000000192,-0.00501));
#1249=CARTESIAN_POINT('',(0.0778599999999902,-0.0205525000000197,-0.00501));
#1250=CARTESIAN_POINT('',(0.077386309006985,-0.0105504871037878,-0.00501));
#1251=CARTESIAN_POINT('',(0.0763078073101486,-0.009537130022946,-0.00501));
#1252=CARTESIAN_POINT('',(0.0784648107038215,-0.0115638441846296,-0.00501));
#1253=CARTESIAN_POINT('',(0.0713909655745572,-0.014770055568309,-0.00501));
#1254=CARTESIAN_POINT('',(0.0664741238389659,-0.020002981113672,-0.00501));
#1255=CARTESIAN_POINT('',(0.066399896280884,-0.0208999743707716,-0.00501));
#1256=CARTESIAN_POINT('',(0.066325668722802,-0.0217969676278713,-0.00501));
#1257=CARTESIAN_POINT('',(0.0674358174749231,-0.0228400601904972,-0.00501));
#1258=CARTESIAN_POINT('',(0.0685459662270441,-0.0238831527531231,-0.00501));
#1259=CARTESIAN_POINT('',(0.0735053884654326,-0.0186049093771679,-0.00501));
#1260=CARTESIAN_POINT('',(0.0784648107038211,-0.0133266660012129,-0.00501));
#1261=CARTESIAN_POINT('',(0.0784648107038213,-0.0124452550929213,-0.00501));
#1262=CARTESIAN_POINT('',(0.0764738685606783,-0.000461145882851819,-0.00501));
#1263=CARTESIAN_POINT('',(0.0753194727274285,0.000612314406423581,-0.00501));
#1264=CARTESIAN_POINT('',(0.0776282643939281,-0.00153460617212721,-0.00501));
#1265=CARTESIAN_POINT('',(0.0658498921593947,-0.00957124287983676,-0.00501));
#1266=CARTESIAN_POINT('',(0.056380311591361,-0.0197548001660971,-0.00501));
#1267=CARTESIAN_POINT('',(0.0563803115913609,-0.0202543418264641,-0.00501));
#1268=CARTESIAN_POINT('',(0.0563803115913608,-0.020753883486831,-0.00501));
#1269=CARTESIAN_POINT('',(0.0575652258285624,-0.0218557225122303,-0.00501));
#1270=CARTESIAN_POINT('',(0.058750140065764,-0.0229575615376295,-0.00501));
#1271=CARTESIAN_POINT('',(0.0681176601584077,-0.0128837597669731,-0.00501));
#1272=CARTESIAN_POINT('',(0.0774851802510514,-0.00280995799631664,-0.00501));
#1273=CARTESIAN_POINT('',(0.0775567223224898,-0.00217228208422192,-0.00501));
#1274=CARTESIAN_POINT('',(0.0757900000000098,0.0210274999999807,-0.01241));
#1275=CARTESIAN_POINT('',(0.0757900000000098,0.0210274999999807,-0.01241));
#1276=CARTESIAN_POINT('',(0.0757900000000103,0.0221274999999807,-0.01241));
#1277=CARTESIAN_POINT('',(0.0757900000000098,0.0210274999999807,-0.01341));
#1278=CARTESIAN_POINT('',(0.0757900000000103,0.0221274999999807,-0.01341));
#1279=CARTESIAN_POINT('',(0.056735,0.000237499999989703,-0.01241));
#1280=CARTESIAN_POINT('',(0.0757900000000098,0.0210274999999807,-0.01241));
#1281=CARTESIAN_POINT('',(0.0773900000000098,0.0210274999999804,-0.01241));
#1282=CARTESIAN_POINT('',(0.056735,0.000237499999989703,-0.01341));
#1283=CARTESIAN_POINT('',(0.0757900000000098,0.0210274999999807,-0.01341));
#1284=CARTESIAN_POINT('',(0.0778900000000098,0.0210274999999803,-0.01341));
#1285=CARTESIAN_POINT('',(0.0376900000000098,0.0210174999999987,-0.01241));
#1286=CARTESIAN_POINT('',(0.0376900000000098,0.0210174999999987,-0.01241));
#1287=CARTESIAN_POINT('',(0.0376900000000103,0.0221174999999987,-0.01241));
#1288=CARTESIAN_POINT('',(0.0376900000000098,0.0210174999999987,-0.01341));
#1289=CARTESIAN_POINT('',(0.0376900000000103,0.0221174999999987,-0.01341));
#1290=CARTESIAN_POINT('',(0.056735,0.000237499999989703,-0.01241));
#1291=CARTESIAN_POINT('',(0.0376900000000098,0.0210174999999987,-0.01241));
#1292=CARTESIAN_POINT('',(0.0392900000000097,0.0210174999999983,-0.01241));
#1293=CARTESIAN_POINT('',(0.056735,0.000237499999989703,-0.01341));
#1294=CARTESIAN_POINT('',(0.0376900000000098,0.0210174999999987,-0.01341));
#1295=CARTESIAN_POINT('',(0.0397900000000097,0.0210174999999982,-0.01341));
#1296=CARTESIAN_POINT('',(0.0377199999999903,-0.0205425000000014,-0.01241));
#1297=CARTESIAN_POINT('',(0.0377199999999903,-0.0205425000000014,-0.01241));
#1298=CARTESIAN_POINT('',(0.0377199999999907,-0.0194425000000014,-0.01241));
#1299=CARTESIAN_POINT('',(0.0377199999999903,-0.0205425000000014,-0.01341));
#1300=CARTESIAN_POINT('',(0.0377199999999907,-0.0194425000000014,-0.01341));
#1301=CARTESIAN_POINT('',(0.056735,0.000237499999989703,-0.01241));
#1302=CARTESIAN_POINT('',(0.0377199999999903,-0.0205425000000014,-0.01241));
#1303=CARTESIAN_POINT('',(0.0393199999999903,-0.0205425000000017,-0.01241));
#1304=CARTESIAN_POINT('',(0.056735,0.000237499999989703,-0.01341));
#1305=CARTESIAN_POINT('',(0.0377199999999903,-0.0205425000000014,-0.01341));
#1306=CARTESIAN_POINT('',(0.0398199999999903,-0.0205425000000018,-0.01341));
#1307=CARTESIAN_POINT('',(0.0757599999999902,-0.0205525000000192,-0.01241));
#1308=CARTESIAN_POINT('',(0.0757599999999902,-0.0205525000000192,-0.01241));
#1309=CARTESIAN_POINT('',(0.0757599999999907,-0.0194525000000192,-0.01241));
#1310=CARTESIAN_POINT('',(0.0757599999999902,-0.0205525000000192,-0.01341));
#1311=CARTESIAN_POINT('',(0.0757599999999907,-0.0194525000000192,-0.01341));
#1312=CARTESIAN_POINT('',(0.056735,0.000237499999989703,-0.01241));
#1313=CARTESIAN_POINT('',(0.0757599999999902,-0.0205525000000192,-0.01241));
#1314=CARTESIAN_POINT('',(0.0773599999999902,-0.0205525000000196,-0.01241));
#1315=CARTESIAN_POINT('',(0.056735,0.000237499999989703,-0.01341));
#1316=CARTESIAN_POINT('',(0.0757599999999902,-0.0205525000000192,-0.01341));
#1317=CARTESIAN_POINT('',(0.0778599999999902,-0.0205525000000197,-0.01341));
#1318=CARTESIAN_POINT('',(0.0757599999999902,-0.0205525000000192,-0.00501));
#1319=CARTESIAN_POINT('',(0.0757599999999902,-0.0205525000000192,-0.00501));
#1320=CARTESIAN_POINT('',(0.0377199999999903,-0.0205425000000014,-0.00501));
#1321=CARTESIAN_POINT('',(0.0377199999999903,-0.0205425000000014,-0.00501));
#1322=CARTESIAN_POINT('',(0.0376900000000098,0.0210174999999987,-0.00501));
#1323=CARTESIAN_POINT('',(0.0376900000000098,0.0210174999999987,-0.00501));
#1324=CARTESIAN_POINT('',(0.0757900000000098,0.0210274999999807,-0.00501));
#1325=CARTESIAN_POINT('',(0.0757900000000098,0.0210274999999807,-0.00501));
#1326=CARTESIAN_POINT('',(0.07732000074708,0.0225275007470697,-9.99999999999959E-6));
#1327=CARTESIAN_POINT('',(0.077320000747081,0.0270274999999947,-9.99999999999959E-6));
#1328=CARTESIAN_POINT('',(0.08182,0.0225275007470687,-9.99999999999959E-6));
#1329=CARTESIAN_POINT('',(0.056765000000006,0.0270274999999944,-1.00000000000031E-5));
#1330=CARTESIAN_POINT('',(0.0362099992529311,0.027027500000004,-1.00000000000065E-5));
#1331=CARTESIAN_POINT('',(0.03620999925293,0.022527500747079,-1.00000000000065E-5));
#1332=CARTESIAN_POINT('',(0.03171,0.02252750074708,-1.00000000000065E-5));
#1333=CARTESIAN_POINT('',(0.031709999999995,0.000237500000039997,-1.00000000000065E-5));
#1334=CARTESIAN_POINT('',(0.031709999999995,-0.022052500747,-1.00000000000065E-5));
#1335=CARTESIAN_POINT('',(0.03620999925292,-0.022052500747001,-1.00000000000065E-5));
#1336=CARTESIAN_POINT('',(0.0362099992529189,-0.026552500000001,-1.00000000000065E-5));
#1337=CARTESIAN_POINT('',(0.0567649999999939,-0.0265525000000057,-1.00000000000031E-5));
#1338=CARTESIAN_POINT('',(0.0773200007470689,-0.0265524999999353,-9.99999999999959E-6));
#1339=CARTESIAN_POINT('',(0.0773200007470699,-0.0220525007470103,-9.99999999999959E-6));
#1340=CARTESIAN_POINT('',(0.0818199999999949,-0.0220525007470114,-9.99999999999959E-6));
#1341=CARTESIAN_POINT('',(0.0818199999999949,0.000237500000028673,-9.99999999999959E-6));
#1342=CARTESIAN_POINT('',(0.077386309006985,-0.0105504871037878,-0.00501));
#1343=CARTESIAN_POINT('',(0.0763078073101486,-0.009537130022946,-0.00501));
#1344=CARTESIAN_POINT('',(0.0784648107038215,-0.0115638441846296,-0.00501));
#1345=CARTESIAN_POINT('',(0.0713909655745572,-0.014770055568309,-0.00501));
#1346=CARTESIAN_POINT('',(0.0664741238389659,-0.020002981113672,-0.00501));
#1347=CARTESIAN_POINT('',(0.066399896280884,-0.0208999743707716,-0.00501));
#1348=CARTESIAN_POINT('',(0.066325668722802,-0.0217969676278713,-0.00501));
#1349=CARTESIAN_POINT('',(0.0674358174749231,-0.0228400601904972,-0.00501));
#1350=CARTESIAN_POINT('',(0.0685459662270441,-0.0238831527531231,-0.00501));
#1351=CARTESIAN_POINT('',(0.0735053884654326,-0.0186049093771679,-0.00501));
#1352=CARTESIAN_POINT('',(0.0784648107038211,-0.0133266660012129,-0.00501));
#1353=CARTESIAN_POINT('',(0.0784648107038213,-0.0124452550929213,-0.00501));
#1354=CARTESIAN_POINT('',(0.0748505538303052,0.00825103830547006,-0.00501));
#1355=CARTESIAN_POINT('',(0.0738850895656669,0.00914146648157518,-0.00501));
#1356=CARTESIAN_POINT('',(0.0758160180949435,0.00736061012936495,-0.00501));
#1357=CARTESIAN_POINT('',(0.0605336160512519,-0.00533513129952531,-0.00501));
#1358=CARTESIAN_POINT('',(0.047182142536837,-0.0198117290806258,-0.00501));
#1359=CARTESIAN_POINT('',(0.047142894341209,-0.0205342257243936,-0.00501));
#1360=CARTESIAN_POINT('',(0.047103646145581,-0.0212567223681616,-0.00501));
#1361=CARTESIAN_POINT('',(0.0480675463256778,-0.0221457080207093,-0.00501));
#1362=CARTESIAN_POINT('',(0.0490314465057746,-0.023034693673257,-0.00501));
#1363=CARTESIAN_POINT('',(0.0623175971247013,-0.00862892352648913,-0.00501));
#1364=CARTESIAN_POINT('',(0.0756037477436279,0.00577684662027871,-0.00501));
#1365=CARTESIAN_POINT('',(0.0757098829192857,0.00656872837482182,-0.00501));
#1366=CARTESIAN_POINT('',(0.0764738685606783,-0.000461145882851819,-0.00501));
#1367=CARTESIAN_POINT('',(0.0753194727274285,0.000612314406423581,-0.00501));
#1368=CARTESIAN_POINT('',(0.0776282643939281,-0.00153460617212721,-0.00501));
#1369=CARTESIAN_POINT('',(0.0658498921593947,-0.00957124287983676,-0.00501));
#1370=CARTESIAN_POINT('',(0.056380311591361,-0.0197548001660971,-0.00501));
#1371=CARTESIAN_POINT('',(0.0563803115913609,-0.0202543418264641,-0.00501));
#1372=CARTESIAN_POINT('',(0.0563803115913608,-0.020753883486831,-0.00501));
#1373=CARTESIAN_POINT('',(0.0575652258285624,-0.0218557225122303,-0.00501));
#1374=CARTESIAN_POINT('',(0.058750140065764,-0.0229575615376295,-0.00501));
#1375=CARTESIAN_POINT('',(0.0681176601584077,-0.0128837597669731,-0.00501));
#1376=CARTESIAN_POINT('',(0.0774851802510514,-0.00280995799631664,-0.00501));
#1377=CARTESIAN_POINT('',(0.0775567223224898,-0.00217228208422192,-0.00501));
#1378=MECHANICAL_DESIGN_GEOMETRIC_PRESENTATION_REPRESENTATION('',(#827),
#1379);
#1379=(
GEOMETRIC_REPRESENTATION_CONTEXT(3)
GLOBAL_UNCERTAINTY_ASSIGNED_CONTEXT((#1380))
GLOBAL_UNIT_ASSIGNED_CONTEXT((#1383,#1382,#1381))
REPRESENTATION_CONTEXT('Part 2','TOP_LEVEL_ASSEMBLY_PART')
);
#1380=UNCERTAINTY_MEASURE_WITH_UNIT(LENGTH_MEASURE(1.E-8),#1383,
'DISTANCE_ACCURACY_VALUE','Maximum Tolerance applied to model');
#1381=(
NAMED_UNIT(*)
SI_UNIT($,.STERADIAN.)
SOLID_ANGLE_UNIT()
);
#1382=(
NAMED_UNIT(*)
PLANE_ANGLE_UNIT()
SI_UNIT($,.RADIAN.)
);
#1383=(
LENGTH_UNIT()
NAMED_UNIT(*)
SI_UNIT($,.METRE.)
);
#1384=PRODUCT_DEFINITION_SHAPE('','',#1385);
#1385=PRODUCT_DEFINITION('','',#1387,#1386);
#1386=PRODUCT_DEFINITION_CONTEXT('',#1393,'design');
#1387=PRODUCT_DEFINITION_FORMATION_WITH_SPECIFIED_SOURCE('','',#1389,
 .NOT_KNOWN.);
#1388=PRODUCT_RELATED_PRODUCT_CATEGORY('','',(#1389));
#1389=PRODUCT('Part 2','Part 2','Part 2',(#1391));
#1390=PRODUCT_CATEGORY('','');
#1391=PRODUCT_CONTEXT('',#1393,'mechanical');
#1392=APPLICATION_PROTOCOL_DEFINITION('international standard',
'ap242_managed_model_based_3d_engineering',2020,#1393);
#1393=APPLICATION_CONTEXT('managed model based 3d engineering');
ENDSEC;
END-ISO-10303-21;
