ISO-10303-21;
HEADER;
/* Generated by software containing ST-Developer
 * from STEP Tools, Inc. (www.steptools.com) 
 */
/* OPTION: using custom renumber hook */

FILE_DESCRIPTION(
/* description */ ('STEP AP242 Edition 2',
'CAx-IF Rec.Pracs.---Representation and Presentation of Product Manufa
cturing Information (PMI)---4.0---2014-10-13',
'CAx-IF Rec.Pracs.---3D Tessellated Geometry---0.4---2014-09-14','2;1',
'CAx-IF Rec.Pracs.---User Defined Attributes---1.5---2016-08-15'),
/* implementation_level */ '2;1');

FILE_NAME(
/* name */ 'Part Studio 1 - Part 1',
/* time_stamp */ '2026-06-10T18:19:18Z',
/* author */ (''),
/* organization */ (''),
/* preprocessor_version */ 'ST-DEVELOPER v20',
/* originating_system */ 'ONSHAPE BY PTC INC, 1.216',
/* authorisation */ '  ');

FILE_SCHEMA (('AP242_MANAGED_MODEL_BASED_3D_ENGINEERING_MIM_LF { 1 0 10303 442 3 1 4 }'));
ENDSEC;

DATA;
#10=SHAPE_REPRESENTATION_RELATIONSHIP('','',#359,#11);
#11=ADVANCED_BREP_SHAPE_REPRESENTATION('',(#357),#613);
#12=CIRCLE('',#363,0.004499999252925);
#13=CIRCLE('',#364,0.004499999252925);
#14=CIRCLE('',#367,0.004499999252925);
#15=CIRCLE('',#368,0.004499999252925);
#16=CIRCLE('',#371,0.004499999252925);
#17=CIRCLE('',#372,0.004499999252925);
#18=CIRCLE('',#375,0.004499999252925);
#19=CIRCLE('',#376,0.004499999252925);
#20=CIRCLE('',#378,0.00246);
#21=CIRCLE('',#379,0.00246);
#22=CIRCLE('',#380,0.00246);
#23=CIRCLE('',#381,0.00246);
#24=CIRCLE('',#383,0.00122);
#25=CIRCLE('',#384,0.00122);
#26=CIRCLE('',#385,0.00122);
#27=CIRCLE('',#386,0.00122);
#28=CIRCLE('',#388,0.00246);
#29=CIRCLE('',#390,0.00122);
#30=CIRCLE('',#393,0.00246);
#31=CIRCLE('',#395,0.00122);
#32=CIRCLE('',#398,0.00246);
#33=CIRCLE('',#400,0.00122);
#34=CIRCLE('',#403,0.00246);
#35=CIRCLE('',#405,0.00122);
#36=CYLINDRICAL_SURFACE('',#362,0.004499999252925);
#37=CYLINDRICAL_SURFACE('',#366,0.004499999252925);
#38=CYLINDRICAL_SURFACE('',#370,0.004499999252925);
#39=CYLINDRICAL_SURFACE('',#374,0.004499999252925);
#40=CYLINDRICAL_SURFACE('',#387,0.00246);
#41=CYLINDRICAL_SURFACE('',#389,0.00122);
#42=CYLINDRICAL_SURFACE('',#392,0.00246);
#43=CYLINDRICAL_SURFACE('',#394,0.00122);
#44=CYLINDRICAL_SURFACE('',#397,0.00246);
#45=CYLINDRICAL_SURFACE('',#399,0.00122);
#46=CYLINDRICAL_SURFACE('',#402,0.00246);
#47=CYLINDRICAL_SURFACE('',#404,0.00122);
#48=ORIENTED_EDGE('',*,*,#128,.T.);
#49=ORIENTED_EDGE('',*,*,#129,.F.);
#50=ORIENTED_EDGE('',*,*,#130,.F.);
#51=ORIENTED_EDGE('',*,*,#131,.T.);
#52=ORIENTED_EDGE('',*,*,#132,.F.);
#53=ORIENTED_EDGE('',*,*,#131,.F.);
#54=ORIENTED_EDGE('',*,*,#133,.T.);
#55=ORIENTED_EDGE('',*,*,#134,.T.);
#56=ORIENTED_EDGE('',*,*,#135,.T.);
#57=ORIENTED_EDGE('',*,*,#134,.F.);
#58=ORIENTED_EDGE('',*,*,#136,.F.);
#59=ORIENTED_EDGE('',*,*,#137,.T.);
#60=ORIENTED_EDGE('',*,*,#138,.F.);
#61=ORIENTED_EDGE('',*,*,#137,.F.);
#62=ORIENTED_EDGE('',*,*,#139,.T.);
#63=ORIENTED_EDGE('',*,*,#140,.T.);
#64=ORIENTED_EDGE('',*,*,#141,.T.);
#65=ORIENTED_EDGE('',*,*,#140,.F.);
#66=ORIENTED_EDGE('',*,*,#142,.F.);
#67=ORIENTED_EDGE('',*,*,#143,.T.);
#68=ORIENTED_EDGE('',*,*,#144,.F.);
#69=ORIENTED_EDGE('',*,*,#143,.F.);
#70=ORIENTED_EDGE('',*,*,#145,.T.);
#71=ORIENTED_EDGE('',*,*,#146,.T.);
#72=ORIENTED_EDGE('',*,*,#147,.T.);
#73=ORIENTED_EDGE('',*,*,#146,.F.);
#74=ORIENTED_EDGE('',*,*,#148,.F.);
#75=ORIENTED_EDGE('',*,*,#149,.T.);
#76=ORIENTED_EDGE('',*,*,#150,.F.);
#77=ORIENTED_EDGE('',*,*,#149,.F.);
#78=ORIENTED_EDGE('',*,*,#151,.T.);
#79=ORIENTED_EDGE('',*,*,#129,.T.);
#80=ORIENTED_EDGE('',*,*,#152,.T.);
#81=ORIENTED_EDGE('',*,*,#153,.T.);
#82=ORIENTED_EDGE('',*,*,#154,.T.);
#83=ORIENTED_EDGE('',*,*,#155,.T.);
#84=ORIENTED_EDGE('',*,*,#130,.T.);
#85=ORIENTED_EDGE('',*,*,#151,.F.);
#86=ORIENTED_EDGE('',*,*,#148,.T.);
#87=ORIENTED_EDGE('',*,*,#145,.F.);
#88=ORIENTED_EDGE('',*,*,#142,.T.);
#89=ORIENTED_EDGE('',*,*,#139,.F.);
#90=ORIENTED_EDGE('',*,*,#136,.T.);
#91=ORIENTED_EDGE('',*,*,#133,.F.);
#92=ORIENTED_EDGE('',*,*,#128,.F.);
#93=ORIENTED_EDGE('',*,*,#132,.T.);
#94=ORIENTED_EDGE('',*,*,#135,.F.);
#95=ORIENTED_EDGE('',*,*,#138,.T.);
#96=ORIENTED_EDGE('',*,*,#141,.F.);
#97=ORIENTED_EDGE('',*,*,#144,.T.);
#98=ORIENTED_EDGE('',*,*,#147,.F.);
#99=ORIENTED_EDGE('',*,*,#150,.T.);
#100=ORIENTED_EDGE('',*,*,#156,.F.);
#101=ORIENTED_EDGE('',*,*,#157,.F.);
#102=ORIENTED_EDGE('',*,*,#158,.F.);
#103=ORIENTED_EDGE('',*,*,#159,.F.);
#104=ORIENTED_EDGE('',*,*,#160,.T.);
#105=ORIENTED_EDGE('',*,*,#155,.F.);
#106=ORIENTED_EDGE('',*,*,#161,.F.);
#107=ORIENTED_EDGE('',*,*,#156,.T.);
#108=ORIENTED_EDGE('',*,*,#161,.T.);
#109=ORIENTED_EDGE('',*,*,#160,.F.);
#110=ORIENTED_EDGE('',*,*,#162,.T.);
#111=ORIENTED_EDGE('',*,*,#152,.F.);
#112=ORIENTED_EDGE('',*,*,#163,.F.);
#113=ORIENTED_EDGE('',*,*,#157,.T.);
#114=ORIENTED_EDGE('',*,*,#163,.T.);
#115=ORIENTED_EDGE('',*,*,#162,.F.);
#116=ORIENTED_EDGE('',*,*,#164,.T.);
#117=ORIENTED_EDGE('',*,*,#153,.F.);
#118=ORIENTED_EDGE('',*,*,#165,.F.);
#119=ORIENTED_EDGE('',*,*,#158,.T.);
#120=ORIENTED_EDGE('',*,*,#165,.T.);
#121=ORIENTED_EDGE('',*,*,#164,.F.);
#122=ORIENTED_EDGE('',*,*,#166,.T.);
#123=ORIENTED_EDGE('',*,*,#154,.F.);
#124=ORIENTED_EDGE('',*,*,#167,.F.);
#125=ORIENTED_EDGE('',*,*,#159,.T.);
#126=ORIENTED_EDGE('',*,*,#167,.T.);
#127=ORIENTED_EDGE('',*,*,#166,.F.);
#128=EDGE_CURVE('',#168,#169,#200,.T.);
#129=EDGE_CURVE('',#170,#169,#201,.T.);
#130=EDGE_CURVE('',#171,#170,#202,.T.);
#131=EDGE_CURVE('',#171,#168,#203,.T.);
#132=EDGE_CURVE('',#168,#172,#12,.T.);
#133=EDGE_CURVE('',#171,#173,#13,.T.);
#134=EDGE_CURVE('',#173,#172,#204,.T.);
#135=EDGE_CURVE('',#174,#172,#205,.T.);
#136=EDGE_CURVE('',#175,#173,#206,.T.);
#137=EDGE_CURVE('',#175,#174,#207,.T.);
#138=EDGE_CURVE('',#174,#176,#14,.T.);
#139=EDGE_CURVE('',#175,#177,#15,.T.);
#140=EDGE_CURVE('',#177,#176,#208,.T.);
#141=EDGE_CURVE('',#178,#176,#209,.T.);
#142=EDGE_CURVE('',#179,#177,#210,.T.);
#143=EDGE_CURVE('',#179,#178,#211,.T.);
#144=EDGE_CURVE('',#178,#180,#16,.T.);
#145=EDGE_CURVE('',#179,#181,#17,.T.);
#146=EDGE_CURVE('',#181,#180,#212,.T.);
#147=EDGE_CURVE('',#182,#180,#213,.T.);
#148=EDGE_CURVE('',#183,#181,#214,.T.);
#149=EDGE_CURVE('',#183,#182,#215,.T.);
#150=EDGE_CURVE('',#182,#169,#18,.T.);
#151=EDGE_CURVE('',#183,#170,#19,.T.);
#152=EDGE_CURVE('',#184,#184,#20,.T.);
#153=EDGE_CURVE('',#185,#185,#21,.T.);
#154=EDGE_CURVE('',#186,#186,#22,.T.);
#155=EDGE_CURVE('',#187,#187,#23,.T.);
#156=EDGE_CURVE('',#188,#188,#24,.T.);
#157=EDGE_CURVE('',#189,#189,#25,.T.);
#158=EDGE_CURVE('',#190,#190,#26,.T.);
#159=EDGE_CURVE('',#191,#191,#27,.T.);
#160=EDGE_CURVE('',#192,#192,#28,.T.);
#161=EDGE_CURVE('',#193,#193,#29,.T.);
#162=EDGE_CURVE('',#194,#194,#30,.T.);
#163=EDGE_CURVE('',#195,#195,#31,.T.);
#164=EDGE_CURVE('',#196,#196,#32,.T.);
#165=EDGE_CURVE('',#197,#197,#33,.T.);
#166=EDGE_CURVE('',#198,#198,#34,.T.);
#167=EDGE_CURVE('',#199,#199,#35,.T.);
#168=VERTEX_POINT('',#520);
#169=VERTEX_POINT('',#521);
#170=VERTEX_POINT('',#523);
#171=VERTEX_POINT('',#525);
#172=VERTEX_POINT('',#529);
#173=VERTEX_POINT('',#531);
#174=VERTEX_POINT('',#535);
#175=VERTEX_POINT('',#537);
#176=VERTEX_POINT('',#541);
#177=VERTEX_POINT('',#543);
#178=VERTEX_POINT('',#547);
#179=VERTEX_POINT('',#549);
#180=VERTEX_POINT('',#553);
#181=VERTEX_POINT('',#555);
#182=VERTEX_POINT('',#559);
#183=VERTEX_POINT('',#561);
#184=VERTEX_POINT('',#568);
#185=VERTEX_POINT('',#570);
#186=VERTEX_POINT('',#572);
#187=VERTEX_POINT('',#574);
#188=VERTEX_POINT('',#577);
#189=VERTEX_POINT('',#579);
#190=VERTEX_POINT('',#581);
#191=VERTEX_POINT('',#583);
#192=VERTEX_POINT('',#586);
#193=VERTEX_POINT('',#589);
#194=VERTEX_POINT('',#593);
#195=VERTEX_POINT('',#596);
#196=VERTEX_POINT('',#600);
#197=VERTEX_POINT('',#603);
#198=VERTEX_POINT('',#607);
#199=VERTEX_POINT('',#610);
#200=LINE('',#519,#216);
#201=LINE('',#522,#217);
#202=LINE('',#524,#218);
#203=LINE('',#526,#219);
#204=LINE('',#532,#220);
#205=LINE('',#534,#221);
#206=LINE('',#536,#222);
#207=LINE('',#538,#223);
#208=LINE('',#544,#224);
#209=LINE('',#546,#225);
#210=LINE('',#548,#226);
#211=LINE('',#550,#227);
#212=LINE('',#556,#228);
#213=LINE('',#558,#229);
#214=LINE('',#560,#230);
#215=LINE('',#562,#231);
#216=VECTOR('',#411,1.);
#217=VECTOR('',#412,1.);
#218=VECTOR('',#413,1.);
#219=VECTOR('',#414,1.);
#220=VECTOR('',#421,1.);
#221=VECTOR('',#424,1.);
#222=VECTOR('',#425,1.);
#223=VECTOR('',#426,1.);
#224=VECTOR('',#433,1.);
#225=VECTOR('',#436,1.);
#226=VECTOR('',#437,1.);
#227=VECTOR('',#438,1.);
#228=VECTOR('',#445,1.);
#229=VECTOR('',#448,1.);
#230=VECTOR('',#449,1.);
#231=VECTOR('',#450,1.);
#232=EDGE_LOOP('',(#48,#49,#50,#51));
#233=EDGE_LOOP('',(#52,#53,#54,#55));
#234=EDGE_LOOP('',(#56,#57,#58,#59));
#235=EDGE_LOOP('',(#60,#61,#62,#63));
#236=EDGE_LOOP('',(#64,#65,#66,#67));
#237=EDGE_LOOP('',(#68,#69,#70,#71));
#238=EDGE_LOOP('',(#72,#73,#74,#75));
#239=EDGE_LOOP('',(#76,#77,#78,#79));
#240=EDGE_LOOP('',(#80));
#241=EDGE_LOOP('',(#81));
#242=EDGE_LOOP('',(#82));
#243=EDGE_LOOP('',(#83));
#244=EDGE_LOOP('',(#84,#85,#86,#87,#88,#89,#90,#91));
#245=EDGE_LOOP('',(#92,#93,#94,#95,#96,#97,#98,#99));
#246=EDGE_LOOP('',(#100));
#247=EDGE_LOOP('',(#101));
#248=EDGE_LOOP('',(#102));
#249=EDGE_LOOP('',(#103));
#250=EDGE_LOOP('',(#104));
#251=EDGE_LOOP('',(#105));
#252=EDGE_LOOP('',(#106));
#253=EDGE_LOOP('',(#107));
#254=EDGE_LOOP('',(#108));
#255=EDGE_LOOP('',(#109));
#256=EDGE_LOOP('',(#110));
#257=EDGE_LOOP('',(#111));
#258=EDGE_LOOP('',(#112));
#259=EDGE_LOOP('',(#113));
#260=EDGE_LOOP('',(#114));
#261=EDGE_LOOP('',(#115));
#262=EDGE_LOOP('',(#116));
#263=EDGE_LOOP('',(#117));
#264=EDGE_LOOP('',(#118));
#265=EDGE_LOOP('',(#119));
#266=EDGE_LOOP('',(#120));
#267=EDGE_LOOP('',(#121));
#268=EDGE_LOOP('',(#122));
#269=EDGE_LOOP('',(#123));
#270=EDGE_LOOP('',(#124));
#271=EDGE_LOOP('',(#125));
#272=EDGE_LOOP('',(#126));
#273=EDGE_LOOP('',(#127));
#274=FACE_BOUND('',#232,.T.);
#275=FACE_BOUND('',#233,.T.);
#276=FACE_BOUND('',#234,.T.);
#277=FACE_BOUND('',#235,.T.);
#278=FACE_BOUND('',#236,.T.);
#279=FACE_BOUND('',#237,.T.);
#280=FACE_BOUND('',#238,.T.);
#281=FACE_BOUND('',#239,.T.);
#282=FACE_BOUND('',#240,.T.);
#283=FACE_BOUND('',#241,.T.);
#284=FACE_BOUND('',#242,.T.);
#285=FACE_BOUND('',#243,.T.);
#286=FACE_BOUND('',#244,.T.);
#287=FACE_BOUND('',#245,.T.);
#288=FACE_BOUND('',#246,.T.);
#289=FACE_BOUND('',#247,.T.);
#290=FACE_BOUND('',#248,.T.);
#291=FACE_BOUND('',#249,.T.);
#292=FACE_BOUND('',#250,.T.);
#293=FACE_BOUND('',#251,.T.);
#294=FACE_BOUND('',#252,.T.);
#295=FACE_BOUND('',#253,.T.);
#296=FACE_BOUND('',#254,.T.);
#297=FACE_BOUND('',#255,.T.);
#298=FACE_BOUND('',#256,.T.);
#299=FACE_BOUND('',#257,.T.);
#300=FACE_BOUND('',#258,.T.);
#301=FACE_BOUND('',#259,.T.);
#302=FACE_BOUND('',#260,.T.);
#303=FACE_BOUND('',#261,.T.);
#304=FACE_BOUND('',#262,.T.);
#305=FACE_BOUND('',#263,.T.);
#306=FACE_BOUND('',#264,.T.);
#307=FACE_BOUND('',#265,.T.);
#308=FACE_BOUND('',#266,.T.);
#309=FACE_BOUND('',#267,.T.);
#310=FACE_BOUND('',#268,.T.);
#311=FACE_BOUND('',#269,.T.);
#312=FACE_BOUND('',#270,.T.);
#313=FACE_BOUND('',#271,.T.);
#314=FACE_BOUND('',#272,.T.);
#315=FACE_BOUND('',#273,.T.);
#316=PLANE('',#361);
#317=PLANE('',#365);
#318=PLANE('',#369);
#319=PLANE('',#373);
#320=PLANE('',#377);
#321=PLANE('',#382);
#322=PLANE('',#391);
#323=PLANE('',#396);
#324=PLANE('',#401);
#325=PLANE('',#406);
#326=ADVANCED_FACE('',(#274),#316,.F.);
#327=ADVANCED_FACE('',(#275),#36,.T.);
#328=ADVANCED_FACE('',(#276),#317,.F.);
#329=ADVANCED_FACE('',(#277),#37,.T.);
#330=ADVANCED_FACE('',(#278),#318,.F.);
#331=ADVANCED_FACE('',(#279),#38,.T.);
#332=ADVANCED_FACE('',(#280),#319,.F.);
#333=ADVANCED_FACE('',(#281),#39,.T.);
#334=ADVANCED_FACE('',(#282,#283,#284,#285,#286),#320,.F.);
#335=ADVANCED_FACE('',(#287,#288,#289,#290,#291),#321,.T.);
#336=ADVANCED_FACE('',(#292,#293),#40,.T.);
#337=ADVANCED_FACE('',(#294,#295),#41,.F.);
#338=ADVANCED_FACE('',(#296,#297),#322,.F.);
#339=ADVANCED_FACE('',(#298,#299),#42,.T.);
#340=ADVANCED_FACE('',(#300,#301),#43,.F.);
#341=ADVANCED_FACE('',(#302,#303),#323,.F.);
#342=ADVANCED_FACE('',(#304,#305),#44,.T.);
#343=ADVANCED_FACE('',(#306,#307),#45,.F.);
#344=ADVANCED_FACE('',(#308,#309),#324,.F.);
#345=ADVANCED_FACE('',(#310,#311),#46,.T.);
#346=ADVANCED_FACE('',(#312,#313),#47,.F.);
#347=ADVANCED_FACE('',(#314,#315),#325,.F.);
#348=CLOSED_SHELL('',(#326,#327,#328,#329,#330,#331,#332,#333,#334,#335,
#336,#337,#338,#339,#340,#341,#342,#343,#344,#345,#346,#347));
#349=STYLED_ITEM('',(#350),#357);
#350=PRESENTATION_STYLE_ASSIGNMENT((#351));
#351=SURFACE_STYLE_USAGE(.BOTH.,#352);
#352=SURFACE_SIDE_STYLE('',(#353));
#353=SURFACE_STYLE_FILL_AREA(#354);
#354=FILL_AREA_STYLE('',(#355));
#355=FILL_AREA_STYLE_COLOUR('',#356);
#356=COLOUR_RGB('',0.8,0.749019607843137,0.913725490196078);
#357=MANIFOLD_SOLID_BREP('Part 1',#348);
#358=SHAPE_DEFINITION_REPRESENTATION(#618,#359);
#359=SHAPE_REPRESENTATION('Part 1',(#360),#613);
#360=AXIS2_PLACEMENT_3D('',#517,#407,#408);
#361=AXIS2_PLACEMENT_3D('',#518,#409,#410);
#362=AXIS2_PLACEMENT_3D('',#527,#415,#416);
#363=AXIS2_PLACEMENT_3D('',#528,#417,#418);
#364=AXIS2_PLACEMENT_3D('',#530,#419,#420);
#365=AXIS2_PLACEMENT_3D('',#533,#422,#423);
#366=AXIS2_PLACEMENT_3D('',#539,#427,#428);
#367=AXIS2_PLACEMENT_3D('',#540,#429,#430);
#368=AXIS2_PLACEMENT_3D('',#542,#431,#432);
#369=AXIS2_PLACEMENT_3D('',#545,#434,#435);
#370=AXIS2_PLACEMENT_3D('',#551,#439,#440);
#371=AXIS2_PLACEMENT_3D('',#552,#441,#442);
#372=AXIS2_PLACEMENT_3D('',#554,#443,#444);
#373=AXIS2_PLACEMENT_3D('',#557,#446,#447);
#374=AXIS2_PLACEMENT_3D('',#563,#451,#452);
#375=AXIS2_PLACEMENT_3D('',#564,#453,#454);
#376=AXIS2_PLACEMENT_3D('',#565,#455,#456);
#377=AXIS2_PLACEMENT_3D('',#566,#457,#458);
#378=AXIS2_PLACEMENT_3D('',#567,#459,#460);
#379=AXIS2_PLACEMENT_3D('',#569,#461,#462);
#380=AXIS2_PLACEMENT_3D('',#571,#463,#464);
#381=AXIS2_PLACEMENT_3D('',#573,#465,#466);
#382=AXIS2_PLACEMENT_3D('',#575,#467,#468);
#383=AXIS2_PLACEMENT_3D('',#576,#469,#470);
#384=AXIS2_PLACEMENT_3D('',#578,#471,#472);
#385=AXIS2_PLACEMENT_3D('',#580,#473,#474);
#386=AXIS2_PLACEMENT_3D('',#582,#475,#476);
#387=AXIS2_PLACEMENT_3D('',#584,#477,#478);
#388=AXIS2_PLACEMENT_3D('',#585,#479,#480);
#389=AXIS2_PLACEMENT_3D('',#587,#481,#482);
#390=AXIS2_PLACEMENT_3D('',#588,#483,#484);
#391=AXIS2_PLACEMENT_3D('',#590,#485,#486);
#392=AXIS2_PLACEMENT_3D('',#591,#487,#488);
#393=AXIS2_PLACEMENT_3D('',#592,#489,#490);
#394=AXIS2_PLACEMENT_3D('',#594,#491,#492);
#395=AXIS2_PLACEMENT_3D('',#595,#493,#494);
#396=AXIS2_PLACEMENT_3D('',#597,#495,#496);
#397=AXIS2_PLACEMENT_3D('',#598,#497,#498);
#398=AXIS2_PLACEMENT_3D('',#599,#499,#500);
#399=AXIS2_PLACEMENT_3D('',#601,#501,#502);
#400=AXIS2_PLACEMENT_3D('',#602,#503,#504);
#401=AXIS2_PLACEMENT_3D('',#604,#505,#506);
#402=AXIS2_PLACEMENT_3D('',#605,#507,#508);
#403=AXIS2_PLACEMENT_3D('',#606,#509,#510);
#404=AXIS2_PLACEMENT_3D('',#608,#511,#512);
#405=AXIS2_PLACEMENT_3D('',#609,#513,#514);
#406=AXIS2_PLACEMENT_3D('',#611,#515,#516);
#407=DIRECTION('',(0.,0.,1.));
#408=DIRECTION('',(1.,0.,0.));
#409=DIRECTION('',(1.,0.,0.));
#410=DIRECTION('',(0.,0.,-1.));
#411=DIRECTION('',(0.,1.,0.));
#412=DIRECTION('',(0.,0.,1.));
#413=DIRECTION('',(0.,1.,0.));
#414=DIRECTION('',(0.,0.,1.));
#415=DIRECTION('',(0.,0.,1.));
#416=DIRECTION('',(1.,0.,0.));
#417=DIRECTION('',(0.,0.,1.));
#418=DIRECTION('',(1.,0.,0.));
#419=DIRECTION('',(0.,0.,1.));
#420=DIRECTION('',(1.,0.,0.));
#421=DIRECTION('',(0.,0.,1.));
#422=DIRECTION('',(0.,1.,0.));
#423=DIRECTION('',(0.,0.,1.));
#424=DIRECTION('',(-1.,0.,0.));
#425=DIRECTION('',(-1.,0.,0.));
#426=DIRECTION('',(0.,0.,1.));
#427=DIRECTION('',(0.,0.,1.));
#428=DIRECTION('',(1.,0.,0.));
#429=DIRECTION('',(0.,0.,1.));
#430=DIRECTION('',(1.,0.,0.));
#431=DIRECTION('',(0.,0.,1.));
#432=DIRECTION('',(1.,0.,0.));
#433=DIRECTION('',(0.,0.,1.));
#434=DIRECTION('',(-1.,0.,0.));
#435=DIRECTION('',(0.,0.,1.));
#436=DIRECTION('',(0.,-1.,0.));
#437=DIRECTION('',(0.,-1.,0.));
#438=DIRECTION('',(0.,0.,1.));
#439=DIRECTION('',(0.,0.,1.));
#440=DIRECTION('',(1.,0.,0.));
#441=DIRECTION('',(0.,0.,1.));
#442=DIRECTION('',(1.,0.,0.));
#443=DIRECTION('',(0.,0.,1.));
#444=DIRECTION('',(1.,0.,0.));
#445=DIRECTION('',(0.,0.,1.));
#446=DIRECTION('',(0.,-1.,0.));
#447=DIRECTION('',(0.,0.,-1.));
#448=DIRECTION('',(1.,0.,0.));
#449=DIRECTION('',(1.,0.,0.));
#450=DIRECTION('',(0.,0.,1.));
#451=DIRECTION('',(0.,0.,1.));
#452=DIRECTION('',(1.,0.,0.));
#453=DIRECTION('',(0.,0.,1.));
#454=DIRECTION('',(1.,0.,0.));
#455=DIRECTION('',(0.,0.,1.));
#456=DIRECTION('',(1.,0.,0.));
#457=DIRECTION('',(0.,0.,1.));
#458=DIRECTION('',(1.,0.,0.));
#459=DIRECTION('',(0.,0.,1.));
#460=DIRECTION('',(1.,0.,0.));
#461=DIRECTION('',(0.,0.,1.));
#462=DIRECTION('',(1.,0.,0.));
#463=DIRECTION('',(0.,0.,1.));
#464=DIRECTION('',(1.,0.,0.));
#465=DIRECTION('',(0.,0.,1.));
#466=DIRECTION('',(1.,0.,0.));
#467=DIRECTION('',(0.,0.,1.));
#468=DIRECTION('',(1.,0.,0.));
#469=DIRECTION('',(0.,0.,1.));
#470=DIRECTION('',(1.,0.,0.));
#471=DIRECTION('',(0.,0.,1.));
#472=DIRECTION('',(1.,0.,0.));
#473=DIRECTION('',(0.,0.,1.));
#474=DIRECTION('',(1.,0.,0.));
#475=DIRECTION('',(0.,0.,1.));
#476=DIRECTION('',(1.,0.,0.));
#477=DIRECTION('',(0.,0.,1.));
#478=DIRECTION('',(1.,0.,0.));
#479=DIRECTION('',(0.,0.,1.));
#480=DIRECTION('',(1.,0.,0.));
#481=DIRECTION('',(0.,0.,1.));
#482=DIRECTION('',(1.,0.,0.));
#483=DIRECTION('',(0.,0.,1.));
#484=DIRECTION('',(1.,0.,0.));
#485=DIRECTION('',(0.,0.,1.));
#486=DIRECTION('',(1.,0.,0.));
#487=DIRECTION('',(0.,0.,1.));
#488=DIRECTION('',(1.,0.,0.));
#489=DIRECTION('',(0.,0.,1.));
#490=DIRECTION('',(1.,0.,0.));
#491=DIRECTION('',(0.,0.,1.));
#492=DIRECTION('',(1.,0.,0.));
#493=DIRECTION('',(0.,0.,1.));
#494=DIRECTION('',(1.,0.,0.));
#495=DIRECTION('',(0.,0.,1.));
#496=DIRECTION('',(1.,0.,0.));
#497=DIRECTION('',(0.,0.,1.));
#498=DIRECTION('',(1.,0.,0.));
#499=DIRECTION('',(0.,0.,1.));
#500=DIRECTION('',(1.,0.,0.));
#501=DIRECTION('',(0.,0.,1.));
#502=DIRECTION('',(1.,0.,0.));
#503=DIRECTION('',(0.,0.,1.));
#504=DIRECTION('',(1.,0.,0.));
#505=DIRECTION('',(0.,0.,1.));
#506=DIRECTION('',(1.,0.,0.));
#507=DIRECTION('',(0.,0.,1.));
#508=DIRECTION('',(1.,0.,0.));
#509=DIRECTION('',(0.,0.,1.));
#510=DIRECTION('',(1.,0.,0.));
#511=DIRECTION('',(0.,0.,1.));
#512=DIRECTION('',(1.,0.,0.));
#513=DIRECTION('',(0.,0.,1.));
#514=DIRECTION('',(1.,0.,0.));
#515=DIRECTION('',(0.,0.,1.));
#516=DIRECTION('',(1.,0.,0.));
#517=CARTESIAN_POINT('',(0.,0.,0.));
#518=CARTESIAN_POINT('',(-0.0248,0.000237500000039997,-0.003));
#519=CARTESIAN_POINT('',(-0.0248,0.000237500000039997,0.));
#520=CARTESIAN_POINT('',(-0.0248,-0.022052500747,0.));
#521=CARTESIAN_POINT('',(-0.0248000000000051,0.02252750074708,0.));
#522=CARTESIAN_POINT('',(-0.0248000000000051,0.02252750074708,-0.003));
#523=CARTESIAN_POINT('',(-0.0248000000000051,0.02252750074708,-0.003));
#524=CARTESIAN_POINT('',(-0.0248,0.000237500000039997,-0.003));
#525=CARTESIAN_POINT('',(-0.0248,-0.022052500747,-0.003));
#526=CARTESIAN_POINT('',(-0.0248,-0.022052500747,-0.003));
#527=CARTESIAN_POINT('',(-0.02030000074708,-0.022052500747,-0.003));
#528=CARTESIAN_POINT('',(-0.02030000074708,-0.022052500747,0.));
#529=CARTESIAN_POINT('',(-0.02030000074708,-0.0265525,0.));
#530=CARTESIAN_POINT('',(-0.02030000074708,-0.022052500747,-0.003));
#531=CARTESIAN_POINT('',(-0.02030000074708,-0.0265525,-0.003));
#532=CARTESIAN_POINT('',(-0.02030000074708,-0.0265525,-0.003));
#533=CARTESIAN_POINT('',(0.00025499999999494,-0.0265525,-0.003));
#534=CARTESIAN_POINT('',(0.00025499999999494,-0.0265525,0.));
#535=CARTESIAN_POINT('',(0.0208100007470699,-0.0265525,0.));
#536=CARTESIAN_POINT('',(0.00025499999999494,-0.0265525,-0.003));
#537=CARTESIAN_POINT('',(0.0208100007470699,-0.0265525,-0.003));
#538=CARTESIAN_POINT('',(0.0208100007470699,-0.0265525,-0.003));
#539=CARTESIAN_POINT('',(0.0208100007470699,-0.022052500747,-0.003));
#540=CARTESIAN_POINT('',(0.0208100007470699,-0.022052500747,0.));
#541=CARTESIAN_POINT('',(0.025309999999995,-0.022052500747,0.));
#542=CARTESIAN_POINT('',(0.0208100007470699,-0.022052500747,-0.003));
#543=CARTESIAN_POINT('',(0.025309999999995,-0.022052500747,-0.003));
#544=CARTESIAN_POINT('',(0.025309999999995,-0.022052500747,-0.003));
#545=CARTESIAN_POINT('',(0.02531,0.000237500000039997,-0.003));
#546=CARTESIAN_POINT('',(0.02531,0.000237500000039997,0.));
#547=CARTESIAN_POINT('',(0.02531,0.02252750074708,0.));
#548=CARTESIAN_POINT('',(0.02531,0.000237500000039997,-0.003));
#549=CARTESIAN_POINT('',(0.02531,0.02252750074708,-0.003));
#550=CARTESIAN_POINT('',(0.02531,0.02252750074708,-0.003));
#551=CARTESIAN_POINT('',(0.0208100007470699,0.02252750074708,-0.003));
#552=CARTESIAN_POINT('',(0.0208100007470699,0.02252750074708,0.));
#553=CARTESIAN_POINT('',(0.0208100007470699,0.027027500000005,0.));
#554=CARTESIAN_POINT('',(0.0208100007470699,0.02252750074708,-0.003));
#555=CARTESIAN_POINT('',(0.0208100007470699,0.027027500000005,-0.003));
#556=CARTESIAN_POINT('',(0.0208100007470699,0.027027500000005,-0.003));
#557=CARTESIAN_POINT('',(0.00025499999999494,0.0270275,-0.003));
#558=CARTESIAN_POINT('',(0.00025499999999494,0.0270275,0.));
#559=CARTESIAN_POINT('',(-0.02030000074708,0.0270275,0.));
#560=CARTESIAN_POINT('',(0.00025499999999494,0.0270275,-0.003));
#561=CARTESIAN_POINT('',(-0.02030000074708,0.0270275,-0.003));
#562=CARTESIAN_POINT('',(-0.02030000074708,0.0270275,-0.003));
#563=CARTESIAN_POINT('',(-0.02030000074708,0.02252750074708,-0.003));
#564=CARTESIAN_POINT('',(-0.02030000074708,0.02252750074708,0.));
#565=CARTESIAN_POINT('',(-0.02030000074708,0.02252750074708,-0.003));
#566=CARTESIAN_POINT('',(0.000254999999997462,0.000237500000002499,-0.003));
#567=CARTESIAN_POINT('',(0.0193,-0.0205425,-0.003));
#568=CARTESIAN_POINT('',(0.02176,-0.0205425,-0.003));
#569=CARTESIAN_POINT('',(-0.0188,-0.0205525,-0.003));
#570=CARTESIAN_POINT('',(-0.01634,-0.0205525,-0.003));
#571=CARTESIAN_POINT('',(0.01927,0.0210175,-0.003));
#572=CARTESIAN_POINT('',(0.02173,0.0210175,-0.003));
#573=CARTESIAN_POINT('',(-0.01877,0.0210275,-0.003));
#574=CARTESIAN_POINT('',(-0.01631,0.0210275,-0.003));
#575=CARTESIAN_POINT('',(0.000254999999997462,0.000237500000002499,0.));
#576=CARTESIAN_POINT('',(-0.01877,0.0210275,0.));
#577=CARTESIAN_POINT('',(-0.01755,0.0210275,0.));
#578=CARTESIAN_POINT('',(0.0193,-0.0205425,0.));
#579=CARTESIAN_POINT('',(0.02052,-0.0205425,0.));
#580=CARTESIAN_POINT('',(-0.0188,-0.0205525,0.));
#581=CARTESIAN_POINT('',(-0.01758,-0.0205525,0.));
#582=CARTESIAN_POINT('',(0.01927,0.0210175,0.));
#583=CARTESIAN_POINT('',(0.02049,0.0210175,0.));
#584=CARTESIAN_POINT('',(-0.01877,0.0210275,-0.006));
#585=CARTESIAN_POINT('',(-0.01877,0.0210275,-0.006));
#586=CARTESIAN_POINT('',(-0.01631,0.0210275,-0.006));
#587=CARTESIAN_POINT('',(-0.01877,0.0210275,-0.006));
#588=CARTESIAN_POINT('',(-0.01877,0.0210275,-0.006));
#589=CARTESIAN_POINT('',(-0.01755,0.0210275,-0.006));
#590=CARTESIAN_POINT('',(0.000254999999997462,0.000237500000002499,-0.006));
#591=CARTESIAN_POINT('',(0.0193,-0.0205425,-0.006));
#592=CARTESIAN_POINT('',(0.0193,-0.0205425,-0.006));
#593=CARTESIAN_POINT('',(0.02176,-0.0205425,-0.006));
#594=CARTESIAN_POINT('',(0.0193,-0.0205425,-0.006));
#595=CARTESIAN_POINT('',(0.0193,-0.0205425,-0.006));
#596=CARTESIAN_POINT('',(0.02052,-0.0205425,-0.006));
#597=CARTESIAN_POINT('',(0.000254999999997462,0.000237500000002499,-0.006));
#598=CARTESIAN_POINT('',(-0.0188,-0.0205525,-0.006));
#599=CARTESIAN_POINT('',(-0.0188,-0.0205525,-0.006));
#600=CARTESIAN_POINT('',(-0.01634,-0.0205525,-0.006));
#601=CARTESIAN_POINT('',(-0.0188,-0.0205525,-0.006));
#602=CARTESIAN_POINT('',(-0.0188,-0.0205525,-0.006));
#603=CARTESIAN_POINT('',(-0.01758,-0.0205525,-0.006));
#604=CARTESIAN_POINT('',(0.000254999999997462,0.000237500000002499,-0.006));
#605=CARTESIAN_POINT('',(0.01927,0.0210175,-0.006));
#606=CARTESIAN_POINT('',(0.01927,0.0210175,-0.006));
#607=CARTESIAN_POINT('',(0.02173,0.0210175,-0.006));
#608=CARTESIAN_POINT('',(0.01927,0.0210175,-0.006));
#609=CARTESIAN_POINT('',(0.01927,0.0210175,-0.006));
#610=CARTESIAN_POINT('',(0.02049,0.0210175,-0.006));
#611=CARTESIAN_POINT('',(0.000254999999997462,0.000237500000002499,-0.006));
#612=MECHANICAL_DESIGN_GEOMETRIC_PRESENTATION_REPRESENTATION('',(#349),
#613);
#613=(
GEOMETRIC_REPRESENTATION_CONTEXT(3)
GLOBAL_UNCERTAINTY_ASSIGNED_CONTEXT((#614))
GLOBAL_UNIT_ASSIGNED_CONTEXT((#617,#616,#615))
REPRESENTATION_CONTEXT('Part 1','TOP_LEVEL_ASSEMBLY_PART')
);
#614=UNCERTAINTY_MEASURE_WITH_UNIT(LENGTH_MEASURE(1.E-8),#617,
'DISTANCE_ACCURACY_VALUE','Maximum Tolerance applied to model');
#615=(
NAMED_UNIT(*)
SI_UNIT($,.STERADIAN.)
SOLID_ANGLE_UNIT()
);
#616=(
NAMED_UNIT(*)
PLANE_ANGLE_UNIT()
SI_UNIT($,.RADIAN.)
);
#617=(
LENGTH_UNIT()
NAMED_UNIT(*)
SI_UNIT($,.METRE.)
);
#618=PRODUCT_DEFINITION_SHAPE('','',#619);
#619=PRODUCT_DEFINITION('','',#621,#620);
#620=PRODUCT_DEFINITION_CONTEXT('',#627,'design');
#621=PRODUCT_DEFINITION_FORMATION_WITH_SPECIFIED_SOURCE('','',#623,
 .NOT_KNOWN.);
#622=PRODUCT_RELATED_PRODUCT_CATEGORY('','',(#623));
#623=PRODUCT('Part 1','Part 1','Part 1',(#625));
#624=PRODUCT_CATEGORY('','');
#625=PRODUCT_CONTEXT('',#627,'mechanical');
#626=APPLICATION_PROTOCOL_DEFINITION('international standard',
'ap242_managed_model_based_3d_engineering',2020,#627);
#627=APPLICATION_CONTEXT('managed model based 3d engineering');
ENDSEC;
END-ISO-10303-21;
