ISO-10303-21;
HEADER;
/* Generated by software containing ST-Developer
 * from STEP Tools, Inc. (www.steptools.com) 
 */
/* OPTION: using custom renumber hook */

FILE_DESCRIPTION(
/* description */ ('STEP AP242 Edition 2',
'CAx-IF Rec.Pracs.---Representation and Presentation of Product Manufa
cturing Information (PMI)---4.0---2014-10-13',
'CAx-IF Rec.Pracs.---3D Tessellated Geometry---0.4---2014-09-14','2;1',
'CAx-IF Rec.Pracs.---User Defined Attributes---1.5---2016-08-15'),
/* implementation_level */ '2;1');

FILE_NAME(
/* name */ 'Part Studio 1 - Part 1',
/* time_stamp */ '2026-04-10T12:44:23Z',
/* author */ (''),
/* organization */ (''),
/* preprocessor_version */ 'ST-DEVELOPER v20',
/* originating_system */ 'ONSHAPE BY PTC INC, 1.213',
/* authorisation */ '  ');

FILE_SCHEMA (('AP242_MANAGED_MODEL_BASED_3D_ENGINEERING_MIM_LF { 1 0 10303 442 3 1 4 }'));
ENDSEC;

DATA;
#10=SHAPE_REPRESENTATION_RELATIONSHIP('','',#699,#11);
#11=ADVANCED_BREP_SHAPE_REPRESENTATION('',(#697),#1201);
#12=LINE('',#1033,#60);
#13=LINE('',#1036,#61);
#14=LINE('',#1038,#62);
#15=LINE('',#1040,#63);
#16=LINE('',#1044,#64);
#17=LINE('',#1048,#65);
#18=LINE('',#1050,#66);
#19=LINE('',#1052,#67);
#20=LINE('',#1056,#68);
#21=LINE('',#1060,#69);
#22=LINE('',#1062,#70);
#23=LINE('',#1064,#71);
#24=LINE('',#1068,#72);
#25=LINE('',#1072,#73);
#26=LINE('',#1074,#74);
#27=LINE('',#1076,#75);
#28=LINE('',#1081,#76);
#29=LINE('',#1085,#77);
#30=LINE('',#1087,#78);
#31=LINE('',#1089,#79);
#32=LINE('',#1091,#80);
#33=LINE('',#1095,#81);
#34=LINE('',#1099,#82);
#35=LINE('',#1101,#83);
#36=LINE('',#1103,#84);
#37=LINE('',#1107,#85);
#38=LINE('',#1111,#86);
#39=LINE('',#1113,#87);
#40=LINE('',#1115,#88);
#41=LINE('',#1119,#89);
#42=LINE('',#1123,#90);
#43=LINE('',#1124,#91);
#44=LINE('',#1130,#92);
#45=LINE('',#1135,#93);
#46=LINE('',#1139,#94);
#47=LINE('',#1143,#95);
#48=LINE('',#1150,#96);
#49=LINE('',#1151,#97);
#50=LINE('',#1153,#98);
#51=LINE('',#1155,#99);
#52=LINE('',#1159,#100);
#53=LINE('',#1161,#101);
#54=LINE('',#1163,#102);
#55=LINE('',#1167,#103);
#56=LINE('',#1169,#104);
#57=LINE('',#1171,#105);
#58=LINE('',#1175,#106);
#59=LINE('',#1177,#107);
#60=VECTOR('',#825,1.);
#61=VECTOR('',#826,1.);
#62=VECTOR('',#827,1.);
#63=VECTOR('',#828,1.);
#64=VECTOR('',#833,1.);
#65=VECTOR('',#838,1.);
#66=VECTOR('',#839,1.);
#67=VECTOR('',#840,1.);
#68=VECTOR('',#845,1.);
#69=VECTOR('',#850,1.);
#70=VECTOR('',#851,1.);
#71=VECTOR('',#852,1.);
#72=VECTOR('',#857,1.);
#73=VECTOR('',#862,1.);
#74=VECTOR('',#863,1.);
#75=VECTOR('',#864,1.);
#76=VECTOR('',#869,1.);
#77=VECTOR('',#872,1.);
#78=VECTOR('',#875,1.);
#79=VECTOR('',#876,1.);
#80=VECTOR('',#877,1.);
#81=VECTOR('',#882,1.);
#82=VECTOR('',#887,1.);
#83=VECTOR('',#888,1.);
#84=VECTOR('',#889,1.);
#85=VECTOR('',#894,1.);
#86=VECTOR('',#899,1.);
#87=VECTOR('',#900,1.);
#88=VECTOR('',#901,1.);
#89=VECTOR('',#906,1.);
#90=VECTOR('',#911,1.);
#91=VECTOR('',#912,1.);
#92=VECTOR('',#923,1.);
#93=VECTOR('',#926,1.);
#94=VECTOR('',#929,1.);
#95=VECTOR('',#932,1.);
#96=VECTOR('',#939,1.);
#97=VECTOR('',#940,1.);
#98=VECTOR('',#943,1.);
#99=VECTOR('',#944,1.);
#100=VECTOR('',#949,1.);
#101=VECTOR('',#952,1.);
#102=VECTOR('',#953,1.);
#103=VECTOR('',#958,1.);
#104=VECTOR('',#961,1.);
#105=VECTOR('',#962,1.);
#106=VECTOR('',#967,1.);
#107=VECTOR('',#970,1.);
#108=PLANE('',#707);
#109=PLANE('',#708);
#110=PLANE('',#716);
#111=PLANE('',#717);
#112=PLANE('',#719);
#113=PLANE('',#723);
#114=PLANE('',#727);
#115=PLANE('',#731);
#116=PLANE('',#735);
#117=PLANE('',#739);
#118=PLANE('',#743);
#119=PLANE('',#747);
#120=PLANE('',#751);
#121=PLANE('',#752);
#122=PLANE('',#759);
#123=PLANE('',#762);
#124=PLANE('',#765);
#125=PLANE('',#768);
#126=PLANE('',#769);
#127=PLANE('',#772);
#128=PLANE('',#773);
#129=PLANE('',#778);
#130=PLANE('',#779);
#131=PLANE('',#784);
#132=ORIENTED_EDGE('',*,*,#308,.T.);
#133=ORIENTED_EDGE('',*,*,#309,.F.);
#134=ORIENTED_EDGE('',*,*,#310,.F.);
#135=ORIENTED_EDGE('',*,*,#311,.T.);
#136=ORIENTED_EDGE('',*,*,#308,.F.);
#137=ORIENTED_EDGE('',*,*,#310,.T.);
#138=ORIENTED_EDGE('',*,*,#312,.T.);
#139=ORIENTED_EDGE('',*,*,#313,.T.);
#140=ORIENTED_EDGE('',*,*,#314,.F.);
#141=ORIENTED_EDGE('',*,*,#315,.F.);
#142=ORIENTED_EDGE('',*,*,#316,.T.);
#143=ORIENTED_EDGE('',*,*,#313,.F.);
#144=ORIENTED_EDGE('',*,*,#315,.T.);
#145=ORIENTED_EDGE('',*,*,#317,.T.);
#146=ORIENTED_EDGE('',*,*,#318,.F.);
#147=ORIENTED_EDGE('',*,*,#319,.F.);
#148=ORIENTED_EDGE('',*,*,#320,.T.);
#149=ORIENTED_EDGE('',*,*,#321,.T.);
#150=ORIENTED_EDGE('',*,*,#322,.T.);
#151=ORIENTED_EDGE('',*,*,#323,.F.);
#152=ORIENTED_EDGE('',*,*,#324,.F.);
#153=ORIENTED_EDGE('',*,*,#319,.T.);
#154=ORIENTED_EDGE('',*,*,#325,.F.);
#155=ORIENTED_EDGE('',*,*,#326,.F.);
#156=ORIENTED_EDGE('',*,*,#327,.T.);
#157=ORIENTED_EDGE('',*,*,#323,.T.);
#158=ORIENTED_EDGE('',*,*,#328,.T.);
#159=ORIENTED_EDGE('',*,*,#329,.F.);
#160=ORIENTED_EDGE('',*,*,#330,.F.);
#161=ORIENTED_EDGE('',*,*,#326,.T.);
#162=ORIENTED_EDGE('',*,*,#331,.F.);
#163=ORIENTED_EDGE('',*,*,#332,.F.);
#164=ORIENTED_EDGE('',*,*,#333,.T.);
#165=ORIENTED_EDGE('',*,*,#329,.T.);
#166=ORIENTED_EDGE('',*,*,#334,.T.);
#167=ORIENTED_EDGE('',*,*,#335,.F.);
#168=ORIENTED_EDGE('',*,*,#336,.F.);
#169=ORIENTED_EDGE('',*,*,#332,.T.);
#170=ORIENTED_EDGE('',*,*,#337,.F.);
#171=ORIENTED_EDGE('',*,*,#338,.F.);
#172=ORIENTED_EDGE('',*,*,#339,.T.);
#173=ORIENTED_EDGE('',*,*,#335,.T.);
#174=ORIENTED_EDGE('',*,*,#340,.F.);
#175=ORIENTED_EDGE('',*,*,#341,.F.);
#176=ORIENTED_EDGE('',*,*,#342,.T.);
#177=ORIENTED_EDGE('',*,*,#343,.T.);
#178=ORIENTED_EDGE('',*,*,#344,.T.);
#179=ORIENTED_EDGE('',*,*,#345,.F.);
#180=ORIENTED_EDGE('',*,*,#346,.F.);
#181=ORIENTED_EDGE('',*,*,#341,.T.);
#182=ORIENTED_EDGE('',*,*,#347,.F.);
#183=ORIENTED_EDGE('',*,*,#348,.F.);
#184=ORIENTED_EDGE('',*,*,#349,.T.);
#185=ORIENTED_EDGE('',*,*,#345,.T.);
#186=ORIENTED_EDGE('',*,*,#350,.T.);
#187=ORIENTED_EDGE('',*,*,#351,.F.);
#188=ORIENTED_EDGE('',*,*,#352,.F.);
#189=ORIENTED_EDGE('',*,*,#348,.T.);
#190=ORIENTED_EDGE('',*,*,#353,.F.);
#191=ORIENTED_EDGE('',*,*,#354,.F.);
#192=ORIENTED_EDGE('',*,*,#355,.T.);
#193=ORIENTED_EDGE('',*,*,#351,.T.);
#194=ORIENTED_EDGE('',*,*,#356,.T.);
#195=ORIENTED_EDGE('',*,*,#357,.F.);
#196=ORIENTED_EDGE('',*,*,#358,.F.);
#197=ORIENTED_EDGE('',*,*,#354,.T.);
#198=ORIENTED_EDGE('',*,*,#359,.F.);
#199=ORIENTED_EDGE('',*,*,#360,.F.);
#200=ORIENTED_EDGE('',*,*,#361,.T.);
#201=ORIENTED_EDGE('',*,*,#357,.T.);
#202=ORIENTED_EDGE('',*,*,#362,.T.);
#203=ORIENTED_EDGE('',*,*,#343,.F.);
#204=ORIENTED_EDGE('',*,*,#363,.F.);
#205=ORIENTED_EDGE('',*,*,#360,.T.);
#206=ORIENTED_EDGE('',*,*,#364,.T.);
#207=ORIENTED_EDGE('',*,*,#321,.F.);
#208=ORIENTED_EDGE('',*,*,#365,.F.);
#209=ORIENTED_EDGE('',*,*,#338,.T.);
#210=ORIENTED_EDGE('',*,*,#342,.F.);
#211=ORIENTED_EDGE('',*,*,#346,.T.);
#212=ORIENTED_EDGE('',*,*,#349,.F.);
#213=ORIENTED_EDGE('',*,*,#352,.T.);
#214=ORIENTED_EDGE('',*,*,#355,.F.);
#215=ORIENTED_EDGE('',*,*,#358,.T.);
#216=ORIENTED_EDGE('',*,*,#361,.F.);
#217=ORIENTED_EDGE('',*,*,#363,.T.);
#218=ORIENTED_EDGE('',*,*,#320,.F.);
#219=ORIENTED_EDGE('',*,*,#324,.T.);
#220=ORIENTED_EDGE('',*,*,#327,.F.);
#221=ORIENTED_EDGE('',*,*,#330,.T.);
#222=ORIENTED_EDGE('',*,*,#333,.F.);
#223=ORIENTED_EDGE('',*,*,#336,.T.);
#224=ORIENTED_EDGE('',*,*,#339,.F.);
#225=ORIENTED_EDGE('',*,*,#365,.T.);
#226=ORIENTED_EDGE('',*,*,#366,.T.);
#227=ORIENTED_EDGE('',*,*,#367,.F.);
#228=ORIENTED_EDGE('',*,*,#368,.T.);
#229=ORIENTED_EDGE('',*,*,#369,.F.);
#230=ORIENTED_EDGE('',*,*,#370,.T.);
#231=ORIENTED_EDGE('',*,*,#371,.F.);
#232=ORIENTED_EDGE('',*,*,#372,.T.);
#233=ORIENTED_EDGE('',*,*,#373,.F.);
#234=ORIENTED_EDGE('',*,*,#374,.F.);
#235=ORIENTED_EDGE('',*,*,#375,.F.);
#236=ORIENTED_EDGE('',*,*,#367,.T.);
#237=ORIENTED_EDGE('',*,*,#376,.T.);
#238=ORIENTED_EDGE('',*,*,#377,.T.);
#239=ORIENTED_EDGE('',*,*,#378,.F.);
#240=ORIENTED_EDGE('',*,*,#368,.F.);
#241=ORIENTED_EDGE('',*,*,#375,.T.);
#242=ORIENTED_EDGE('',*,*,#379,.F.);
#243=ORIENTED_EDGE('',*,*,#380,.F.);
#244=ORIENTED_EDGE('',*,*,#369,.T.);
#245=ORIENTED_EDGE('',*,*,#378,.T.);
#246=ORIENTED_EDGE('',*,*,#381,.T.);
#247=ORIENTED_EDGE('',*,*,#382,.F.);
#248=ORIENTED_EDGE('',*,*,#370,.F.);
#249=ORIENTED_EDGE('',*,*,#380,.T.);
#250=ORIENTED_EDGE('',*,*,#383,.F.);
#251=ORIENTED_EDGE('',*,*,#384,.F.);
#252=ORIENTED_EDGE('',*,*,#371,.T.);
#253=ORIENTED_EDGE('',*,*,#382,.T.);
#254=ORIENTED_EDGE('',*,*,#385,.T.);
#255=ORIENTED_EDGE('',*,*,#386,.F.);
#256=ORIENTED_EDGE('',*,*,#372,.F.);
#257=ORIENTED_EDGE('',*,*,#384,.T.);
#258=ORIENTED_EDGE('',*,*,#387,.F.);
#259=ORIENTED_EDGE('',*,*,#388,.F.);
#260=ORIENTED_EDGE('',*,*,#373,.T.);
#261=ORIENTED_EDGE('',*,*,#386,.T.);
#262=ORIENTED_EDGE('',*,*,#389,.T.);
#263=ORIENTED_EDGE('',*,*,#376,.F.);
#264=ORIENTED_EDGE('',*,*,#366,.F.);
#265=ORIENTED_EDGE('',*,*,#388,.T.);
#266=ORIENTED_EDGE('',*,*,#311,.F.);
#267=ORIENTED_EDGE('',*,*,#390,.F.);
#268=ORIENTED_EDGE('',*,*,#316,.F.);
#269=ORIENTED_EDGE('',*,*,#391,.F.);
#270=ORIENTED_EDGE('',*,*,#389,.F.);
#271=ORIENTED_EDGE('',*,*,#387,.T.);
#272=ORIENTED_EDGE('',*,*,#385,.F.);
#273=ORIENTED_EDGE('',*,*,#383,.T.);
#274=ORIENTED_EDGE('',*,*,#381,.F.);
#275=ORIENTED_EDGE('',*,*,#379,.T.);
#276=ORIENTED_EDGE('',*,*,#377,.F.);
#277=ORIENTED_EDGE('',*,*,#374,.T.);
#278=ORIENTED_EDGE('',*,*,#322,.F.);
#279=ORIENTED_EDGE('',*,*,#318,.T.);
#280=ORIENTED_EDGE('',*,*,#364,.F.);
#281=ORIENTED_EDGE('',*,*,#337,.T.);
#282=ORIENTED_EDGE('',*,*,#334,.F.);
#283=ORIENTED_EDGE('',*,*,#331,.T.);
#284=ORIENTED_EDGE('',*,*,#328,.F.);
#285=ORIENTED_EDGE('',*,*,#325,.T.);
#286=ORIENTED_EDGE('',*,*,#344,.F.);
#287=ORIENTED_EDGE('',*,*,#340,.T.);
#288=ORIENTED_EDGE('',*,*,#362,.F.);
#289=ORIENTED_EDGE('',*,*,#359,.T.);
#290=ORIENTED_EDGE('',*,*,#356,.F.);
#291=ORIENTED_EDGE('',*,*,#353,.T.);
#292=ORIENTED_EDGE('',*,*,#350,.F.);
#293=ORIENTED_EDGE('',*,*,#347,.T.);
#294=ORIENTED_EDGE('',*,*,#392,.F.);
#295=ORIENTED_EDGE('',*,*,#393,.T.);
#296=ORIENTED_EDGE('',*,*,#393,.F.);
#297=ORIENTED_EDGE('',*,*,#391,.T.);
#298=ORIENTED_EDGE('',*,*,#392,.T.);
#299=ORIENTED_EDGE('',*,*,#317,.F.);
#300=ORIENTED_EDGE('',*,*,#314,.T.);
#301=ORIENTED_EDGE('',*,*,#394,.F.);
#302=ORIENTED_EDGE('',*,*,#395,.T.);
#303=ORIENTED_EDGE('',*,*,#395,.F.);
#304=ORIENTED_EDGE('',*,*,#390,.T.);
#305=ORIENTED_EDGE('',*,*,#394,.T.);
#306=ORIENTED_EDGE('',*,*,#312,.F.);
#307=ORIENTED_EDGE('',*,*,#309,.T.);
#308=EDGE_CURVE('',#396,#396,#460,.T.);
#309=EDGE_CURVE('',#397,#397,#461,.T.);
#310=EDGE_CURVE('',#398,#398,#462,.T.);
#311=EDGE_CURVE('',#399,#399,#463,.T.);
#312=EDGE_CURVE('',#400,#400,#464,.T.);
#313=EDGE_CURVE('',#401,#401,#465,.T.);
#314=EDGE_CURVE('',#402,#402,#466,.T.);
#315=EDGE_CURVE('',#403,#403,#467,.T.);
#316=EDGE_CURVE('',#404,#404,#468,.T.);
#317=EDGE_CURVE('',#405,#405,#469,.T.);
#318=EDGE_CURVE('',#406,#407,#12,.T.);
#319=EDGE_CURVE('',#408,#406,#13,.T.);
#320=EDGE_CURVE('',#408,#409,#14,.T.);
#321=EDGE_CURVE('',#409,#407,#15,.T.);
#322=EDGE_CURVE('',#406,#410,#470,.T.);
#323=EDGE_CURVE('',#411,#410,#16,.T.);
#324=EDGE_CURVE('',#408,#411,#471,.T.);
#325=EDGE_CURVE('',#412,#410,#17,.T.);
#326=EDGE_CURVE('',#413,#412,#18,.T.);
#327=EDGE_CURVE('',#413,#411,#19,.T.);
#328=EDGE_CURVE('',#412,#414,#472,.T.);
#329=EDGE_CURVE('',#415,#414,#20,.T.);
#330=EDGE_CURVE('',#413,#415,#473,.T.);
#331=EDGE_CURVE('',#416,#414,#21,.T.);
#332=EDGE_CURVE('',#417,#416,#22,.T.);
#333=EDGE_CURVE('',#417,#415,#23,.T.);
#334=EDGE_CURVE('',#416,#418,#474,.T.);
#335=EDGE_CURVE('',#419,#418,#24,.T.);
#336=EDGE_CURVE('',#417,#419,#475,.T.);
#337=EDGE_CURVE('',#420,#418,#25,.T.);
#338=EDGE_CURVE('',#421,#420,#26,.T.);
#339=EDGE_CURVE('',#421,#419,#27,.T.);
#340=EDGE_CURVE('',#422,#423,#476,.T.);
#341=EDGE_CURVE('',#424,#422,#28,.T.);
#342=EDGE_CURVE('',#424,#425,#477,.T.);
#343=EDGE_CURVE('',#425,#423,#29,.T.);
#344=EDGE_CURVE('',#422,#426,#30,.T.);
#345=EDGE_CURVE('',#427,#426,#31,.T.);
#346=EDGE_CURVE('',#424,#427,#32,.T.);
#347=EDGE_CURVE('',#428,#426,#478,.T.);
#348=EDGE_CURVE('',#429,#428,#33,.T.);
#349=EDGE_CURVE('',#429,#427,#479,.T.);
#350=EDGE_CURVE('',#428,#430,#34,.T.);
#351=EDGE_CURVE('',#431,#430,#35,.T.);
#352=EDGE_CURVE('',#429,#431,#36,.T.);
#353=EDGE_CURVE('',#432,#430,#480,.T.);
#354=EDGE_CURVE('',#433,#432,#37,.T.);
#355=EDGE_CURVE('',#433,#431,#481,.T.);
#356=EDGE_CURVE('',#432,#434,#38,.T.);
#357=EDGE_CURVE('',#435,#434,#39,.T.);
#358=EDGE_CURVE('',#433,#435,#40,.T.);
#359=EDGE_CURVE('',#436,#434,#482,.T.);
#360=EDGE_CURVE('',#437,#436,#41,.T.);
#361=EDGE_CURVE('',#437,#435,#483,.T.);
#362=EDGE_CURVE('',#436,#423,#42,.T.);
#363=EDGE_CURVE('',#437,#425,#43,.T.);
#364=EDGE_CURVE('',#420,#407,#484,.T.);
#365=EDGE_CURVE('',#421,#409,#485,.T.);
#366=EDGE_CURVE('',#438,#439,#44,.T.);
#367=EDGE_CURVE('',#440,#439,#486,.T.);
#368=EDGE_CURVE('',#440,#441,#45,.T.);
#369=EDGE_CURVE('',#442,#441,#487,.T.);
#370=EDGE_CURVE('',#442,#443,#46,.T.);
#371=EDGE_CURVE('',#444,#443,#488,.T.);
#372=EDGE_CURVE('',#444,#445,#47,.T.);
#373=EDGE_CURVE('',#438,#445,#489,.T.);
#374=EDGE_CURVE('',#446,#447,#490,.T.);
#375=EDGE_CURVE('',#440,#446,#48,.T.);
#376=EDGE_CURVE('',#439,#447,#49,.T.);
#377=EDGE_CURVE('',#446,#448,#50,.T.);
#378=EDGE_CURVE('',#441,#448,#51,.T.);
#379=EDGE_CURVE('',#449,#448,#491,.T.);
#380=EDGE_CURVE('',#442,#449,#52,.T.);
#381=EDGE_CURVE('',#449,#450,#53,.T.);
#382=EDGE_CURVE('',#443,#450,#54,.T.);
#383=EDGE_CURVE('',#451,#450,#492,.T.);
#384=EDGE_CURVE('',#444,#451,#55,.T.);
#385=EDGE_CURVE('',#451,#452,#56,.T.);
#386=EDGE_CURVE('',#445,#452,#57,.T.);
#387=EDGE_CURVE('',#453,#452,#493,.T.);
#388=EDGE_CURVE('',#438,#453,#58,.T.);
#389=EDGE_CURVE('',#453,#447,#59,.T.);
#390=EDGE_CURVE('',#454,#454,#494,.T.);
#391=EDGE_CURVE('',#455,#455,#495,.T.);
#392=EDGE_CURVE('',#456,#456,#496,.T.);
#393=EDGE_CURVE('',#457,#457,#497,.T.);
#394=EDGE_CURVE('',#458,#458,#498,.T.);
#395=EDGE_CURVE('',#459,#459,#499,.T.);
#396=VERTEX_POINT('',#1006);
#397=VERTEX_POINT('',#1008);
#398=VERTEX_POINT('',#1011);
#399=VERTEX_POINT('',#1013);
#400=VERTEX_POINT('',#1017);
#401=VERTEX_POINT('',#1020);
#402=VERTEX_POINT('',#1022);
#403=VERTEX_POINT('',#1025);
#404=VERTEX_POINT('',#1027);
#405=VERTEX_POINT('',#1031);
#406=VERTEX_POINT('',#1034);
#407=VERTEX_POINT('',#1035);
#408=VERTEX_POINT('',#1037);
#409=VERTEX_POINT('',#1039);
#410=VERTEX_POINT('',#1043);
#411=VERTEX_POINT('',#1045);
#412=VERTEX_POINT('',#1049);
#413=VERTEX_POINT('',#1051);
#414=VERTEX_POINT('',#1055);
#415=VERTEX_POINT('',#1057);
#416=VERTEX_POINT('',#1061);
#417=VERTEX_POINT('',#1063);
#418=VERTEX_POINT('',#1067);
#419=VERTEX_POINT('',#1069);
#420=VERTEX_POINT('',#1073);
#421=VERTEX_POINT('',#1075);
#422=VERTEX_POINT('',#1079);
#423=VERTEX_POINT('',#1080);
#424=VERTEX_POINT('',#1082);
#425=VERTEX_POINT('',#1084);
#426=VERTEX_POINT('',#1088);
#427=VERTEX_POINT('',#1090);
#428=VERTEX_POINT('',#1094);
#429=VERTEX_POINT('',#1096);
#430=VERTEX_POINT('',#1100);
#431=VERTEX_POINT('',#1102);
#432=VERTEX_POINT('',#1106);
#433=VERTEX_POINT('',#1108);
#434=VERTEX_POINT('',#1112);
#435=VERTEX_POINT('',#1114);
#436=VERTEX_POINT('',#1118);
#437=VERTEX_POINT('',#1120);
#438=VERTEX_POINT('',#1131);
#439=VERTEX_POINT('',#1132);
#440=VERTEX_POINT('',#1134);
#441=VERTEX_POINT('',#1136);
#442=VERTEX_POINT('',#1138);
#443=VERTEX_POINT('',#1140);
#444=VERTEX_POINT('',#1142);
#445=VERTEX_POINT('',#1144);
#446=VERTEX_POINT('',#1148);
#447=VERTEX_POINT('',#1149);
#448=VERTEX_POINT('',#1154);
#449=VERTEX_POINT('',#1158);
#450=VERTEX_POINT('',#1162);
#451=VERTEX_POINT('',#1166);
#452=VERTEX_POINT('',#1170);
#453=VERTEX_POINT('',#1174);
#454=VERTEX_POINT('',#1180);
#455=VERTEX_POINT('',#1182);
#456=VERTEX_POINT('',#1186);
#457=VERTEX_POINT('',#1188);
#458=VERTEX_POINT('',#1194);
#459=VERTEX_POINT('',#1196);
#460=CIRCLE('',#702,0.0015);
#461=CIRCLE('',#703,0.0015);
#462=CIRCLE('',#705,0.0025);
#463=CIRCLE('',#706,0.0025);
#464=CIRCLE('',#709,0.0015);
#465=CIRCLE('',#711,0.0015);
#466=CIRCLE('',#712,0.0015);
#467=CIRCLE('',#714,0.0025);
#468=CIRCLE('',#715,0.0025);
#469=CIRCLE('',#718,0.0015);
#470=CIRCLE('',#721,0.0042999514578947);
#471=CIRCLE('',#722,0.0042999514578947);
#472=CIRCLE('',#725,0.0042999514578947);
#473=CIRCLE('',#726,0.0042999514578947);
#474=CIRCLE('',#729,0.00429995316422762);
#475=CIRCLE('',#730,0.00429995316422762);
#476=CIRCLE('',#733,0.00129995316444296);
#477=CIRCLE('',#734,0.00129995316444296);
#478=CIRCLE('',#737,0.0012999514577479);
#479=CIRCLE('',#738,0.0012999514577479);
#480=CIRCLE('',#741,0.0012999514577479);
#481=CIRCLE('',#742,0.0012999514577479);
#482=CIRCLE('',#745,0.00129995145752916);
#483=CIRCLE('',#746,0.00129995145752916);
#484=CIRCLE('',#749,0.00429995145723701);
#485=CIRCLE('',#750,0.00429995145723701);
#486=CIRCLE('',#753,0.0152999514578947);
#487=CIRCLE('',#754,0.015299951457237);
#488=CIRCLE('',#755,0.0152999531640857);
#489=CIRCLE('',#756,0.0152999514578947);
#490=CIRCLE('',#758,0.0152999514578947);
#491=CIRCLE('',#761,0.015299951457237);
#492=CIRCLE('',#764,0.0152999531640857);
#493=CIRCLE('',#767,0.0152999514578947);
#494=CIRCLE('',#770,0.0025);
#495=CIRCLE('',#771,0.0025);
#496=CIRCLE('',#774,0.0015);
#497=CIRCLE('',#775,0.0025);
#498=CIRCLE('',#780,0.0015);
#499=CIRCLE('',#781,0.0025);
#500=EDGE_LOOP('',(#132));
#501=EDGE_LOOP('',(#133));
#502=EDGE_LOOP('',(#134));
#503=EDGE_LOOP('',(#135));
#504=EDGE_LOOP('',(#136));
#505=EDGE_LOOP('',(#137));
#506=EDGE_LOOP('',(#138));
#507=EDGE_LOOP('',(#139));
#508=EDGE_LOOP('',(#140));
#509=EDGE_LOOP('',(#141));
#510=EDGE_LOOP('',(#142));
#511=EDGE_LOOP('',(#143));
#512=EDGE_LOOP('',(#144));
#513=EDGE_LOOP('',(#145));
#514=EDGE_LOOP('',(#146,#147,#148,#149));
#515=EDGE_LOOP('',(#150,#151,#152,#153));
#516=EDGE_LOOP('',(#154,#155,#156,#157));
#517=EDGE_LOOP('',(#158,#159,#160,#161));
#518=EDGE_LOOP('',(#162,#163,#164,#165));
#519=EDGE_LOOP('',(#166,#167,#168,#169));
#520=EDGE_LOOP('',(#170,#171,#172,#173));
#521=EDGE_LOOP('',(#174,#175,#176,#177));
#522=EDGE_LOOP('',(#178,#179,#180,#181));
#523=EDGE_LOOP('',(#182,#183,#184,#185));
#524=EDGE_LOOP('',(#186,#187,#188,#189));
#525=EDGE_LOOP('',(#190,#191,#192,#193));
#526=EDGE_LOOP('',(#194,#195,#196,#197));
#527=EDGE_LOOP('',(#198,#199,#200,#201));
#528=EDGE_LOOP('',(#202,#203,#204,#205));
#529=EDGE_LOOP('',(#206,#207,#208,#209));
#530=EDGE_LOOP('',(#210,#211,#212,#213,#214,#215,#216,#217));
#531=EDGE_LOOP('',(#218,#219,#220,#221,#222,#223,#224,#225));
#532=EDGE_LOOP('',(#226,#227,#228,#229,#230,#231,#232,#233));
#533=EDGE_LOOP('',(#234,#235,#236,#237));
#534=EDGE_LOOP('',(#238,#239,#240,#241));
#535=EDGE_LOOP('',(#242,#243,#244,#245));
#536=EDGE_LOOP('',(#246,#247,#248,#249));
#537=EDGE_LOOP('',(#250,#251,#252,#253));
#538=EDGE_LOOP('',(#254,#255,#256,#257));
#539=EDGE_LOOP('',(#258,#259,#260,#261));
#540=EDGE_LOOP('',(#262,#263,#264,#265));
#541=EDGE_LOOP('',(#266));
#542=EDGE_LOOP('',(#267));
#543=EDGE_LOOP('',(#268));
#544=EDGE_LOOP('',(#269));
#545=EDGE_LOOP('',(#270,#271,#272,#273,#274,#275,#276,#277));
#546=EDGE_LOOP('',(#278,#279,#280,#281,#282,#283,#284,#285));
#547=EDGE_LOOP('',(#286,#287,#288,#289,#290,#291,#292,#293));
#548=EDGE_LOOP('',(#294));
#549=EDGE_LOOP('',(#295));
#550=EDGE_LOOP('',(#296));
#551=EDGE_LOOP('',(#297));
#552=EDGE_LOOP('',(#298));
#553=EDGE_LOOP('',(#299));
#554=EDGE_LOOP('',(#300));
#555=EDGE_LOOP('',(#301));
#556=EDGE_LOOP('',(#302));
#557=EDGE_LOOP('',(#303));
#558=EDGE_LOOP('',(#304));
#559=EDGE_LOOP('',(#305));
#560=EDGE_LOOP('',(#306));
#561=EDGE_LOOP('',(#307));
#562=FACE_BOUND('',#500,.T.);
#563=FACE_BOUND('',#501,.T.);
#564=FACE_BOUND('',#502,.T.);
#565=FACE_BOUND('',#503,.T.);
#566=FACE_BOUND('',#504,.T.);
#567=FACE_BOUND('',#505,.T.);
#568=FACE_BOUND('',#506,.T.);
#569=FACE_BOUND('',#507,.T.);
#570=FACE_BOUND('',#508,.T.);
#571=FACE_BOUND('',#509,.T.);
#572=FACE_BOUND('',#510,.T.);
#573=FACE_BOUND('',#511,.T.);
#574=FACE_BOUND('',#512,.T.);
#575=FACE_BOUND('',#513,.T.);
#576=FACE_BOUND('',#514,.T.);
#577=FACE_BOUND('',#515,.T.);
#578=FACE_BOUND('',#516,.T.);
#579=FACE_BOUND('',#517,.T.);
#580=FACE_BOUND('',#518,.T.);
#581=FACE_BOUND('',#519,.T.);
#582=FACE_BOUND('',#520,.T.);
#583=FACE_BOUND('',#521,.T.);
#584=FACE_BOUND('',#522,.T.);
#585=FACE_BOUND('',#523,.T.);
#586=FACE_BOUND('',#524,.T.);
#587=FACE_BOUND('',#525,.T.);
#588=FACE_BOUND('',#526,.T.);
#589=FACE_BOUND('',#527,.T.);
#590=FACE_BOUND('',#528,.T.);
#591=FACE_BOUND('',#529,.T.);
#592=FACE_BOUND('',#530,.T.);
#593=FACE_BOUND('',#531,.T.);
#594=FACE_BOUND('',#532,.T.);
#595=FACE_BOUND('',#533,.T.);
#596=FACE_BOUND('',#534,.T.);
#597=FACE_BOUND('',#535,.T.);
#598=FACE_BOUND('',#536,.T.);
#599=FACE_BOUND('',#537,.T.);
#600=FACE_BOUND('',#538,.T.);
#601=FACE_BOUND('',#539,.T.);
#602=FACE_BOUND('',#540,.T.);
#603=FACE_BOUND('',#541,.T.);
#604=FACE_BOUND('',#542,.T.);
#605=FACE_BOUND('',#543,.T.);
#606=FACE_BOUND('',#544,.T.);
#607=FACE_BOUND('',#545,.T.);
#608=FACE_BOUND('',#546,.T.);
#609=FACE_BOUND('',#547,.T.);
#610=FACE_BOUND('',#548,.T.);
#611=FACE_BOUND('',#549,.T.);
#612=FACE_BOUND('',#550,.T.);
#613=FACE_BOUND('',#551,.T.);
#614=FACE_BOUND('',#552,.T.);
#615=FACE_BOUND('',#553,.T.);
#616=FACE_BOUND('',#554,.T.);
#617=FACE_BOUND('',#555,.T.);
#618=FACE_BOUND('',#556,.T.);
#619=FACE_BOUND('',#557,.T.);
#620=FACE_BOUND('',#558,.T.);
#621=FACE_BOUND('',#559,.T.);
#622=FACE_BOUND('',#560,.T.);
#623=FACE_BOUND('',#561,.T.);
#624=CYLINDRICAL_SURFACE('',#701,0.0015);
#625=CYLINDRICAL_SURFACE('',#704,0.0025);
#626=CYLINDRICAL_SURFACE('',#710,0.0015);
#627=CYLINDRICAL_SURFACE('',#713,0.0025);
#628=CYLINDRICAL_SURFACE('',#720,0.0042999514578947);
#629=CYLINDRICAL_SURFACE('',#724,0.0042999514578947);
#630=CYLINDRICAL_SURFACE('',#728,0.00429995316422762);
#631=CYLINDRICAL_SURFACE('',#732,0.00129995316444296);
#632=CYLINDRICAL_SURFACE('',#736,0.0012999514577479);
#633=CYLINDRICAL_SURFACE('',#740,0.0012999514577479);
#634=CYLINDRICAL_SURFACE('',#744,0.00129995145752916);
#635=CYLINDRICAL_SURFACE('',#748,0.00429995145723701);
#636=CYLINDRICAL_SURFACE('',#757,0.0152999514578947);
#637=CYLINDRICAL_SURFACE('',#760,0.015299951457237);
#638=CYLINDRICAL_SURFACE('',#763,0.0152999531640857);
#639=CYLINDRICAL_SURFACE('',#766,0.0152999514578947);
#640=CYLINDRICAL_SURFACE('',#776,0.0025);
#641=CYLINDRICAL_SURFACE('',#777,0.0015);
#642=CYLINDRICAL_SURFACE('',#782,0.0025);
#643=CYLINDRICAL_SURFACE('',#783,0.0015);
#644=ADVANCED_FACE('',(#562,#563),#624,.F.);
#645=ADVANCED_FACE('',(#564,#565),#625,.T.);
#646=ADVANCED_FACE('',(#566,#567),#108,.T.);
#647=ADVANCED_FACE('',(#568),#109,.T.);
#648=ADVANCED_FACE('',(#569,#570),#626,.F.);
#649=ADVANCED_FACE('',(#571,#572),#627,.T.);
#650=ADVANCED_FACE('',(#573,#574),#110,.T.);
#651=ADVANCED_FACE('',(#575),#111,.T.);
#652=ADVANCED_FACE('',(#576),#112,.T.);
#653=ADVANCED_FACE('',(#577),#628,.T.);
#654=ADVANCED_FACE('',(#578),#113,.T.);
#655=ADVANCED_FACE('',(#579),#629,.T.);
#656=ADVANCED_FACE('',(#580),#114,.T.);
#657=ADVANCED_FACE('',(#581),#630,.T.);
#658=ADVANCED_FACE('',(#582),#115,.T.);
#659=ADVANCED_FACE('',(#583),#631,.F.);
#660=ADVANCED_FACE('',(#584),#116,.F.);
#661=ADVANCED_FACE('',(#585),#632,.F.);
#662=ADVANCED_FACE('',(#586),#117,.F.);
#663=ADVANCED_FACE('',(#587),#633,.F.);
#664=ADVANCED_FACE('',(#588),#118,.F.);
#665=ADVANCED_FACE('',(#589),#634,.F.);
#666=ADVANCED_FACE('',(#590),#119,.F.);
#667=ADVANCED_FACE('',(#591),#635,.T.);
#668=ADVANCED_FACE('',(#592,#593),#120,.T.);
#669=ADVANCED_FACE('',(#594),#121,.F.);
#670=ADVANCED_FACE('',(#595),#636,.T.);
#671=ADVANCED_FACE('',(#596),#122,.F.);
#672=ADVANCED_FACE('',(#597),#637,.T.);
#673=ADVANCED_FACE('',(#598),#123,.F.);
#674=ADVANCED_FACE('',(#599),#638,.T.);
#675=ADVANCED_FACE('',(#600),#124,.F.);
#676=ADVANCED_FACE('',(#601),#639,.T.);
#677=ADVANCED_FACE('',(#602),#125,.F.);
#678=ADVANCED_FACE('',(#603,#604,#605,#606,#607,#608),#126,.T.);
#679=ADVANCED_FACE('',(#609),#127,.T.);
#680=ADVANCED_FACE('',(#610,#611),#128,.T.);
#681=ADVANCED_FACE('',(#612,#613),#640,.T.);
#682=ADVANCED_FACE('',(#614,#615),#641,.F.);
#683=ADVANCED_FACE('',(#616),#129,.T.);
#684=ADVANCED_FACE('',(#617,#618),#130,.T.);
#685=ADVANCED_FACE('',(#619,#620),#642,.T.);
#686=ADVANCED_FACE('',(#621,#622),#643,.F.);
#687=ADVANCED_FACE('',(#623),#131,.T.);
#688=CLOSED_SHELL('',(#644,#645,#646,#647,#648,#649,#650,#651,#652,#653,
#654,#655,#656,#657,#658,#659,#660,#661,#662,#663,#664,#665,#666,#667,#668,
#669,#670,#671,#672,#673,#674,#675,#676,#677,#678,#679,#680,#681,#682,#683,
#684,#685,#686,#687));
#689=STYLED_ITEM('',(#690),#697);
#690=PRESENTATION_STYLE_ASSIGNMENT((#691));
#691=SURFACE_STYLE_USAGE(.BOTH.,#692);
#692=SURFACE_SIDE_STYLE('',(#693));
#693=SURFACE_STYLE_FILL_AREA(#694);
#694=FILL_AREA_STYLE('',(#695));
#695=FILL_AREA_STYLE_COLOUR('',#696);
#696=COLOUR_RGB('',0.901960784313726,0.901960784313726,0.901960784313726);
#697=MANIFOLD_SOLID_BREP('Part 1',#688);
#698=SHAPE_DEFINITION_REPRESENTATION(#1206,#699);
#699=SHAPE_REPRESENTATION('Part 1',(#700),#1201);
#700=AXIS2_PLACEMENT_3D('',#1003,#785,#786);
#701=AXIS2_PLACEMENT_3D('',#1004,#787,#788);
#702=AXIS2_PLACEMENT_3D('',#1005,#789,#790);
#703=AXIS2_PLACEMENT_3D('',#1007,#791,#792);
#704=AXIS2_PLACEMENT_3D('',#1009,#793,#794);
#705=AXIS2_PLACEMENT_3D('',#1010,#795,#796);
#706=AXIS2_PLACEMENT_3D('',#1012,#797,#798);
#707=AXIS2_PLACEMENT_3D('',#1014,#799,#800);
#708=AXIS2_PLACEMENT_3D('',#1015,#801,#802);
#709=AXIS2_PLACEMENT_3D('',#1016,#803,#804);
#710=AXIS2_PLACEMENT_3D('',#1018,#805,#806);
#711=AXIS2_PLACEMENT_3D('',#1019,#807,#808);
#712=AXIS2_PLACEMENT_3D('',#1021,#809,#810);
#713=AXIS2_PLACEMENT_3D('',#1023,#811,#812);
#714=AXIS2_PLACEMENT_3D('',#1024,#813,#814);
#715=AXIS2_PLACEMENT_3D('',#1026,#815,#816);
#716=AXIS2_PLACEMENT_3D('',#1028,#817,#818);
#717=AXIS2_PLACEMENT_3D('',#1029,#819,#820);
#718=AXIS2_PLACEMENT_3D('',#1030,#821,#822);
#719=AXIS2_PLACEMENT_3D('',#1032,#823,#824);
#720=AXIS2_PLACEMENT_3D('',#1041,#829,#830);
#721=AXIS2_PLACEMENT_3D('',#1042,#831,#832);
#722=AXIS2_PLACEMENT_3D('',#1046,#834,#835);
#723=AXIS2_PLACEMENT_3D('',#1047,#836,#837);
#724=AXIS2_PLACEMENT_3D('',#1053,#841,#842);
#725=AXIS2_PLACEMENT_3D('',#1054,#843,#844);
#726=AXIS2_PLACEMENT_3D('',#1058,#846,#847);
#727=AXIS2_PLACEMENT_3D('',#1059,#848,#849);
#728=AXIS2_PLACEMENT_3D('',#1065,#853,#854);
#729=AXIS2_PLACEMENT_3D('',#1066,#855,#856);
#730=AXIS2_PLACEMENT_3D('',#1070,#858,#859);
#731=AXIS2_PLACEMENT_3D('',#1071,#860,#861);
#732=AXIS2_PLACEMENT_3D('',#1077,#865,#866);
#733=AXIS2_PLACEMENT_3D('',#1078,#867,#868);
#734=AXIS2_PLACEMENT_3D('',#1083,#870,#871);
#735=AXIS2_PLACEMENT_3D('',#1086,#873,#874);
#736=AXIS2_PLACEMENT_3D('',#1092,#878,#879);
#737=AXIS2_PLACEMENT_3D('',#1093,#880,#881);
#738=AXIS2_PLACEMENT_3D('',#1097,#883,#884);
#739=AXIS2_PLACEMENT_3D('',#1098,#885,#886);
#740=AXIS2_PLACEMENT_3D('',#1104,#890,#891);
#741=AXIS2_PLACEMENT_3D('',#1105,#892,#893);
#742=AXIS2_PLACEMENT_3D('',#1109,#895,#896);
#743=AXIS2_PLACEMENT_3D('',#1110,#897,#898);
#744=AXIS2_PLACEMENT_3D('',#1116,#902,#903);
#745=AXIS2_PLACEMENT_3D('',#1117,#904,#905);
#746=AXIS2_PLACEMENT_3D('',#1121,#907,#908);
#747=AXIS2_PLACEMENT_3D('',#1122,#909,#910);
#748=AXIS2_PLACEMENT_3D('',#1125,#913,#914);
#749=AXIS2_PLACEMENT_3D('',#1126,#915,#916);
#750=AXIS2_PLACEMENT_3D('',#1127,#917,#918);
#751=AXIS2_PLACEMENT_3D('',#1128,#919,#920);
#752=AXIS2_PLACEMENT_3D('',#1129,#921,#922);
#753=AXIS2_PLACEMENT_3D('',#1133,#924,#925);
#754=AXIS2_PLACEMENT_3D('',#1137,#927,#928);
#755=AXIS2_PLACEMENT_3D('',#1141,#930,#931);
#756=AXIS2_PLACEMENT_3D('',#1145,#933,#934);
#757=AXIS2_PLACEMENT_3D('',#1146,#935,#936);
#758=AXIS2_PLACEMENT_3D('',#1147,#937,#938);
#759=AXIS2_PLACEMENT_3D('',#1152,#941,#942);
#760=AXIS2_PLACEMENT_3D('',#1156,#945,#946);
#761=AXIS2_PLACEMENT_3D('',#1157,#947,#948);
#762=AXIS2_PLACEMENT_3D('',#1160,#950,#951);
#763=AXIS2_PLACEMENT_3D('',#1164,#954,#955);
#764=AXIS2_PLACEMENT_3D('',#1165,#956,#957);
#765=AXIS2_PLACEMENT_3D('',#1168,#959,#960);
#766=AXIS2_PLACEMENT_3D('',#1172,#963,#964);
#767=AXIS2_PLACEMENT_3D('',#1173,#965,#966);
#768=AXIS2_PLACEMENT_3D('',#1176,#968,#969);
#769=AXIS2_PLACEMENT_3D('',#1178,#971,#972);
#770=AXIS2_PLACEMENT_3D('',#1179,#973,#974);
#771=AXIS2_PLACEMENT_3D('',#1181,#975,#976);
#772=AXIS2_PLACEMENT_3D('',#1183,#977,#978);
#773=AXIS2_PLACEMENT_3D('',#1184,#979,#980);
#774=AXIS2_PLACEMENT_3D('',#1185,#981,#982);
#775=AXIS2_PLACEMENT_3D('',#1187,#983,#984);
#776=AXIS2_PLACEMENT_3D('',#1189,#985,#986);
#777=AXIS2_PLACEMENT_3D('',#1190,#987,#988);
#778=AXIS2_PLACEMENT_3D('',#1191,#989,#990);
#779=AXIS2_PLACEMENT_3D('',#1192,#991,#992);
#780=AXIS2_PLACEMENT_3D('',#1193,#993,#994);
#781=AXIS2_PLACEMENT_3D('',#1195,#995,#996);
#782=AXIS2_PLACEMENT_3D('',#1197,#997,#998);
#783=AXIS2_PLACEMENT_3D('',#1198,#999,#1000);
#784=AXIS2_PLACEMENT_3D('',#1199,#1001,#1002);
#785=DIRECTION('',(0.,0.,1.));
#786=DIRECTION('',(1.,0.,0.));
#787=DIRECTION('',(0.,0.,-1.));
#788=DIRECTION('',(-1.,0.,0.));
#789=DIRECTION('',(0.,0.,1.));
#790=DIRECTION('',(1.,0.,0.));
#791=DIRECTION('',(0.,0.,1.));
#792=DIRECTION('',(1.,0.,0.));
#793=DIRECTION('',(0.,0.,-1.));
#794=DIRECTION('',(-1.,0.,0.));
#795=DIRECTION('',(0.,0.,1.));
#796=DIRECTION('',(1.,0.,0.));
#797=DIRECTION('',(0.,0.,1.));
#798=DIRECTION('',(1.,0.,0.));
#799=DIRECTION('',(0.,0.,1.));
#800=DIRECTION('',(1.,0.,0.));
#801=DIRECTION('',(0.,0.,1.));
#802=DIRECTION('',(1.,0.,0.));
#803=DIRECTION('',(0.,0.,1.));
#804=DIRECTION('',(1.,0.,0.));
#805=DIRECTION('',(0.,0.,-1.));
#806=DIRECTION('',(-1.,0.,0.));
#807=DIRECTION('',(0.,0.,1.));
#808=DIRECTION('',(1.,0.,0.));
#809=DIRECTION('',(0.,0.,1.));
#810=DIRECTION('',(1.,0.,0.));
#811=DIRECTION('',(0.,0.,-1.));
#812=DIRECTION('',(-1.,0.,0.));
#813=DIRECTION('',(0.,0.,1.));
#814=DIRECTION('',(1.,0.,0.));
#815=DIRECTION('',(0.,0.,1.));
#816=DIRECTION('',(1.,0.,0.));
#817=DIRECTION('',(0.,0.,1.));
#818=DIRECTION('',(1.,0.,0.));
#819=DIRECTION('',(0.,0.,1.));
#820=DIRECTION('',(1.,0.,0.));
#821=DIRECTION('',(0.,0.,1.));
#822=DIRECTION('',(1.,0.,0.));
#823=DIRECTION('',(0.,-1.,0.));
#824=DIRECTION('',(0.,0.,-1.));
#825=DIRECTION('',(-1.,0.,0.));
#826=DIRECTION('',(0.,0.,-1.));
#827=DIRECTION('',(-1.,0.,0.));
#828=DIRECTION('',(0.,0.,-1.));
#829=DIRECTION('',(0.,0.,-1.));
#830=DIRECTION('',(-1.,0.,0.));
#831=DIRECTION('',(0.,0.,1.));
#832=DIRECTION('',(1.,0.,0.));
#833=DIRECTION('',(0.,0.,-1.));
#834=DIRECTION('',(0.,0.,1.));
#835=DIRECTION('',(1.,0.,0.));
#836=DIRECTION('',(1.,0.,0.));
#837=DIRECTION('',(0.,0.,-1.));
#838=DIRECTION('',(0.,-1.,0.));
#839=DIRECTION('',(0.,0.,-1.));
#840=DIRECTION('',(0.,-1.,0.));
#841=DIRECTION('',(0.,0.,-1.));
#842=DIRECTION('',(-1.,0.,0.));
#843=DIRECTION('',(0.,0.,1.));
#844=DIRECTION('',(1.,0.,0.));
#845=DIRECTION('',(0.,0.,-1.));
#846=DIRECTION('',(0.,0.,1.));
#847=DIRECTION('',(1.,0.,0.));
#848=DIRECTION('',(0.,1.,0.));
#849=DIRECTION('',(0.,0.,1.));
#850=DIRECTION('',(1.,0.,0.));
#851=DIRECTION('',(0.,0.,-1.));
#852=DIRECTION('',(1.,0.,0.));
#853=DIRECTION('',(0.,0.,-1.));
#854=DIRECTION('',(-1.,0.,0.));
#855=DIRECTION('',(0.,0.,1.));
#856=DIRECTION('',(1.,0.,0.));
#857=DIRECTION('',(0.,0.,-1.));
#858=DIRECTION('',(0.,0.,1.));
#859=DIRECTION('',(1.,0.,0.));
#860=DIRECTION('',(-1.,0.,0.));
#861=DIRECTION('',(0.,0.,1.));
#862=DIRECTION('',(0.,1.,0.));
#863=DIRECTION('',(0.,0.,-1.));
#864=DIRECTION('',(0.,1.,0.));
#865=DIRECTION('',(0.,0.,-1.));
#866=DIRECTION('',(-1.,0.,0.));
#867=DIRECTION('',(0.,0.,1.));
#868=DIRECTION('',(1.,0.,0.));
#869=DIRECTION('',(0.,0.,-1.));
#870=DIRECTION('',(0.,0.,1.));
#871=DIRECTION('',(1.,0.,0.));
#872=DIRECTION('',(0.,0.,-1.));
#873=DIRECTION('',(0.,1.,0.));
#874=DIRECTION('',(0.,0.,1.));
#875=DIRECTION('',(1.,0.,0.));
#876=DIRECTION('',(0.,0.,-1.));
#877=DIRECTION('',(1.,0.,0.));
#878=DIRECTION('',(0.,0.,-1.));
#879=DIRECTION('',(-1.,0.,0.));
#880=DIRECTION('',(0.,0.,1.));
#881=DIRECTION('',(1.,0.,0.));
#882=DIRECTION('',(0.,0.,-1.));
#883=DIRECTION('',(0.,0.,1.));
#884=DIRECTION('',(1.,0.,0.));
#885=DIRECTION('',(1.,0.,0.));
#886=DIRECTION('',(0.,0.,-1.));
#887=DIRECTION('',(0.,-1.,0.));
#888=DIRECTION('',(0.,0.,-1.));
#889=DIRECTION('',(0.,-1.,0.));
#890=DIRECTION('',(0.,0.,-1.));
#891=DIRECTION('',(-1.,0.,0.));
#892=DIRECTION('',(0.,0.,1.));
#893=DIRECTION('',(1.,0.,0.));
#894=DIRECTION('',(0.,0.,-1.));
#895=DIRECTION('',(0.,0.,1.));
#896=DIRECTION('',(1.,0.,0.));
#897=DIRECTION('',(0.,-1.,0.));
#898=DIRECTION('',(0.,0.,-1.));
#899=DIRECTION('',(-1.,0.,0.));
#900=DIRECTION('',(0.,0.,-1.));
#901=DIRECTION('',(-1.,0.,0.));
#902=DIRECTION('',(0.,0.,-1.));
#903=DIRECTION('',(-1.,0.,0.));
#904=DIRECTION('',(0.,0.,1.));
#905=DIRECTION('',(1.,0.,0.));
#906=DIRECTION('',(0.,0.,-1.));
#907=DIRECTION('',(0.,0.,1.));
#908=DIRECTION('',(1.,0.,0.));
#909=DIRECTION('',(-1.,0.,0.));
#910=DIRECTION('',(0.,0.,1.));
#911=DIRECTION('',(0.,1.,0.));
#912=DIRECTION('',(0.,1.,0.));
#913=DIRECTION('',(0.,0.,-1.));
#914=DIRECTION('',(-1.,0.,0.));
#915=DIRECTION('',(0.,0.,1.));
#916=DIRECTION('',(1.,0.,0.));
#917=DIRECTION('',(0.,0.,1.));
#918=DIRECTION('',(1.,0.,0.));
#919=DIRECTION('',(0.,0.,1.));
#920=DIRECTION('',(1.,0.,0.));
#921=DIRECTION('',(0.,0.,1.));
#922=DIRECTION('',(1.,0.,0.));
#923=DIRECTION('',(0.,-1.,0.));
#924=DIRECTION('',(0.,0.,1.));
#925=DIRECTION('',(1.,0.,0.));
#926=DIRECTION('',(-1.,0.,0.));
#927=DIRECTION('',(0.,0.,1.));
#928=DIRECTION('',(1.,0.,0.));
#929=DIRECTION('',(0.,1.,0.));
#930=DIRECTION('',(0.,0.,1.));
#931=DIRECTION('',(1.,0.,0.));
#932=DIRECTION('',(1.,0.,0.));
#933=DIRECTION('',(0.,0.,1.));
#934=DIRECTION('',(1.,0.,0.));
#935=DIRECTION('',(0.,0.,1.));
#936=DIRECTION('',(1.,0.,0.));
#937=DIRECTION('',(0.,0.,1.));
#938=DIRECTION('',(1.,0.,0.));
#939=DIRECTION('',(0.,0.,1.));
#940=DIRECTION('',(0.,0.,1.));
#941=DIRECTION('',(0.,1.,0.));
#942=DIRECTION('',(0.,0.,1.));
#943=DIRECTION('',(-1.,0.,0.));
#944=DIRECTION('',(0.,0.,1.));
#945=DIRECTION('',(0.,0.,1.));
#946=DIRECTION('',(1.,0.,0.));
#947=DIRECTION('',(0.,0.,1.));
#948=DIRECTION('',(1.,0.,0.));
#949=DIRECTION('',(0.,0.,1.));
#950=DIRECTION('',(1.,0.,0.));
#951=DIRECTION('',(0.,0.,-1.));
#952=DIRECTION('',(0.,1.,0.));
#953=DIRECTION('',(0.,0.,1.));
#954=DIRECTION('',(0.,0.,1.));
#955=DIRECTION('',(1.,0.,0.));
#956=DIRECTION('',(0.,0.,1.));
#957=DIRECTION('',(1.,0.,0.));
#958=DIRECTION('',(0.,0.,1.));
#959=DIRECTION('',(0.,-1.,0.));
#960=DIRECTION('',(0.,0.,-1.));
#961=DIRECTION('',(1.,0.,0.));
#962=DIRECTION('',(0.,0.,1.));
#963=DIRECTION('',(0.,0.,1.));
#964=DIRECTION('',(1.,0.,0.));
#965=DIRECTION('',(0.,0.,1.));
#966=DIRECTION('',(1.,0.,0.));
#967=DIRECTION('',(0.,0.,1.));
#968=DIRECTION('',(-1.,0.,0.));
#969=DIRECTION('',(0.,0.,1.));
#970=DIRECTION('',(0.,-1.,0.));
#971=DIRECTION('',(0.,0.,1.));
#972=DIRECTION('',(1.,0.,0.));
#973=DIRECTION('',(0.,0.,1.));
#974=DIRECTION('',(1.,0.,0.));
#975=DIRECTION('',(0.,0.,1.));
#976=DIRECTION('',(1.,0.,0.));
#977=DIRECTION('',(0.,0.,1.));
#978=DIRECTION('',(1.,0.,0.));
#979=DIRECTION('',(0.,0.,1.));
#980=DIRECTION('',(1.,0.,0.));
#981=DIRECTION('',(0.,0.,1.));
#982=DIRECTION('',(1.,0.,0.));
#983=DIRECTION('',(0.,0.,1.));
#984=DIRECTION('',(1.,0.,0.));
#985=DIRECTION('',(0.,0.,-1.));
#986=DIRECTION('',(-1.,0.,0.));
#987=DIRECTION('',(0.,0.,-1.));
#988=DIRECTION('',(-1.,0.,0.));
#989=DIRECTION('',(0.,0.,1.));
#990=DIRECTION('',(1.,0.,0.));
#991=DIRECTION('',(0.,0.,1.));
#992=DIRECTION('',(1.,0.,0.));
#993=DIRECTION('',(0.,0.,1.));
#994=DIRECTION('',(1.,0.,0.));
#995=DIRECTION('',(0.,0.,1.));
#996=DIRECTION('',(1.,0.,0.));
#997=DIRECTION('',(0.,0.,-1.));
#998=DIRECTION('',(-1.,0.,0.));
#999=DIRECTION('',(0.,0.,-1.));
#1000=DIRECTION('',(-1.,0.,0.));
#1001=DIRECTION('',(0.,0.,1.));
#1002=DIRECTION('',(1.,0.,0.));
#1003=CARTESIAN_POINT('',(0.,0.,0.));
#1004=CARTESIAN_POINT('',(-0.030603087771143,0.0220332700653815,0.0089));
#1005=CARTESIAN_POINT('',(-0.030603087771143,0.0220332700653815,0.0089));
#1006=CARTESIAN_POINT('',(-0.029103087771143,0.0220332700653815,0.0089));
#1007=CARTESIAN_POINT('',(-0.030603087771143,0.0220332700653815,0.));
#1008=CARTESIAN_POINT('',(-0.029103087771143,0.0220332700653815,0.));
#1009=CARTESIAN_POINT('',(-0.030603087771143,0.0220332700653815,0.0089));
#1010=CARTESIAN_POINT('',(-0.030603087771143,0.0220332700653815,0.0089));
#1011=CARTESIAN_POINT('',(-0.028103087771143,0.0220332700653815,0.0089));
#1012=CARTESIAN_POINT('',(-0.030603087771143,0.0220332700653815,0.));
#1013=CARTESIAN_POINT('',(-0.028103087771143,0.0220332700653815,0.));
#1014=CARTESIAN_POINT('',(-7.90000026515414E-6,-1.50655000156625E-5,0.0089));
#1015=CARTESIAN_POINT('',(-7.90000026515414E-6,-1.50655000156625E-5,0.));
#1016=CARTESIAN_POINT('',(0.0306126836906073,-0.0220380068513686,0.));
#1017=CARTESIAN_POINT('',(0.0321126836906072,-0.0220380068513686,0.));
#1018=CARTESIAN_POINT('',(0.0306041589397925,0.022033147939748,0.0089));
#1019=CARTESIAN_POINT('',(0.0306041589397925,0.022033147939748,0.0089));
#1020=CARTESIAN_POINT('',(0.0321041589397925,0.022033147939748,0.0089));
#1021=CARTESIAN_POINT('',(0.0306041589397925,0.022033147939748,0.));
#1022=CARTESIAN_POINT('',(0.0321041589397925,0.022033147939748,0.));
#1023=CARTESIAN_POINT('',(0.0306041589397925,0.0220164006022062,0.0089));
#1024=CARTESIAN_POINT('',(0.0306041589397925,0.0220164006022062,0.0089));
#1025=CARTESIAN_POINT('',(0.0331041589397925,0.0220164006022062,0.0089));
#1026=CARTESIAN_POINT('',(0.0306041589397925,0.0220164006022062,0.));
#1027=CARTESIAN_POINT('',(0.0331041589397925,0.0220164006022062,0.));
#1028=CARTESIAN_POINT('',(-7.90000026515414E-6,-1.50655000156625E-5,0.0089));
#1029=CARTESIAN_POINT('',(-7.90000026515414E-6,-1.50655000156625E-5,0.));
#1030=CARTESIAN_POINT('',(-0.0306115852717176,-0.0220549052715504,0.));
#1031=CARTESIAN_POINT('',(-0.0291115852717176,-0.0220549052715504,0.));
#1032=CARTESIAN_POINT('',(-7.90000187645551E-6,-0.0212048809999008,0.0014));
#1033=CARTESIAN_POINT('',(-7.90000187645551E-6,-0.0212048809999008,0.));
#1034=CARTESIAN_POINT('',(0.025445809542052,-0.0212048809999467,0.));
#1035=CARTESIAN_POINT('',(-0.0254616095458049,-0.021204881000437,0.));
#1036=CARTESIAN_POINT('',(0.025445809542052,-0.0212048809999467,0.0014));
#1037=CARTESIAN_POINT('',(0.025445809542052,-0.0212048809999467,0.0014));
#1038=CARTESIAN_POINT('',(-7.90000187645551E-6,-0.0212048809999008,0.0014));
#1039=CARTESIAN_POINT('',(-0.0254616095458049,-0.021204881000437,0.0014));
#1040=CARTESIAN_POINT('',(-0.0254616095458049,-0.021204881000437,0.0014));
#1041=CARTESIAN_POINT('',(0.025445809542052,-0.016904929542052,0.0014));
#1042=CARTESIAN_POINT('',(0.025445809542052,-0.016904929542052,0.));
#1043=CARTESIAN_POINT('',(0.0297457609999467,-0.016904929542052,0.));
#1044=CARTESIAN_POINT('',(0.0297457609999467,-0.016904929542052,0.0014));
#1045=CARTESIAN_POINT('',(0.0297457609999467,-0.016904929542052,0.0014));
#1046=CARTESIAN_POINT('',(0.025445809542052,-0.016904929542052,0.0014));
#1047=CARTESIAN_POINT('',(0.0297457609999467,-1.50655000000014E-5,0.0014));
#1048=CARTESIAN_POINT('',(0.0297457609999467,-1.50655000000014E-5,0.));
#1049=CARTESIAN_POINT('',(0.0297457609999467,0.016874798542052,0.));
#1050=CARTESIAN_POINT('',(0.0297457609999467,0.016874798542052,0.0014));
#1051=CARTESIAN_POINT('',(0.0297457609999467,0.016874798542052,0.0014));
#1052=CARTESIAN_POINT('',(0.0297457609999467,-1.50655000000014E-5,0.0014));
#1053=CARTESIAN_POINT('',(0.025445809542052,0.016874798542052,0.0014));
#1054=CARTESIAN_POINT('',(0.025445809542052,0.016874798542052,0.));
#1055=CARTESIAN_POINT('',(0.025445809542052,0.0211747499999467,0.));
#1056=CARTESIAN_POINT('',(0.025445809542052,0.0211747499999467,0.0014));
#1057=CARTESIAN_POINT('',(0.025445809542052,0.0211747499999467,0.0014));
#1058=CARTESIAN_POINT('',(0.025445809542052,0.016874798542052,0.0014));
#1059=CARTESIAN_POINT('',(-7.89914713399814E-6,0.0211747499998733,0.0014));
#1060=CARTESIAN_POINT('',(-7.89914713399814E-6,0.0211747499998733,0.));
#1061=CARTESIAN_POINT('',(-0.02546160783632,0.0211747499998733,0.));
#1062=CARTESIAN_POINT('',(-0.02546160783632,0.0211747499998733,0.0014));
#1063=CARTESIAN_POINT('',(-0.02546160783632,0.0211747499998733,0.0014));
#1064=CARTESIAN_POINT('',(-7.89914713399814E-6,0.0211747499998733,0.0014));
#1065=CARTESIAN_POINT('',(-0.02546160783632,0.01687479683632,0.0014));
#1066=CARTESIAN_POINT('',(-0.02546160783632,0.01687479683632,0.));
#1067=CARTESIAN_POINT('',(-0.0297615610005476,0.01687479683632,0.));
#1068=CARTESIAN_POINT('',(-0.0297615610005476,0.01687479683632,0.0014));
#1069=CARTESIAN_POINT('',(-0.0297615610005476,0.01687479683632,0.0014));
#1070=CARTESIAN_POINT('',(-0.02546160783632,0.01687479683632,0.0014));
#1071=CARTESIAN_POINT('',(-0.0297615610001267,-1.50663521575368E-5,0.0014));
#1072=CARTESIAN_POINT('',(-0.0297615610001267,-1.50663521575368E-5,0.));
#1073=CARTESIAN_POINT('',(-0.0297615610001267,-0.016904929540635,0.));
#1074=CARTESIAN_POINT('',(-0.0297615610001267,-0.016904929540635,0.0014));
#1075=CARTESIAN_POINT('',(-0.0297615610001267,-0.016904929540635,0.0014));
#1076=CARTESIAN_POINT('',(-0.0297615610001267,-1.50663521575368E-5,0.0014));
#1077=CARTESIAN_POINT('',(-0.02546160783632,0.01687479683632,0.0014));
#1078=CARTESIAN_POINT('',(-0.02546160783632,0.01687479683632,0.));
#1079=CARTESIAN_POINT('',(-0.02546160783632,0.0181747499998733,0.));
#1080=CARTESIAN_POINT('',(-0.026761561,0.01687479683632,0.));
#1081=CARTESIAN_POINT('',(-0.02546160783632,0.0181747499998733,0.0014));
#1082=CARTESIAN_POINT('',(-0.02546160783632,0.0181747499998733,0.0014));
#1083=CARTESIAN_POINT('',(-0.02546160783632,0.01687479683632,0.0014));
#1084=CARTESIAN_POINT('',(-0.026761561,0.01687479683632,0.0014));
#1085=CARTESIAN_POINT('',(-0.026761561,0.01687479683632,0.0014));
#1086=CARTESIAN_POINT('',(-7.89914713399814E-6,0.0181747499998733,0.0014));
#1087=CARTESIAN_POINT('',(-7.89914713399814E-6,0.0181747499998733,0.));
#1088=CARTESIAN_POINT('',(0.025445809542052,0.0181747499997999,0.));
#1089=CARTESIAN_POINT('',(0.025445809542052,0.0181747499997999,0.0014));
#1090=CARTESIAN_POINT('',(0.025445809542052,0.0181747499997999,0.0014));
#1091=CARTESIAN_POINT('',(-7.89914713399814E-6,0.0181747499998733,0.0014));
#1092=CARTESIAN_POINT('',(0.025445809542052,0.016874798542052,0.0014));
#1093=CARTESIAN_POINT('',(0.025445809542052,0.016874798542052,0.));
#1094=CARTESIAN_POINT('',(0.0267457609997999,0.016874798542052,0.));
#1095=CARTESIAN_POINT('',(0.0267457609997999,0.016874798542052,0.0014));
#1096=CARTESIAN_POINT('',(0.0267457609997999,0.016874798542052,0.0014));
#1097=CARTESIAN_POINT('',(0.025445809542052,0.016874798542052,0.0014));
#1098=CARTESIAN_POINT('',(0.0267457609997999,-1.50655000000014E-5,0.0014));
#1099=CARTESIAN_POINT('',(0.0267457609997999,-1.50655000000014E-5,0.));
#1100=CARTESIAN_POINT('',(0.0267457609997999,-0.016904929542052,0.));
#1101=CARTESIAN_POINT('',(0.0267457609997999,-0.016904929542052,0.0014));
#1102=CARTESIAN_POINT('',(0.0267457609997999,-0.016904929542052,0.0014));
#1103=CARTESIAN_POINT('',(0.0267457609997999,-1.50655000000014E-5,0.0014));
#1104=CARTESIAN_POINT('',(0.025445809542052,-0.016904929542052,0.0014));
#1105=CARTESIAN_POINT('',(0.025445809542052,-0.016904929542052,0.));
#1106=CARTESIAN_POINT('',(0.025445809542052,-0.018204880999887,0.));
#1107=CARTESIAN_POINT('',(0.025445809542052,-0.018204880999887,0.0014));
#1108=CARTESIAN_POINT('',(0.025445809542052,-0.018204880999887,0.0014));
#1109=CARTESIAN_POINT('',(0.025445809542052,-0.016904929542052,0.0014));
#1110=CARTESIAN_POINT('',(-7.9000005940022E-6,-0.018204880999887,0.0014));
#1111=CARTESIAN_POINT('',(-7.9000005940022E-6,-0.018204880999887,0.));
#1112=CARTESIAN_POINT('',(-0.02546160954324,-0.0182048810007291,0.));
#1113=CARTESIAN_POINT('',(-0.02546160954324,-0.0182048810007291,0.0014));
#1114=CARTESIAN_POINT('',(-0.02546160954324,-0.0182048810007291,0.0014));
#1115=CARTESIAN_POINT('',(-7.9000005940022E-6,-0.018204880999887,0.0014));
#1116=CARTESIAN_POINT('',(-0.02546160954324,-0.0169049295432,0.0014));
#1117=CARTESIAN_POINT('',(-0.02546160954324,-0.0169049295432,0.));
#1118=CARTESIAN_POINT('',(-0.026761561,-0.0169049295432,0.));
#1119=CARTESIAN_POINT('',(-0.026761561,-0.0169049295432,0.0014));
#1120=CARTESIAN_POINT('',(-0.026761561,-0.0169049295432,0.0014));
#1121=CARTESIAN_POINT('',(-0.02546160954324,-0.0169049295432,0.0014));
#1122=CARTESIAN_POINT('',(-0.026761561,-1.50663534400006E-5,0.0014));
#1123=CARTESIAN_POINT('',(-0.026761561,-1.50663534400006E-5,0.));
#1124=CARTESIAN_POINT('',(-0.026761561,-1.50663534400006E-5,0.0014));
#1125=CARTESIAN_POINT('',(-0.02546160954324,-0.0169049295432,0.0014));
#1126=CARTESIAN_POINT('',(-0.02546160954324,-0.0169049295432,0.));
#1127=CARTESIAN_POINT('',(-0.02546160954324,-0.0169049295432,0.0014));
#1128=CARTESIAN_POINT('',(-7.90000026515414E-6,-1.50655000156625E-5,0.0014));
#1129=CARTESIAN_POINT('',(-7.90000026515414E-6,-1.50655000156625E-5,-0.005));
#1130=CARTESIAN_POINT('',(0.0407457609999467,-1.50655000000014E-5,-0.005));
#1131=CARTESIAN_POINT('',(0.0407457609999467,0.016874798542052,-0.005));
#1132=CARTESIAN_POINT('',(0.0407457609999467,-0.016904929542052,-0.005));
#1133=CARTESIAN_POINT('',(0.025445809542052,-0.016904929542052,-0.005));
#1134=CARTESIAN_POINT('',(0.025445809542052,-0.0322048809999467,-0.005));
#1135=CARTESIAN_POINT('',(-7.9000005940022E-6,-0.0322048809999008,-0.005));
#1136=CARTESIAN_POINT('',(-0.02546160954324,-0.0322048809999008,-0.005));
#1137=CARTESIAN_POINT('',(-0.02546160954324,-0.0169049295432,-0.005));
#1138=CARTESIAN_POINT('',(-0.040761561000477,-0.0169049295432,-0.005));
#1139=CARTESIAN_POINT('',(-0.0407615610001952,-1.50663534400006E-5,-0.005));
#1140=CARTESIAN_POINT('',(-0.0407615610001952,0.01687479683632,-0.005));
#1141=CARTESIAN_POINT('',(-0.02546160783632,0.01687479683632,-0.005));
#1142=CARTESIAN_POINT('',(-0.02546160783632,0.0321747500004057,-0.005));
#1143=CARTESIAN_POINT('',(-7.89914713399814E-6,0.0321747499999467,-0.005));
#1144=CARTESIAN_POINT('',(0.025445809542052,0.0321747499999467,-0.005));
#1145=CARTESIAN_POINT('',(0.025445809542052,0.016874798542052,-0.005));
#1146=CARTESIAN_POINT('',(0.025445809542052,-0.016904929542052,-0.005));
#1147=CARTESIAN_POINT('',(0.025445809542052,-0.016904929542052,0.));
#1148=CARTESIAN_POINT('',(0.025445809542052,-0.0322048809999467,0.));
#1149=CARTESIAN_POINT('',(0.0407457609999467,-0.016904929542052,0.));
#1150=CARTESIAN_POINT('',(0.025445809542052,-0.0322048809999467,-0.005));
#1151=CARTESIAN_POINT('',(0.0407457609999467,-0.016904929542052,-0.005));
#1152=CARTESIAN_POINT('',(-7.9000005940022E-6,-0.0322048809999008,-0.005));
#1153=CARTESIAN_POINT('',(-7.9000005940022E-6,-0.0322048809999008,0.));
#1154=CARTESIAN_POINT('',(-0.02546160954324,-0.0322048809999008,0.));
#1155=CARTESIAN_POINT('',(-0.02546160954324,-0.0322048809999008,-0.005));
#1156=CARTESIAN_POINT('',(-0.02546160954324,-0.0169049295432,-0.005));
#1157=CARTESIAN_POINT('',(-0.02546160954324,-0.0169049295432,0.));
#1158=CARTESIAN_POINT('',(-0.040761561000477,-0.0169049295432,0.));
#1159=CARTESIAN_POINT('',(-0.040761561000477,-0.0169049295432,-0.005));
#1160=CARTESIAN_POINT('',(-0.0407615610001952,-1.50663534400006E-5,-0.005));
#1161=CARTESIAN_POINT('',(-0.0407615610001952,-1.50663534400006E-5,0.));
#1162=CARTESIAN_POINT('',(-0.0407615610001952,0.01687479683632,0.));
#1163=CARTESIAN_POINT('',(-0.0407615610001952,0.01687479683632,-0.005));
#1164=CARTESIAN_POINT('',(-0.02546160783632,0.01687479683632,-0.005));
#1165=CARTESIAN_POINT('',(-0.02546160783632,0.01687479683632,0.));
#1166=CARTESIAN_POINT('',(-0.02546160783632,0.0321747500004057,0.));
#1167=CARTESIAN_POINT('',(-0.02546160783632,0.0321747500004057,-0.005));
#1168=CARTESIAN_POINT('',(-7.89914713399814E-6,0.0321747499999467,-0.005));
#1169=CARTESIAN_POINT('',(-7.89914713399814E-6,0.0321747499999467,0.));
#1170=CARTESIAN_POINT('',(0.025445809542052,0.0321747499999467,0.));
#1171=CARTESIAN_POINT('',(0.025445809542052,0.0321747499999467,-0.005));
#1172=CARTESIAN_POINT('',(0.025445809542052,0.016874798542052,-0.005));
#1173=CARTESIAN_POINT('',(0.025445809542052,0.016874798542052,0.));
#1174=CARTESIAN_POINT('',(0.0407457609999467,0.016874798542052,0.));
#1175=CARTESIAN_POINT('',(0.0407457609999467,0.016874798542052,-0.005));
#1176=CARTESIAN_POINT('',(0.0407457609999467,-1.50655000000014E-5,-0.005));
#1177=CARTESIAN_POINT('',(0.0407457609999467,-1.50655000000014E-5,0.));
#1178=CARTESIAN_POINT('',(-7.90000026515414E-6,-1.50655000156625E-5,0.));
#1179=CARTESIAN_POINT('',(0.0306126836906073,-0.0220380068513686,0.));
#1180=CARTESIAN_POINT('',(0.0331126836906072,-0.0220380068513686,0.));
#1181=CARTESIAN_POINT('',(-0.0306115852717176,-0.0220311663649283,0.));
#1182=CARTESIAN_POINT('',(-0.0281115852717176,-0.0220311663649283,0.));
#1183=CARTESIAN_POINT('',(-7.90000026515414E-6,-1.50655000156625E-5,0.));
#1184=CARTESIAN_POINT('',(-7.90000026515414E-6,-1.50655000156625E-5,0.0089));
#1185=CARTESIAN_POINT('',(-0.0306115852717176,-0.0220549052715504,0.0089));
#1186=CARTESIAN_POINT('',(-0.0291115852717176,-0.0220549052715504,0.0089));
#1187=CARTESIAN_POINT('',(-0.0306115852717176,-0.0220311663649283,0.0089));
#1188=CARTESIAN_POINT('',(-0.0281115852717176,-0.0220311663649283,0.0089));
#1189=CARTESIAN_POINT('',(-0.0306115852717176,-0.0220311663649283,0.0089));
#1190=CARTESIAN_POINT('',(-0.0306115852717176,-0.0220549052715504,0.0089));
#1191=CARTESIAN_POINT('',(-7.90000026515414E-6,-1.50655000156625E-5,0.));
#1192=CARTESIAN_POINT('',(-7.90000026515414E-6,-1.50655000156625E-5,0.0089));
#1193=CARTESIAN_POINT('',(0.0306126836906073,-0.0220380068513686,0.0089));
#1194=CARTESIAN_POINT('',(0.0321126836906072,-0.0220380068513686,0.0089));
#1195=CARTESIAN_POINT('',(0.0306126836906073,-0.0220380068513686,0.0089));
#1196=CARTESIAN_POINT('',(0.0331126836906072,-0.0220380068513686,0.0089));
#1197=CARTESIAN_POINT('',(0.0306126836906073,-0.0220380068513686,0.0089));
#1198=CARTESIAN_POINT('',(0.0306126836906073,-0.0220380068513686,0.0089));
#1199=CARTESIAN_POINT('',(-7.90000026515414E-6,-1.50655000156625E-5,0.));
#1200=MECHANICAL_DESIGN_GEOMETRIC_PRESENTATION_REPRESENTATION('',(#689),
#1201);
#1201=(
GEOMETRIC_REPRESENTATION_CONTEXT(3)
GLOBAL_UNCERTAINTY_ASSIGNED_CONTEXT((#1202))
GLOBAL_UNIT_ASSIGNED_CONTEXT((#1205,#1204,#1203))
REPRESENTATION_CONTEXT('Part 1','TOP_LEVEL_ASSEMBLY_PART')
);
#1202=UNCERTAINTY_MEASURE_WITH_UNIT(LENGTH_MEASURE(1.E-8),#1205,
'DISTANCE_ACCURACY_VALUE','Maximum Tolerance applied to model');
#1203=(
NAMED_UNIT(*)
SI_UNIT($,.STERADIAN.)
SOLID_ANGLE_UNIT()
);
#1204=(
NAMED_UNIT(*)
PLANE_ANGLE_UNIT()
SI_UNIT($,.RADIAN.)
);
#1205=(
LENGTH_UNIT()
NAMED_UNIT(*)
SI_UNIT($,.METRE.)
);
#1206=PRODUCT_DEFINITION_SHAPE('','',#1207);
#1207=PRODUCT_DEFINITION('','',#1209,#1208);
#1208=PRODUCT_DEFINITION_CONTEXT('',#1215,'design');
#1209=PRODUCT_DEFINITION_FORMATION_WITH_SPECIFIED_SOURCE('','',#1211,
 .NOT_KNOWN.);
#1210=PRODUCT_RELATED_PRODUCT_CATEGORY('','',(#1211));
#1211=PRODUCT('Part 1','Part 1','Part 1',(#1213));
#1212=PRODUCT_CATEGORY('','');
#1213=PRODUCT_CONTEXT('',#1215,'mechanical');
#1214=APPLICATION_PROTOCOL_DEFINITION('international standard',
'ap242_managed_model_based_3d_engineering',2020,#1215);
#1215=APPLICATION_CONTEXT('managed model based 3d engineering');
ENDSEC;
END-ISO-10303-21;
